<svg width="31" height="36" viewBox="0 0 31 36" fill="none" xmlns="http://www.w3.org/2000/svg">
<path d="M8.84451 0V4.42225H13.2668V4.55492C5.74893 5.61626 0 12.117 0 19.9001C0 28.4351 6.94294 35.378 15.4779 35.378C24.0128 35.378 30.9558 28.4351 30.9558 19.9001C30.9558 17.9101 30.5135 16.0528 29.8502 14.3723L25.826 16.0528C26.3124 17.3352 26.5335 18.5735 26.5335 19.9444C26.5335 26.0913 21.6248 31 15.4779 31C9.33096 31 4.42225 26.0913 4.42225 19.9444C4.42225 13.7974 9.33096 8.88873 15.4779 8.88873C16.8046 8.88873 18.087 9.10984 19.3695 9.59629L20.873 5.43937C19.8559 5.08559 18.7946 4.9087 17.689 4.73181V4.46648H22.1113V0.0442225H8.84451V0ZM30.9558 5.12981C30.9558 5.12981 14.8145 17.5563 13.9743 18.3966C13.1341 19.281 13.1341 20.5635 13.9743 21.4479C14.8145 22.3324 16.1412 22.3324 17.0257 21.4479C17.9101 20.5635 31 5.12981 31 5.12981H30.9558Z" fill="black"/>
</svg>
