<svg width="21" height="25" viewBox="0 0 21 25" fill="none" xmlns="http://www.w3.org/2000/svg">
<path d="M7.41176 19.7647C6.73235 19.7647 6.15094 19.523 5.66753 19.0396C5.18412 18.5562 4.942 17.9744 4.94118 17.2941V2.47059C4.94118 1.79118 5.18329 1.20976 5.66753 0.726353C6.15176 0.242941 6.73318 0.000823529 7.41176 0H18.5294C19.2088 0 19.7906 0.242118 20.2749 0.726353C20.7591 1.21059 21.0008 1.792 21 2.47059V17.2941C21 17.9735 20.7583 18.5554 20.2749 19.0396C19.7915 19.5238 19.2096 19.7655 18.5294 19.7647H7.41176ZM2.47059 24.7059C1.79118 24.7059 1.20976 24.4642 0.726353 23.9808C0.242941 23.4974 0.000823529 22.9155 0 22.2353V4.94118H2.47059V22.2353H16.0588V24.7059H2.47059Z" fill="#2D60FF"/>
</svg>
