<svg width="43" height="43" viewBox="0 0 43 43" fill="none" xmlns="http://www.w3.org/2000/svg">
<path d="M21.4832 3.20386C11.0985 3.19966 2.6875 11.6065 2.6875 21.9828C2.6875 30.188 7.94912 37.1629 15.2768 39.7245C16.2636 39.9722 16.1124 39.2709 16.1124 38.7922V35.5378C10.4141 36.2055 10.1831 32.4346 9.80098 31.8047C9.02832 30.4862 7.20166 30.1502 7.74756 29.5204C9.04512 28.8527 10.3679 29.6883 11.9006 31.9517C13.0092 33.5936 15.1718 33.3165 16.2678 33.0435C16.5071 32.0567 17.0194 31.1749 17.7249 30.4904C11.8208 29.4322 9.36006 25.8292 9.36006 21.546C9.36006 19.4674 10.0445 17.5568 11.3883 16.0157C10.5316 13.4751 11.4681 11.3 11.594 10.9766C14.0338 10.7583 16.5701 12.7235 16.7675 12.8789C18.1532 12.5051 19.7363 12.3078 21.5084 12.3078C23.2889 12.3078 24.8762 12.5135 26.2745 12.8915C26.749 12.5303 29.1006 10.8422 31.3682 11.048C31.4899 11.3713 32.4054 13.4961 31.5991 16.0031C32.9597 17.5484 33.6525 19.4758 33.6525 21.5586C33.6525 25.8502 31.175 29.4574 25.2541 30.4988C25.7612 30.9975 26.1639 31.5923 26.4386 32.2484C26.7133 32.9045 26.8545 33.6088 26.854 34.3201V39.0442C26.8876 39.4221 26.854 39.7958 27.4839 39.7958C34.9207 37.2889 40.2747 30.2636 40.2747 21.987C40.2747 11.6065 31.8595 3.20386 21.4832 3.20386Z" fill="black"/>
</svg>
