<svg width="131" height="132" viewBox="0 0 131 132" fill="none" xmlns="http://www.w3.org/2000/svg">
<g filter="url(#filter0_d_1_1925)">
<circle cx="65.5" cy="48" r="37.5" fill="#E6F0FF"/>
</g>
<path d="M77.1638 37.8354C77.0044 37.7065 76.8183 37.615 76.6189 37.5675C76.4196 37.52 76.2121 37.5179 76.0118 37.5611L65.3426 39.961L54.6735 37.5337C54.47 37.4877 54.2587 37.4888 54.0557 37.5368C53.8527 37.5848 53.6633 37.6785 53.502 37.8108C53.3407 37.943 53.2116 38.1103 53.1247 38.2999C53.0378 38.4896 52.9953 38.6965 53.0004 38.9051V55.6356C52.9927 55.9526 53.095 56.2625 53.29 56.5126C53.4851 56.7626 53.7607 56.9373 54.0701 57.007L65.0409 59.4754H65.6443L76.6152 57.007C76.9246 56.9373 77.2002 56.7626 77.3952 56.5126C77.5903 56.2625 77.6926 55.9526 77.6849 55.6356V38.9051C77.6839 38.6991 77.6366 38.4959 77.5464 38.3108C77.4561 38.1256 77.3254 37.9631 77.1638 37.8354ZM55.7431 40.6192L63.9713 42.4706V56.3899L55.7431 54.5385V40.6192ZM74.9422 54.5385L66.714 56.3899V42.4706L74.9422 40.6192V54.5385Z" fill="#5E9DFF"/>
<defs>
<filter id="filter0_d_1_1925" x="0" y="0.5" width="131" height="131" filterUnits="userSpaceOnUse" color-interpolation-filters="sRGB">
<feFlood flood-opacity="0" result="BackgroundImageFix"/>
<feColorMatrix in="SourceAlpha" type="matrix" values="0 0 0 0 0 0 0 0 0 0 0 0 0 0 0 0 0 0 127 0" result="hardAlpha"/>
<feMorphology radius="12" operator="erode" in="SourceAlpha" result="effect1_dropShadow_1_1925"/>
<feOffset dy="18"/>
<feGaussianBlur stdDeviation="20"/>
<feColorMatrix type="matrix" values="0 0 0 0 0.364706 0 0 0 0 0.615686 0 0 0 0 1 0 0 0 0.35 0"/>
<feBlend mode="normal" in2="BackgroundImageFix" result="effect1_dropShadow_1_1925"/>
<feBlend mode="normal" in="SourceGraphic" in2="effect1_dropShadow_1_1925" result="shape"/>
</filter>
</defs>
</svg>
