<svg width="28" height="28" viewBox="0 0 28 28" fill="none" xmlns="http://www.w3.org/2000/svg">
<path d="M24.2083 5.54199H3.79167C3.15 5.54199 2.625 6.06699 2.625 6.70866V21.292C2.625 21.9337 3.15 22.4587 3.79167 22.4587H24.2083C24.85 22.4587 25.375 21.9337 25.375 21.292V6.70866C25.375 6.06699 24.85 5.54199 24.2083 5.54199Z" stroke="#B1B1B1" stroke-width="1.16667" stroke-linecap="round" stroke-linejoin="round"/>
<path d="M17.6772 14.0006C17.6772 14.127 17.6439 14.2512 17.5806 14.3606C17.5173 14.47 17.4264 14.5608 17.3168 14.6239L11.9822 17.6952C11.8729 17.7581 11.7489 17.7912 11.6227 17.791C11.4965 17.7909 11.3726 17.7575 11.2634 17.6944C11.1541 17.6312 11.0634 17.5404 11.0004 17.431C10.9374 17.3217 10.9042 17.1978 10.9043 17.0716V10.9291C10.9042 10.8029 10.9374 10.6789 11.0004 10.5696C11.0634 10.4603 11.1541 10.3695 11.2634 10.3063C11.3726 10.2431 11.4965 10.2098 11.6227 10.2096C11.7489 10.2095 11.8729 10.2426 11.9822 10.3055L17.3168 13.3773C17.4264 13.4404 17.5173 13.5312 17.5806 13.6406C17.6439 13.7501 17.6772 13.8742 17.6772 14.0006ZM17.6772 14.0006L23.1875 14.0003M14 5.54199V11.3788M14 16.5332V22.4587M4.8125 18.6617H11.8125M4.8125 14.0003H10.9037M4.8125 9.33891H11.8125M16.1875 18.6617H23.1875M16.1875 9.33891H23.1875" stroke="#B1B1B1" stroke-width="1.16667" stroke-linecap="round" stroke-linejoin="round"/>
</svg>
