<svg width="40" height="40" viewBox="0 0 40 40" fill="none" xmlns="http://www.w3.org/2000/svg">
<circle cx="20" cy="20" r="20" fill="#2489D3"/>
<path d="M10.374 28.25C9.702 28.25 9.192 28.046 8.844 27.638C8.496 27.23 8.322 26.66 8.322 25.928V22.652C8.322 22.268 8.25 21.98 8.106 21.788C7.962 21.584 7.758 21.482 7.494 21.482C7.266 21.482 7.08 21.404 6.936 21.248C6.792 21.08 6.72 20.858 6.72 20.582C6.72 20.306 6.792 20.09 6.936 19.934C7.08 19.766 7.266 19.682 7.494 19.682C7.758 19.682 7.962 19.58 8.106 19.376C8.25 19.172 8.322 18.878 8.322 18.494V15.218C8.322 14.486 8.496 13.922 8.844 13.526C9.192 13.118 9.702 12.914 10.374 12.914H12.408C12.408 13.502 12.318 13.952 12.138 14.264C11.97 14.576 11.682 14.732 11.274 14.732H11.004C10.848 14.732 10.722 14.786 10.626 14.894C10.542 14.99 10.5 15.122 10.5 15.29V18.404C10.5 18.92 10.422 19.358 10.266 19.718C10.11 20.066 9.846 20.354 9.474 20.582C9.846 20.798 10.11 21.086 10.266 21.446C10.422 21.794 10.5 22.232 10.5 22.76V25.856C10.5 26.036 10.542 26.174 10.626 26.27C10.722 26.378 10.848 26.432 11.004 26.432H11.274C11.682 26.432 11.97 26.588 12.138 26.9C12.318 27.212 12.408 27.662 12.408 28.25H10.374ZM19.4007 26.162C18.3567 26.162 17.4207 25.964 16.5927 25.568C15.7767 25.16 15.1407 24.602 14.6847 23.894C14.2287 23.174 14.0007 22.358 14.0007 21.446V17.9C14.0007 16.988 14.2227 16.184 14.6667 15.488C15.1227 14.78 15.7527 14.228 16.5567 13.832C17.3727 13.436 18.2967 13.238 19.3287 13.238C20.3727 13.238 21.2967 13.4 22.1007 13.724C22.9047 14.036 23.5287 14.48 23.9727 15.056C24.4287 15.62 24.6567 16.268 24.6567 17C24.6567 17.42 24.5187 17.75 24.2427 17.99C23.9667 18.218 23.5947 18.332 23.1267 18.332C22.8987 18.332 22.6827 18.308 22.4787 18.26C22.5147 18.08 22.5327 17.81 22.5327 17.45C22.5327 16.766 22.2327 16.208 21.6327 15.776C21.0447 15.344 20.2767 15.128 19.3287 15.128C18.3927 15.128 17.6307 15.386 17.0427 15.902C16.4547 16.418 16.1607 17.084 16.1607 17.9V21.446C16.1607 22.274 16.4607 22.952 17.0607 23.48C17.6607 23.996 18.4407 24.254 19.4007 24.254C20.3487 24.254 21.1227 24.044 21.7227 23.624C22.3227 23.192 22.6227 22.634 22.6227 21.95C22.6227 21.614 22.6047 21.356 22.5687 21.176C22.7607 21.128 22.9707 21.104 23.1987 21.104C23.6667 21.104 24.0387 21.23 24.3147 21.482C24.6027 21.734 24.7467 22.076 24.7467 22.508C24.7467 23.216 24.5187 23.846 24.0627 24.398C23.6187 24.95 22.9887 25.382 22.1727 25.694C21.3567 26.006 20.4327 26.162 19.4007 26.162ZM26.179 28.25C26.179 27.662 26.263 27.212 26.431 26.9C26.611 26.588 26.905 26.432 27.313 26.432H27.583C27.739 26.432 27.859 26.378 27.943 26.27C28.039 26.174 28.087 26.036 28.087 25.856V22.76C28.087 22.232 28.165 21.794 28.321 21.446C28.477 21.086 28.741 20.798 29.113 20.582C28.741 20.354 28.477 20.066 28.321 19.718C28.165 19.358 28.087 18.92 28.087 18.404V15.29C28.087 15.122 28.039 14.99 27.943 14.894C27.859 14.786 27.739 14.732 27.583 14.732H27.313C26.905 14.732 26.611 14.576 26.431 14.264C26.263 13.952 26.179 13.502 26.179 12.914H28.213C28.873 12.914 29.377 13.118 29.725 13.526C30.073 13.922 30.247 14.486 30.247 15.218V18.494C30.247 18.878 30.319 19.172 30.463 19.376C30.607 19.58 30.817 19.682 31.093 19.682C31.321 19.682 31.507 19.766 31.651 19.934C31.795 20.09 31.867 20.306 31.867 20.582C31.867 20.858 31.795 21.08 31.651 21.248C31.507 21.404 31.321 21.482 31.093 21.482C30.817 21.482 30.607 21.584 30.463 21.788C30.319 21.98 30.247 22.268 30.247 22.652V25.928C30.247 26.672 30.073 27.242 29.725 27.638C29.389 28.046 28.885 28.25 28.213 28.25H26.179Z" fill="white"/>
</svg>
