<svg width="30" height="30" viewBox="0 0 30 30" fill="none" xmlns="http://www.w3.org/2000/svg">
<mask id="mask0_38_726" style="mask-type:alpha" maskUnits="userSpaceOnUse" x="-1" y="0" width="31" height="30">
<rect x="-0.00488281" y="0.113281" width="29.7931" height="29.7931" fill="#1C1B1F"/>
</mask>
<g mask="url(#mask0_38_726)">
<path d="M14.8918 26.182C13.6149 24.9761 12.1519 24.0539 10.5026 23.4155C8.85336 22.7771 7.12429 22.4579 5.31543 22.4579V10.7534C7.10656 10.7534 8.82675 11.0769 10.476 11.7238C12.1253 12.3715 13.5972 13.3071 14.8918 14.5308C16.1864 13.3071 17.6583 12.3715 19.3075 11.7238C20.9568 11.0769 22.677 10.7534 24.4681 10.7534V22.4579C22.6415 22.4579 20.9082 22.7771 19.2682 23.4155C17.6274 24.0539 16.1686 24.9761 14.8918 26.182ZM14.8918 23.4155C16.009 22.582 17.1972 21.917 18.4563 21.4204C19.7154 20.9239 21.01 20.5958 22.34 20.4362V13.0943C21.0455 13.3249 19.7732 13.7902 18.5233 14.4903C17.2727 15.1912 16.0622 16.1268 14.8918 17.2973C13.7213 16.1268 12.5112 15.1912 11.2613 14.4903C10.0107 13.7902 8.73809 13.3249 7.44351 13.0943V20.4362C8.77355 20.5958 10.0681 20.9239 11.3272 21.4204C12.5864 21.917 13.7745 22.582 14.8918 23.4155ZM14.8918 11.8175C13.7213 11.8175 12.7194 11.4007 11.8859 10.5672C11.0524 9.73374 10.6356 8.73177 10.6356 7.56133C10.6356 6.39089 11.0524 5.38892 11.8859 4.55542C12.7194 3.72192 13.7213 3.30518 14.8918 3.30518C16.0622 3.30518 17.0642 3.72192 17.8977 4.55542C18.7312 5.38892 19.1479 6.39089 19.1479 7.56133C19.1479 8.73177 18.7312 9.73374 17.8977 10.5672C17.0642 11.4007 16.0622 11.8175 14.8918 11.8175ZM14.8918 9.6894C15.477 9.6894 15.9782 9.48085 16.3953 9.06375C16.8117 8.64736 17.0198 8.14655 17.0198 7.56133C17.0198 6.97611 16.8117 6.47494 16.3953 6.05784C15.9782 5.64145 15.477 5.43325 14.8918 5.43325C14.3066 5.43325 13.8057 5.64145 13.3893 6.05784C12.9722 6.47494 12.7637 6.97611 12.7637 7.56133C12.7637 8.14655 12.9722 8.64736 13.3893 9.06375C13.8057 9.48085 14.3066 9.6894 14.8918 9.6894Z" fill="#2D9CDB"/>
</g>
</svg>
