<svg width="795" height="162" viewBox="0 0 795 162" fill="none" xmlns="http://www.w3.org/2000/svg">
<rect width="809.166" height="112.58" transform="translate(-15 48.8931)" fill="#E5D1FF"/>
<path d="M619.026 127.351H620.823C620.787 127.941 620.625 128.464 620.336 128.921C620.052 129.378 619.653 129.734 619.14 129.991C618.631 130.247 618.018 130.376 617.3 130.376C616.739 130.376 616.236 130.279 615.791 130.087C615.346 129.891 614.965 129.61 614.649 129.245C614.336 128.881 614.098 128.44 613.933 127.923C613.769 127.405 613.687 126.826 613.687 126.185V125.578C613.687 124.936 613.771 124.357 613.939 123.84C614.112 123.319 614.356 122.876 614.673 122.511C614.993 122.147 615.376 121.866 615.821 121.67C616.266 121.473 616.763 121.375 617.312 121.375C618.042 121.375 618.657 121.507 619.158 121.772C619.663 122.036 620.054 122.401 620.33 122.866C620.611 123.331 620.779 123.86 620.835 124.453H619.032C619.012 124.101 618.942 123.802 618.821 123.558C618.701 123.309 618.519 123.123 618.274 122.998C618.034 122.87 617.713 122.806 617.312 122.806C617.012 122.806 616.749 122.862 616.525 122.974C616.3 123.087 616.112 123.257 615.959 123.485C615.807 123.714 615.693 124.002 615.617 124.351C615.545 124.696 615.508 125.101 615.508 125.566V126.185C615.508 126.638 615.543 127.037 615.611 127.381C615.679 127.722 615.783 128.011 615.923 128.247C616.068 128.48 616.252 128.656 616.476 128.776C616.705 128.893 616.98 128.951 617.3 128.951C617.677 128.951 617.988 128.891 618.232 128.77C618.477 128.65 618.663 128.472 618.791 128.235C618.924 127.999 619.002 127.704 619.026 127.351ZM623.727 121.02V130.255H621.99V121.02H623.727ZM628.153 130.376C627.648 130.376 627.195 130.295 626.794 130.135C626.393 129.971 626.052 129.744 625.772 129.456C625.495 129.167 625.283 128.832 625.134 128.452C624.986 128.067 624.912 127.658 624.912 127.225V126.985C624.912 126.492 624.982 126.041 625.122 125.632C625.263 125.223 625.463 124.868 625.724 124.568C625.988 124.267 626.309 124.037 626.686 123.876C627.062 123.712 627.487 123.63 627.96 123.63C628.421 123.63 628.83 123.706 629.187 123.858C629.543 124.01 629.842 124.227 630.083 124.508C630.327 124.788 630.511 125.125 630.636 125.518C630.76 125.906 630.822 126.339 630.822 126.816V127.538H625.651V126.383H629.121V126.251C629.121 126.011 629.076 125.796 628.988 125.608C628.904 125.415 628.776 125.263 628.603 125.151C628.431 125.039 628.211 124.982 627.942 124.982C627.714 124.982 627.517 125.033 627.353 125.133C627.189 125.233 627.054 125.373 626.95 125.554C626.85 125.734 626.774 125.946 626.722 126.191C626.674 126.431 626.649 126.696 626.649 126.985V127.225C626.649 127.486 626.686 127.726 626.758 127.947C626.834 128.167 626.94 128.357 627.076 128.518C627.217 128.678 627.385 128.802 627.581 128.891C627.782 128.979 628.008 129.023 628.261 129.023C628.573 129.023 628.864 128.963 629.133 128.842C629.405 128.718 629.64 128.532 629.836 128.283L630.678 129.197C630.541 129.394 630.355 129.582 630.119 129.762C629.886 129.943 629.606 130.091 629.277 130.207C628.948 130.32 628.573 130.376 628.153 130.376ZM635.319 128.788V125.89C635.319 125.682 635.285 125.504 635.217 125.355C635.149 125.203 635.043 125.085 634.898 125.001C634.758 124.916 634.576 124.874 634.351 124.874C634.159 124.874 633.993 124.908 633.852 124.976C633.712 125.041 633.604 125.135 633.528 125.259C633.451 125.379 633.413 125.522 633.413 125.686H631.682C631.682 125.409 631.746 125.147 631.874 124.898C632.003 124.65 632.189 124.431 632.433 124.243C632.678 124.051 632.968 123.9 633.305 123.792C633.646 123.684 634.027 123.63 634.448 123.63C634.953 123.63 635.402 123.714 635.794 123.882C636.187 124.051 636.496 124.303 636.72 124.64C636.949 124.976 637.063 125.397 637.063 125.902V128.686C637.063 129.043 637.085 129.335 637.129 129.564C637.173 129.788 637.237 129.985 637.321 130.153V130.255H635.572C635.488 130.079 635.424 129.859 635.379 129.594C635.339 129.325 635.319 129.057 635.319 128.788ZM635.548 126.293L635.56 127.273H634.592C634.363 127.273 634.165 127.299 633.997 127.351C633.828 127.403 633.69 127.478 633.582 127.574C633.474 127.666 633.393 127.774 633.341 127.899C633.293 128.023 633.269 128.159 633.269 128.307C633.269 128.456 633.303 128.59 633.371 128.71C633.439 128.826 633.538 128.919 633.666 128.987C633.794 129.051 633.945 129.083 634.117 129.083C634.377 129.083 634.604 129.031 634.796 128.927C634.989 128.822 635.137 128.694 635.241 128.542C635.349 128.39 635.406 128.245 635.41 128.109L635.866 128.842C635.802 129.007 635.714 129.177 635.602 129.354C635.494 129.53 635.355 129.696 635.187 129.853C635.019 130.005 634.816 130.131 634.58 130.231C634.343 130.328 634.063 130.376 633.738 130.376C633.325 130.376 632.95 130.293 632.614 130.129C632.281 129.961 632.017 129.73 631.82 129.438C631.628 129.141 631.532 128.804 631.532 128.428C631.532 128.087 631.596 127.784 631.724 127.52C631.852 127.255 632.041 127.033 632.289 126.852C632.542 126.668 632.856 126.53 633.233 126.437C633.61 126.341 634.047 126.293 634.544 126.293H635.548ZM640.093 125.139V130.255H638.362V123.75H639.985L640.093 125.139ZM639.841 126.774H639.372C639.372 126.293 639.434 125.86 639.558 125.476C639.682 125.087 639.857 124.756 640.081 124.483C640.306 124.207 640.572 123.996 640.881 123.852C641.193 123.704 641.542 123.63 641.927 123.63C642.232 123.63 642.51 123.674 642.763 123.762C643.015 123.85 643.232 123.99 643.412 124.183C643.596 124.375 643.737 124.63 643.833 124.946C643.933 125.263 643.983 125.65 643.983 126.107V130.255H642.24V126.101C642.24 125.812 642.2 125.588 642.119 125.427C642.039 125.267 641.921 125.155 641.765 125.091C641.612 125.023 641.424 124.989 641.199 124.989C640.967 124.989 640.765 125.035 640.592 125.127C640.424 125.219 640.284 125.347 640.171 125.512C640.063 125.672 639.981 125.86 639.925 126.077C639.869 126.293 639.841 126.526 639.841 126.774ZM653.549 127.351H655.347C655.311 127.941 655.148 128.464 654.86 128.921C654.575 129.378 654.176 129.734 653.663 129.991C653.154 130.247 652.541 130.376 651.823 130.376C651.262 130.376 650.759 130.279 650.314 130.087C649.869 129.891 649.489 129.61 649.172 129.245C648.859 128.881 648.621 128.44 648.456 127.923C648.292 127.405 648.21 126.826 648.21 126.185V125.578C648.21 124.936 648.294 124.357 648.462 123.84C648.635 123.319 648.879 122.876 649.196 122.511C649.517 122.147 649.899 121.866 650.344 121.67C650.789 121.473 651.286 121.375 651.835 121.375C652.565 121.375 653.18 121.507 653.681 121.772C654.186 122.036 654.577 122.401 654.854 122.866C655.134 123.331 655.303 123.86 655.359 124.453H653.555C653.535 124.101 653.465 123.802 653.345 123.558C653.224 123.309 653.042 123.123 652.797 122.998C652.557 122.87 652.236 122.806 651.835 122.806C651.535 122.806 651.272 122.862 651.048 122.974C650.823 123.087 650.635 123.257 650.483 123.485C650.33 123.714 650.216 124.002 650.14 124.351C650.068 124.696 650.032 125.101 650.032 125.566V126.185C650.032 126.638 650.066 127.037 650.134 127.381C650.202 127.722 650.306 128.011 650.447 128.247C650.591 128.48 650.775 128.656 651 128.776C651.228 128.893 651.503 128.951 651.823 128.951C652.2 128.951 652.511 128.891 652.755 128.77C653 128.65 653.186 128.472 653.314 128.235C653.447 127.999 653.525 127.704 653.549 127.351ZM656.146 127.069V126.943C656.146 126.466 656.214 126.027 656.351 125.626C656.487 125.221 656.685 124.87 656.946 124.574C657.206 124.277 657.527 124.047 657.908 123.882C658.289 123.714 658.726 123.63 659.219 123.63C659.712 123.63 660.151 123.714 660.535 123.882C660.92 124.047 661.243 124.277 661.503 124.574C661.768 124.87 661.968 125.221 662.105 125.626C662.241 126.027 662.309 126.466 662.309 126.943V127.069C662.309 127.542 662.241 127.981 662.105 128.386C661.968 128.786 661.768 129.137 661.503 129.438C661.243 129.734 660.922 129.965 660.541 130.129C660.161 130.293 659.724 130.376 659.231 130.376C658.738 130.376 658.299 130.293 657.914 130.129C657.533 129.965 657.21 129.734 656.946 129.438C656.685 129.137 656.487 128.786 656.351 128.386C656.214 127.981 656.146 127.542 656.146 127.069ZM657.878 126.943V127.069C657.878 127.341 657.902 127.596 657.95 127.832C657.998 128.069 658.074 128.277 658.178 128.458C658.287 128.634 658.427 128.772 658.599 128.873C658.772 128.973 658.982 129.023 659.231 129.023C659.471 129.023 659.678 128.973 659.85 128.873C660.022 128.772 660.161 128.634 660.265 128.458C660.369 128.277 660.445 128.069 660.493 127.832C660.545 127.596 660.571 127.341 660.571 127.069V126.943C660.571 126.678 660.545 126.429 660.493 126.197C660.445 125.961 660.367 125.752 660.259 125.572C660.155 125.387 660.016 125.243 659.844 125.139C659.672 125.035 659.463 124.982 659.219 124.982C658.974 124.982 658.766 125.035 658.593 125.139C658.425 125.243 658.287 125.387 658.178 125.572C658.074 125.752 657.998 125.961 657.95 126.197C657.902 126.429 657.878 126.678 657.878 126.943ZM667.215 128.836V121.02H668.959V130.255H667.389L667.215 128.836ZM663.103 127.081V126.955C663.103 126.458 663.159 126.007 663.271 125.602C663.383 125.193 663.548 124.842 663.764 124.55C663.98 124.257 664.247 124.031 664.564 123.87C664.88 123.71 665.241 123.63 665.646 123.63C666.027 123.63 666.359 123.71 666.644 123.87C666.933 124.031 667.177 124.259 667.377 124.556C667.582 124.848 667.746 125.195 667.87 125.596C667.995 125.993 668.085 126.427 668.141 126.9V127.177C668.085 127.63 667.995 128.051 667.87 128.44C667.746 128.828 667.582 129.169 667.377 129.462C667.177 129.75 666.933 129.975 666.644 130.135C666.355 130.295 666.019 130.376 665.634 130.376C665.229 130.376 664.868 130.293 664.552 130.129C664.239 129.965 663.974 129.734 663.758 129.438C663.546 129.141 663.383 128.792 663.271 128.392C663.159 127.991 663.103 127.554 663.103 127.081ZM664.834 126.955V127.081C664.834 127.349 664.854 127.6 664.894 127.832C664.938 128.065 665.009 128.271 665.105 128.452C665.205 128.628 665.333 128.766 665.49 128.867C665.65 128.963 665.844 129.011 666.073 129.011C666.369 129.011 666.614 128.945 666.806 128.812C666.999 128.676 667.145 128.49 667.245 128.253C667.349 128.017 667.41 127.744 667.426 127.436V126.648C667.414 126.395 667.377 126.169 667.317 125.969C667.261 125.764 667.177 125.59 667.065 125.445C666.957 125.301 666.82 125.189 666.656 125.109C666.496 125.029 666.305 124.989 666.085 124.989C665.86 124.989 665.668 125.041 665.508 125.145C665.347 125.245 665.217 125.383 665.117 125.56C665.021 125.736 664.948 125.944 664.9 126.185C664.856 126.421 664.834 126.678 664.834 126.955ZM673.306 130.376C672.801 130.376 672.348 130.295 671.947 130.135C671.546 129.971 671.205 129.744 670.925 129.456C670.648 129.167 670.436 128.832 670.287 128.452C670.139 128.067 670.065 127.658 670.065 127.225V126.985C670.065 126.492 670.135 126.041 670.275 125.632C670.416 125.223 670.616 124.868 670.877 124.568C671.141 124.267 671.462 124.037 671.839 123.876C672.215 123.712 672.64 123.63 673.113 123.63C673.574 123.63 673.983 123.706 674.34 123.858C674.697 124.01 674.995 124.227 675.236 124.508C675.48 124.788 675.665 125.125 675.789 125.518C675.913 125.906 675.975 126.339 675.975 126.816V127.538H670.805V126.383H674.274V126.251C674.274 126.011 674.23 125.796 674.141 125.608C674.057 125.415 673.929 125.263 673.757 125.151C673.584 125.039 673.364 124.982 673.095 124.982C672.867 124.982 672.67 125.033 672.506 125.133C672.342 125.233 672.207 125.373 672.103 125.554C672.003 125.734 671.927 125.946 671.875 126.191C671.827 126.431 671.803 126.696 671.803 126.985V127.225C671.803 127.486 671.839 127.726 671.911 127.947C671.987 128.167 672.093 128.357 672.229 128.518C672.37 128.678 672.538 128.802 672.735 128.891C672.935 128.979 673.161 129.023 673.414 129.023C673.727 129.023 674.017 128.963 674.286 128.842C674.558 128.718 674.793 128.532 674.989 128.283L675.831 129.197C675.695 129.394 675.508 129.582 675.272 129.762C675.039 129.943 674.759 130.091 674.43 130.207C674.101 130.32 673.727 130.376 673.306 130.376ZM678.693 125.169V130.255H676.961V123.75H678.591L678.693 125.169ZM680.653 123.708L680.623 125.313C680.539 125.301 680.436 125.291 680.316 125.283C680.2 125.271 680.094 125.265 679.997 125.265C679.753 125.265 679.541 125.297 679.36 125.361C679.184 125.421 679.036 125.512 678.915 125.632C678.799 125.752 678.711 125.898 678.651 126.071C678.595 126.243 678.563 126.44 678.555 126.66L678.206 126.552C678.206 126.131 678.248 125.744 678.332 125.391C678.416 125.035 678.538 124.724 678.699 124.459C678.863 124.195 679.064 123.99 679.3 123.846C679.537 123.702 679.807 123.63 680.112 123.63C680.208 123.63 680.306 123.638 680.406 123.654C680.507 123.666 680.589 123.684 680.653 123.708Z" fill="#1C1B1F"/>
<path d="M621.855 57.2204H632.246C634.158 57.2204 635.497 57.0389 635.497 58.9662V55.4747C635.497 53.5473 634.158 51.9831 632.246 51.9831H618.391C614.927 51.9831 612.186 55.6929 613.195 60.712C613.195 60.712 616.297 77.0787 616.515 78.0965C617.092 80.7884 620.194 83.4071 623.514 83.4071H635.564C637.478 83.4071 635.497 80.0971 635.497 78.1698V74.6782C635.497 76.6056 634.158 78.1698 632.246 78.1698H625.318C623.406 78.1698 622.144 76.3507 621.855 74.6782C621.565 73.0058 619.111 61.8764 619.111 61.8764C618.535 58.5298 619.941 57.2204 621.855 57.2204ZM666.558 57.2204H656.167C654.255 57.2204 651.084 57.0389 651.084 58.9662V55.4747C651.084 53.5473 654.255 51.9831 656.167 51.9831H670.022C673.486 51.9831 676.229 55.6929 675.217 60.712C675.217 60.712 672.389 77.1555 672.15 78.1698C671.537 80.7884 668.614 83.4071 665.223 83.4071H652.847C650.935 83.4071 651.084 80.0971 651.084 78.1698V74.6782C651.084 76.6056 654.255 78.1698 656.167 78.1698H663.094C665.006 78.1698 666.271 76.3507 666.558 74.6782C666.846 73.0058 669.301 61.8764 669.301 61.8764C669.876 58.5298 668.472 57.2204 666.558 57.2204ZM649.061 86.8987C649.061 74.7515 644.369 86.8987 644.369 86.8987C644.369 86.8987 639.174 74.7515 639.174 86.8987C639.174 99.0458 633.474 104.356 633.474 104.356H654.762C654.762 104.356 649.061 99.0458 649.061 86.8987Z" fill="#82ACF5"/>
<path d="M659.743 106.102C659.743 108.03 660.136 109.594 658.224 109.594H630.514C628.6 109.594 628.569 108.03 628.569 106.102V104.356C628.569 102.429 630.585 100.865 632.39 100.865H656.492C658.297 100.865 659.743 102.429 659.743 104.356V106.102Z" fill="#828282"/>
<path d="M663.207 108.939C663.207 110.266 663.493 111.34 661.039 111.34H627.7C625.462 111.34 625.105 110.266 625.105 108.939V108.503C625.105 107.176 626.384 106.102 627.7 106.102H661.039C662.353 106.102 663.207 107.176 663.207 108.503V108.939Z" fill="#828282"/>
<path fill-rule="evenodd" clip-rule="evenodd" d="M644.369 91.7327C651.695 91.7327 663.42 71.8012 663.42 59.9735C663.42 50.0872 661.544 48.8913 656.492 48.8931L644.369 48.8948C642.504 48.8948 639.262 48.9088 636.312 48.9216C633.852 48.9322 631.596 48.942 630.514 48.942C627.05 48.942 625.318 50.9042 625.318 59.9735C625.318 71.8012 637.042 91.7327 644.369 91.7327Z" fill="#2D9CDB"/>
<circle cx="135.739" cy="94.9677" r="24.0864" fill="#696767"/>
<path d="M126.958 96.2223L131.976 101.24L144.521 88.6953" stroke="white" stroke-width="3.0108" stroke-linecap="round" stroke-linejoin="round"/>
<rect x="159.825" y="93.4624" width="55.6998" height="3.0108" fill="#696767"/>
<circle cx="239.612" cy="94.9677" r="24.0864" fill="#696767"/>
<path d="M230.831 96.2223L235.849 101.24L248.394 88.6953" stroke="white" stroke-width="3.0108" stroke-linecap="round" stroke-linejoin="round"/>
<rect x="263.697" y="93.4624" width="55.6998" height="3.0108" fill="#696767"/>
<circle cx="343.484" cy="94.9677" r="24.0864" fill="#696767"/>
<path d="M334.703 96.2223L339.721 101.24L352.266 88.6953" stroke="white" stroke-width="3.0108" stroke-linecap="round" stroke-linejoin="round"/>
<rect x="367.57" y="93.4624" width="55.6998" height="3.0108" fill="#696767"/>
<circle cx="447.356" cy="94.9677" r="22.581" stroke="#9CA3AF" stroke-width="3.0108"/>
<circle cx="447.356" cy="94.9679" r="7.527" fill="#D1D5DB"/>
<rect x="471.442" y="93.4624" width="55.6998" height="3.0108" fill="#696767"/>
<circle cx="551.229" cy="94.9677" r="22.581" stroke="#9CA3AF" stroke-width="3.0108"/>
<circle cx="551.229" cy="94.9679" r="7.527" fill="#D1D5DB"/>
<g clip-path="url(#clip0_326_3614)">
<path opacity="0.6" d="M452.131 48.3741C459.077 48.3741 464.707 47.7747 464.707 47.0352C464.707 46.2957 459.077 45.6963 452.131 45.6963C445.185 45.6963 439.555 46.2957 439.555 47.0352C439.555 47.7747 445.185 48.3741 452.131 48.3741Z" fill="#40A45D"/>
<path d="M459.286 16.9127C460.577 15.6662 460.577 13.6256 459.286 12.379L459.054 12.155C458.635 11.7504 457.956 11.7504 457.537 12.155L455.119 14.4899" fill="#A5BFC4"/>
<path d="M459.286 16.9127C460.577 15.6662 460.577 13.6256 459.286 12.379L459.054 12.155C458.635 11.7504 457.956 11.7504 457.537 12.155L455.119 14.4899" stroke="black" stroke-width="0.879528" stroke-miterlimit="10" stroke-linecap="round"/>
<path fill-rule="evenodd" clip-rule="evenodd" d="M437.599 37.818C434.701 37.818 432.33 35.4826 432.33 32.6289V24.4669C432.33 21.6127 434.701 19.2778 437.599 19.2778C440.497 19.2778 442.869 21.6127 442.869 24.4669V32.6289C442.869 35.4826 440.497 37.818 437.599 37.818Z" fill="#FCE47E"/>
<path d="M437.599 37.818C434.701 37.818 432.33 35.4826 432.33 32.6289V24.4669C432.33 21.6127 434.701 19.2778 437.599 19.2778C440.497 19.2778 442.869 21.6127 442.869 24.4669V32.6289C442.869 35.4826 440.497 37.818 437.599 37.818Z" stroke="black" stroke-width="0.879528"/>
<path fill-rule="evenodd" clip-rule="evenodd" d="M439.129 37.8179C436.266 37.8179 433.689 39.0248 431.893 40.9493C433.689 42.8735 436.266 44.0804 439.129 44.0804C441.993 44.0804 444.57 42.8735 446.366 40.9493C444.57 39.0248 441.993 37.8179 439.129 37.8179Z" fill="#A5BFC4"/>
<mask id="mask0_326_3614" style="mask-type:alpha" maskUnits="userSpaceOnUse" x="431" y="37" width="12" height="8">
<path fill-rule="evenodd" clip-rule="evenodd" d="M442.997 43.3301C441.829 43.8129 440.545 44.0798 439.199 44.0798C436.335 44.0798 433.758 42.8729 431.962 40.9488C433.758 39.0237 436.335 37.8174 439.199 37.8174C440.545 37.8174 441.829 38.0841 442.997 38.5669V43.3301Z" fill="white"/>
</mask>
<g mask="url(#mask0_326_3614)">
<path fill-rule="evenodd" clip-rule="evenodd" d="M429.171 45.7002H434.17V34.7388H429.171V45.7002Z" fill="#6C888C"/>
<path fill-rule="evenodd" clip-rule="evenodd" d="M435.905 45.5113H438.49V34.5503H435.905V45.5113Z" fill="#6C888C"/>
<path fill-rule="evenodd" clip-rule="evenodd" d="M440.412 45.5113H442.997V34.5503H440.412V45.5113Z" fill="#6C888C"/>
</g>
<path d="M447.081 40.9489L447.389 41.2666L447.726 40.9489L447.389 40.6313L447.081 40.9489ZM439.175 37.3779C436.633 37.3779 434.207 38.1585 432.163 39.6349L432.691 40.3441C434.582 38.9788 436.822 38.2575 439.175 38.2575V37.3779ZM432.163 39.6349C431.736 39.9439 431.49 40.4259 431.49 40.9489H432.383C432.383 40.7033 432.495 40.486 432.691 40.3441L432.163 39.6349ZM431.49 40.9489C431.49 41.4721 431.736 41.9534 432.163 42.2623L432.692 41.5533C432.496 41.4114 432.383 41.1942 432.383 40.9489H431.49ZM432.163 42.2623C434.207 43.7387 436.633 44.52 439.175 44.52V43.6404C436.822 43.6404 434.582 42.9187 432.692 41.5533L432.163 42.2623ZM439.175 44.52C442.236 44.52 445.188 43.3424 447.389 41.2666L446.772 40.6313C444.735 42.5514 442.004 43.6404 439.175 43.6404V44.52ZM447.389 40.6313C445.188 38.5554 442.236 37.3779 439.175 37.3779V38.2575C442.004 38.2575 444.735 39.3464 446.772 41.2666L447.389 40.6313Z" fill="black"/>
<path fill-rule="evenodd" clip-rule="evenodd" d="M462.747 25.816L465.422 25.772C466.973 25.772 468.23 27.0104 468.23 28.5376C468.23 30.0654 466.973 31.3033 465.422 31.3033H464.345H462.781" fill="#A5BFC4"/>
<path d="M462.747 25.816L465.422 25.772C466.973 25.772 468.23 27.0104 468.23 28.5376C468.23 30.0654 466.973 31.3033 465.422 31.3033H464.345H462.781" stroke="black" stroke-width="0.879528"/>
<path fill-rule="evenodd" clip-rule="evenodd" d="M463.147 31.3038H456.655L456.917 25.8166L463.147 25.772" fill="white"/>
<path fill-rule="evenodd" clip-rule="evenodd" d="M461.651 39.5527V42.5859C461.651 44.5703 460.018 46.1792 458.003 46.1792C455.988 46.1792 454.354 44.5703 454.354 42.5859V41.2089V42.2905" fill="#A5BFC4"/>
<path d="M461.651 39.2793V42.4695C461.651 44.5183 459.964 46.179 457.884 46.179C455.804 46.179 454.117 44.5183 454.117 42.4695V40.1571" stroke="black" stroke-width="0.879528" stroke-linecap="round" stroke-linejoin="round"/>
<path fill-rule="evenodd" clip-rule="evenodd" d="M455.904 35.314C455.264 35.314 454.642 35.2426 454.056 35.0951C453.301 34.9051 452.844 34.147 453.037 33.4028C453.23 32.6587 453.998 32.2099 454.756 32.3996C456.387 32.8107 458.684 32.2312 460.341 30.9914C461.493 30.1286 462.166 29.0779 462.187 28.108C462.217 26.6693 457.962 24.7072 454.123 23.8462C453.362 23.6756 452.886 22.9306 453.059 22.1817C453.231 21.4325 453.986 20.9619 454.748 21.1334C456.479 21.5202 465.107 23.6756 465.011 28.1665C464.972 30.0168 463.92 31.807 462.05 33.2067C460.239 34.5615 457.979 35.314 455.904 35.314Z" fill="#FCE47E"/>
<path d="M455.904 35.314C455.264 35.314 454.642 35.2426 454.056 35.0951C453.301 34.9051 452.844 34.147 453.037 33.4028C453.23 32.6587 453.998 32.2098 454.756 32.3996C456.387 32.8107 458.684 32.2312 460.341 30.9914C461.493 30.1286 462.166 29.0779 462.187 28.108C462.217 26.6693 457.962 24.7072 454.123 23.8462C453.362 23.6756 452.886 22.9306 453.059 22.1817C453.231 21.4325 453.986 20.9619 454.748 21.1334C456.479 21.5202 465.107 23.6756 465.011 28.1665C464.972 30.0168 463.92 31.807 462.05 33.2067C460.239 34.5615 457.979 35.314 455.904 35.314Z" stroke="black" stroke-width="0.879528"/>
<path fill-rule="evenodd" clip-rule="evenodd" d="M451.709 44.8708C457.921 44.8708 463.004 39.8652 463.004 33.747V23.2575C463.004 17.1393 457.921 12.1338 451.709 12.1338C445.496 12.1338 440.413 17.1393 440.413 23.2575V33.747C440.413 39.8652 445.496 44.8708 451.709 44.8708Z" fill="#A5BFC4"/>
<mask id="mask1_326_3614" style="mask-type:alpha" maskUnits="userSpaceOnUse" x="450" y="30" width="11" height="15">
<path fill-rule="evenodd" clip-rule="evenodd" d="M460.12 41.1515C458.048 43.431 455.041 44.871 451.708 44.871C451.391 44.871 451.077 44.858 450.767 44.8324V30.1528H460.12V41.1515Z" fill="white"/>
</mask>
<g mask="url(#mask1_326_3614)">
<path fill-rule="evenodd" clip-rule="evenodd" d="M455.444 49.3004C458.026 49.3004 460.12 47.2385 460.12 44.695V34.7582C460.12 32.2147 458.026 30.1528 455.444 30.1528C452.861 30.1528 450.767 32.2147 450.767 34.7582V44.695C450.767 47.2385 452.861 49.3004 455.444 49.3004Z" fill="white" fill-opacity="0.24"/>
</g>
<mask id="mask2_326_3614" style="mask-type:alpha" maskUnits="userSpaceOnUse" x="440" y="24" width="24" height="21">
<path fill-rule="evenodd" clip-rule="evenodd" d="M440.442 24.4561V33.7474C440.442 39.8656 445.525 44.8711 451.738 44.8711C457.951 44.8711 463.034 39.8656 463.034 33.7474V24.4561H440.442Z" fill="white"/>
</mask>
<g mask="url(#mask2_326_3614)">
<path fill-rule="evenodd" clip-rule="evenodd" d="M440.69 34.3066C440.69 40.1414 445.494 44.8715 451.419 44.8715H452.982C458.907 44.8715 463.711 40.1414 463.711 34.3066H440.69Z" fill="#0BAF17"/>
<path fill-rule="evenodd" clip-rule="evenodd" d="M463.004 34.7856H440.005V24.4561L453.143 27.2773L454.975 31.6429C455.104 31.9481 455.543 31.9481 455.671 31.6425L457.504 27.2574L463.004 24.4561V34.7856Z" fill="white"/>
<path fill-rule="evenodd" clip-rule="evenodd" d="M451.293 34.3697H448.947V26.064L451.293 26.5429V34.3697Z" fill="#0BAF17"/>
<path fill-rule="evenodd" clip-rule="evenodd" d="M461.158 34.2755H458.812V26.5599L461.158 25.3848V34.2755Z" fill="#0BAF17"/>
</g>
<path d="M440.517 34.6636H462.922" stroke="black" stroke-width="0.879528"/>
<path opacity="0.42" fill-rule="evenodd" clip-rule="evenodd" d="M453.42 19.242C454.093 20.4081 453.678 21.8899 452.495 22.5529C451.735 22.9786 449.746 22.9405 448.421 22.8584C447.799 22.82 447.422 22.1676 447.707 21.6219C448.314 20.4582 449.298 18.7561 450.058 18.331C451.242 17.668 452.747 18.076 453.42 19.242Z" fill="white"/>
<path opacity="0.42" fill-rule="evenodd" clip-rule="evenodd" d="M456.881 19.4005C457.487 18.1997 458.968 17.7101 460.187 18.3073C460.97 18.6902 462.048 20.3356 462.719 21.4647C463.034 21.9936 462.695 22.6659 462.077 22.7382C460.757 22.8922 458.775 23.0392 457.992 22.6557C456.772 22.0585 456.275 20.6013 456.881 19.4005Z" fill="white"/>
<path fill-rule="evenodd" clip-rule="evenodd" d="M460.726 20.3581C460.726 20.9543 460.234 21.4379 459.629 21.4375C459.023 21.4375 458.532 20.9538 458.532 20.3571C458.533 19.7605 459.024 19.2773 459.63 19.2773C460.235 19.2778 460.726 19.7613 460.726 20.3581Z" fill="black"/>
<path fill-rule="evenodd" clip-rule="evenodd" d="M453.431 20.3581C453.43 20.9543 452.939 21.4379 452.333 21.4375C451.728 21.4375 451.237 20.9538 451.237 20.3571C451.237 19.7605 451.729 19.2773 452.334 19.2773C452.94 19.2778 453.431 19.7613 453.431 20.3581Z" fill="black"/>
<path d="M451.709 44.8712C457.921 44.8712 463.004 39.8657 463.004 33.7474V23.258C463.004 17.1398 457.921 12.1343 451.709 12.1343C445.496 12.1343 440.413 17.1398 440.413 23.258V33.7474C440.413 39.8657 445.496 44.8712 451.709 44.8712Z" stroke="black" stroke-width="0.879528"/>
<path fill-rule="evenodd" clip-rule="evenodd" d="M441.912 35.3145C441.272 35.3145 440.65 35.243 440.064 35.0956C439.308 34.9056 438.852 34.1475 439.045 33.4033C439.238 32.6592 440.006 32.2103 440.764 32.4C442.395 32.8112 444.692 32.2317 446.348 30.9919C447.501 30.1291 448.174 29.0784 448.195 28.1085C448.225 26.6698 443.969 24.7077 440.13 23.8467C439.37 23.6761 438.894 22.931 439.066 22.1822C439.239 21.433 439.994 20.9624 440.756 21.1339C442.486 21.5206 451.114 23.6761 451.019 28.167C450.98 30.0173 449.928 31.8074 448.057 33.2072C446.247 34.5619 443.987 35.3145 441.912 35.3145Z" fill="#FCE47E" stroke="black" stroke-width="0.879528"/>
<path fill-rule="evenodd" clip-rule="evenodd" d="M455.358 10.5628C454.809 8.96464 453.275 7.81299 451.467 7.81299C449.659 7.81299 448.125 8.96464 447.577 10.5628H455.358Z" fill="#1DCC70" stroke="black" stroke-width="0.879528"/>
<path fill-rule="evenodd" clip-rule="evenodd" d="M450.304 10.2175C449.92 10.2175 449.606 9.90828 449.606 9.53035V7.55526C449.606 7.17692 449.92 6.86768 450.304 6.86768C450.688 6.86768 451.002 7.17692 451.002 7.55526V9.53035C451.002 9.90828 450.688 10.2175 450.304 10.2175Z" fill="#FD4242"/>
<path fill-rule="evenodd" clip-rule="evenodd" d="M456.454 11.2864C456.454 12.2062 455.69 12.9587 454.756 12.9587H448.128C447.194 12.9587 446.43 12.2062 446.43 11.2864C446.43 10.8829 446.762 10.5557 447.172 10.5557H455.712C456.122 10.5557 456.454 10.8829 456.454 11.2864Z" fill="#0BAF17"/>
<path d="M456.454 11.2864C456.454 12.2062 455.69 12.9587 454.756 12.9587H448.128C447.194 12.9587 446.43 12.2062 446.43 11.2864C446.43 10.8829 446.762 10.5557 447.172 10.5557H455.712C456.122 10.5557 456.454 10.8829 456.454 11.2864Z" stroke="black" stroke-width="0.879528"/>
<path fill-rule="evenodd" clip-rule="evenodd" d="M450.75 42.5864C450.75 44.5708 449.116 46.1797 447.101 46.1797C445.087 46.1797 443.453 44.5708 443.453 42.5864" fill="#0BAF17"/>
<path fill-rule="evenodd" clip-rule="evenodd" d="M450.75 40.6299V42.5865C450.75 44.5709 449.116 46.1793 447.101 46.1793C445.087 46.1793 443.453 44.5709 443.453 42.5865V40.8506" fill="#0BAF17"/>
<path fill-rule="evenodd" clip-rule="evenodd" d="M450.75 42.5864C450.75 44.5708 449.116 46.1797 447.101 46.1797C445.087 46.1797 443.453 44.5708 443.453 42.5864" fill="#A5BFC4"/>
<path d="M449.548 29.4098L448.851 28.7231L446.875 26.7773L442.45 30.2425L445.576 33.3211C446.673 34.4014 448.451 34.4014 449.548 33.3211C450.645 32.2412 450.645 30.4901 449.548 29.4098Z" fill="white"/>
<path fill-rule="evenodd" clip-rule="evenodd" d="M448.85 28.7236L449.547 29.4103C450.644 30.4906 450.644 32.2417 449.547 33.3216C448.451 34.4019 446.672 34.4019 445.576 33.3216L444.814 32.5724" fill="#A5BFC4"/>
<path fill-rule="evenodd" clip-rule="evenodd" d="M468.352 46.1799C467.573 46.1799 466.939 45.5558 466.939 44.7889V18.8675C466.939 18.1001 467.573 17.4766 468.352 17.4766C469.131 17.4766 469.764 18.1001 469.764 18.8675V20.8946C469.951 20.8065 470.158 20.7601 470.371 20.7601C470.748 20.7601 471.103 20.9048 471.37 21.1677C471.637 21.4306 471.784 21.7797 471.784 22.1511C471.784 22.5229 471.637 22.872 471.37 23.1349L469.764 24.7159V44.7889C469.764 45.5558 469.131 46.1799 468.352 46.1799Z" fill="#FCE47E"/>
<path d="M468.352 46.1799C467.573 46.1799 466.939 45.5558 466.939 44.7889V18.8675C466.939 18.1001 467.573 17.4766 468.352 17.4766C469.131 17.4766 469.764 18.1001 469.764 18.8675V20.8946C469.951 20.8065 470.158 20.7601 470.371 20.7601C470.748 20.7601 471.103 20.9048 471.37 21.1677C471.637 21.4306 471.784 21.7797 471.784 22.1511C471.784 22.5229 471.637 22.872 471.37 23.1349L469.764 24.7159V44.7889C469.764 45.5558 469.131 46.1799 468.352 46.1799Z" stroke="black" stroke-width="0.879528"/>
<path fill-rule="evenodd" clip-rule="evenodd" d="M454.158 22.1816C454.896 21.8464 455.753 21.8464 456.491 22.1816C456.945 22.3875 457.041 22.9823 456.688 23.3301L455.837 24.1674C455.554 24.4465 455.095 24.4465 454.812 24.1674L453.961 23.3301C453.608 22.9823 453.704 22.3875 454.158 22.1816Z" fill="black"/>
<path fill-rule="evenodd" clip-rule="evenodd" d="M433.483 34.1756C431.58 34.1756 430.038 32.6567 430.038 30.7827V28.3587C430.038 26.4851 431.58 24.9658 433.483 24.9658C435.386 24.9658 436.928 26.4851 436.928 28.3587V30.7827C436.928 32.6567 435.386 34.1756 433.483 34.1756Z" fill="#FCE47E"/>
<path d="M433.483 34.1756C431.58 34.1756 430.038 32.6567 430.038 30.7827V28.3587C430.038 26.4851 431.58 24.9658 433.483 24.9658C435.386 24.9658 436.928 26.4851 436.928 28.3587V30.7827C436.928 32.6567 435.386 34.1756 433.483 34.1756Z" stroke="black" stroke-width="0.879528"/>
<path fill-rule="evenodd" clip-rule="evenodd" d="M438.112 19.7307C438.112 21.621 436.556 23.1533 434.637 23.1533C432.717 23.1533 431.161 21.621 431.161 19.7307C431.161 17.8404 432.717 16.3081 434.637 16.3081C436.556 16.3081 438.112 17.8404 438.112 19.7307Z" fill="#FD4242"/>
<path d="M438.112 19.7307C438.112 21.621 436.556 23.1533 434.637 23.1533C432.717 23.1533 431.161 21.621 431.161 19.7307C431.161 17.8404 432.717 16.3081 434.637 16.3081C436.556 16.3081 438.112 17.8404 438.112 19.7307Z" stroke="black" stroke-width="0.879528"/>
<path d="M442.449 30.2425L445.575 33.3211C446.672 34.4014 448.45 34.4014 449.547 33.3211C450.644 32.2412 450.644 30.4901 449.547 29.4098L448.85 28.7231L446.874 26.7773" stroke="black" stroke-width="0.879528" stroke-linecap="round"/>
<path fill-rule="evenodd" clip-rule="evenodd" d="M453.88 30.6562C453.61 31.0395 453.54 31.601 453.847 31.9558C453.991 32.1216 454.227 32.2268 454.439 32.1628C454.678 32.0908 454.809 31.8397 454.884 31.6047C455.043 31.1074 455.073 30.5806 455.102 30.06C455.104 30.4041 455.106 30.7529 455.194 31.0859C455.282 31.4189 455.468 31.7401 455.765 31.9229C456.061 32.1056 456.477 32.1185 456.745 31.8967C456.988 31.6954 457.062 31.3499 457.019 31.0406C456.961 30.6311 456.613 30.2507 456.262 30.0242C455.391 29.463 454.434 29.8682 453.88 30.6562Z" stroke="black" stroke-width="0.879528" stroke-linecap="round" stroke-linejoin="round"/>
<path d="M452.644 29.5477C454.273 29.6432 455.93 29.6053 457.537 29.436" stroke="black" stroke-width="0.879528" stroke-linecap="round" stroke-linejoin="round"/>
<path d="M430.038 28.5381H437.065" stroke="black" stroke-width="0.879528"/>
<path d="M450.987 40.1577V42.4703C450.987 44.519 449.3 46.1798 447.22 46.1798C445.14 46.1798 443.453 44.519 443.453 42.4703V40.1577" stroke="black" stroke-width="0.879528" stroke-linecap="round" stroke-linejoin="round"/>
<path d="M443.484 42.2256H450.954" stroke="black" stroke-width="0.879528"/>
<path d="M455.324 23.4209V25.4214" stroke="black" stroke-width="0.879528" stroke-linecap="round"/>
<path d="M453.604 25.0708C454.554 26.0065 456.094 26.0065 457.044 25.0708" stroke="black" stroke-width="0.879528" stroke-linecap="round"/>
<path d="M443.774 16.9127C442.483 15.6662 442.483 13.6256 443.774 12.379L444.006 12.155C444.425 11.7504 445.104 11.7504 445.523 12.155L447.941 14.4899" fill="#A5BFC4"/>
<path d="M443.774 16.9127C442.483 15.6662 442.483 13.6256 443.774 12.379L444.006 12.155C444.425 11.7504 445.104 11.7504 445.523 12.155L447.941 14.4899" stroke="black" stroke-width="0.879528" stroke-miterlimit="10" stroke-linecap="round"/>
</g>
<defs>
<clipPath id="clip0_326_3614">
<rect width="44.656" height="49.2536" fill="white" transform="translate(429.145)"/>
</clipPath>
</defs>
</svg>
