<svg width="794" height="162" viewBox="0 0 794 162" fill="none" xmlns="http://www.w3.org/2000/svg">
<rect width="809.166" height="112.58" transform="translate(0 49.2534)" fill="#E5D1FF"/>
<path d="M634.026 127.712H635.823C635.787 128.301 635.625 128.824 635.336 129.281C635.052 129.738 634.653 130.095 634.14 130.351C633.631 130.608 633.018 130.736 632.3 130.736C631.739 130.736 631.236 130.64 630.791 130.447C630.346 130.251 629.965 129.97 629.649 129.606C629.336 129.241 629.098 128.8 628.933 128.283C628.769 127.766 628.687 127.187 628.687 126.545V125.938C628.687 125.297 628.771 124.718 628.939 124.2C629.112 123.679 629.356 123.237 629.673 122.872C629.993 122.507 630.376 122.226 630.821 122.03C631.266 121.834 631.763 121.735 632.312 121.735C633.042 121.735 633.657 121.868 634.158 122.132C634.663 122.397 635.054 122.762 635.33 123.226C635.611 123.691 635.779 124.221 635.835 124.814H634.032C634.012 124.461 633.942 124.162 633.821 123.918C633.701 123.669 633.519 123.483 633.274 123.359C633.034 123.23 632.713 123.166 632.312 123.166C632.012 123.166 631.749 123.222 631.525 123.335C631.3 123.447 631.112 123.617 630.959 123.846C630.807 124.074 630.693 124.363 630.617 124.712C630.545 125.056 630.508 125.461 630.508 125.926V126.545C630.508 126.998 630.543 127.397 630.611 127.742C630.679 128.082 630.783 128.371 630.923 128.608C631.068 128.84 631.252 129.016 631.476 129.137C631.705 129.253 631.98 129.311 632.3 129.311C632.677 129.311 632.988 129.251 633.232 129.131C633.477 129.01 633.663 128.832 633.791 128.596C633.924 128.359 634.002 128.064 634.026 127.712ZM638.727 121.381V130.616H636.99V121.381H638.727ZM643.153 130.736C642.648 130.736 642.195 130.656 641.794 130.495C641.393 130.331 641.052 130.105 640.772 129.816C640.495 129.527 640.283 129.193 640.134 128.812C639.986 128.427 639.912 128.018 639.912 127.585V127.345C639.912 126.852 639.982 126.401 640.122 125.992C640.263 125.583 640.463 125.229 640.724 124.928C640.988 124.627 641.309 124.397 641.686 124.237C642.062 124.072 642.487 123.99 642.96 123.99C643.421 123.99 643.83 124.066 644.187 124.219C644.543 124.371 644.842 124.587 645.083 124.868C645.327 125.148 645.511 125.485 645.636 125.878C645.76 126.267 645.822 126.7 645.822 127.177V127.898H640.651V126.744H644.121V126.611C644.121 126.371 644.076 126.157 643.988 125.968C643.904 125.776 643.776 125.623 643.603 125.511C643.431 125.399 643.211 125.343 642.942 125.343C642.714 125.343 642.517 125.393 642.353 125.493C642.189 125.593 642.054 125.734 641.95 125.914C641.85 126.094 641.774 126.307 641.722 126.551C641.674 126.792 641.649 127.056 641.649 127.345V127.585C641.649 127.846 641.686 128.087 641.758 128.307C641.834 128.527 641.94 128.718 642.076 128.878C642.217 129.038 642.385 129.163 642.581 129.251C642.782 129.339 643.008 129.383 643.261 129.383C643.573 129.383 643.864 129.323 644.133 129.203C644.405 129.079 644.64 128.892 644.836 128.644L645.678 129.558C645.541 129.754 645.355 129.942 645.119 130.123C644.886 130.303 644.606 130.451 644.277 130.568C643.948 130.68 643.573 130.736 643.153 130.736ZM650.319 129.149V126.251C650.319 126.042 650.285 125.864 650.217 125.716C650.149 125.563 650.043 125.445 649.898 125.361C649.758 125.277 649.576 125.235 649.351 125.235C649.159 125.235 648.993 125.269 648.852 125.337C648.712 125.401 648.604 125.495 648.528 125.619C648.451 125.74 648.413 125.882 648.413 126.046H646.682C646.682 125.77 646.746 125.507 646.874 125.259C647.003 125.01 647.189 124.792 647.433 124.603C647.678 124.411 647.968 124.261 648.305 124.152C648.646 124.044 649.027 123.99 649.448 123.99C649.953 123.99 650.402 124.074 650.794 124.243C651.187 124.411 651.496 124.663 651.72 125C651.949 125.337 652.063 125.758 652.063 126.263V129.046C652.063 129.403 652.085 129.696 652.129 129.924C652.173 130.149 652.237 130.345 652.321 130.514V130.616H650.572C650.488 130.439 650.424 130.219 650.379 129.954C650.339 129.686 650.319 129.417 650.319 129.149ZM650.548 126.654L650.56 127.634H649.592C649.363 127.634 649.165 127.66 648.997 127.712C648.828 127.764 648.69 127.838 648.582 127.934C648.474 128.026 648.393 128.135 648.341 128.259C648.293 128.383 648.269 128.519 648.269 128.668C648.269 128.816 648.303 128.95 648.371 129.071C648.439 129.187 648.538 129.279 648.666 129.347C648.794 129.411 648.945 129.443 649.117 129.443C649.377 129.443 649.604 129.391 649.796 129.287C649.989 129.183 650.137 129.055 650.241 128.902C650.349 128.75 650.406 128.606 650.41 128.469L650.866 129.203C650.802 129.367 650.714 129.537 650.602 129.714C650.494 129.89 650.355 130.057 650.187 130.213C650.019 130.365 649.816 130.491 649.58 130.592C649.343 130.688 649.063 130.736 648.738 130.736C648.325 130.736 647.95 130.654 647.614 130.489C647.281 130.321 647.017 130.091 646.82 129.798C646.628 129.501 646.532 129.165 646.532 128.788C646.532 128.447 646.596 128.145 646.724 127.88C646.852 127.616 647.041 127.393 647.289 127.213C647.542 127.028 647.856 126.89 648.233 126.798C648.61 126.702 649.047 126.654 649.544 126.654H650.548ZM655.093 125.499V130.616H653.362V124.11H654.985L655.093 125.499ZM654.841 127.135H654.372C654.372 126.654 654.434 126.221 654.558 125.836C654.682 125.447 654.857 125.116 655.081 124.844C655.306 124.567 655.572 124.357 655.881 124.213C656.193 124.064 656.542 123.99 656.927 123.99C657.232 123.99 657.51 124.034 657.763 124.122C658.015 124.211 658.232 124.351 658.412 124.543C658.596 124.736 658.737 124.99 658.833 125.307C658.933 125.623 658.983 126.01 658.983 126.467V130.616H657.24V126.461C657.24 126.173 657.2 125.948 657.119 125.788C657.039 125.627 656.921 125.515 656.765 125.451C656.612 125.383 656.424 125.349 656.199 125.349C655.967 125.349 655.765 125.395 655.592 125.487C655.424 125.579 655.284 125.708 655.171 125.872C655.063 126.032 654.981 126.221 654.925 126.437C654.869 126.654 654.841 126.886 654.841 127.135ZM668.549 127.712H670.347C670.311 128.301 670.148 128.824 669.86 129.281C669.575 129.738 669.176 130.095 668.663 130.351C668.154 130.608 667.541 130.736 666.823 130.736C666.262 130.736 665.759 130.64 665.314 130.447C664.869 130.251 664.489 129.97 664.172 129.606C663.859 129.241 663.621 128.8 663.456 128.283C663.292 127.766 663.21 127.187 663.21 126.545V125.938C663.21 125.297 663.294 124.718 663.462 124.2C663.635 123.679 663.879 123.237 664.196 122.872C664.517 122.507 664.899 122.226 665.344 122.03C665.789 121.834 666.286 121.735 666.835 121.735C667.565 121.735 668.18 121.868 668.681 122.132C669.186 122.397 669.577 122.762 669.854 123.226C670.134 123.691 670.303 124.221 670.359 124.814H668.555C668.535 124.461 668.465 124.162 668.345 123.918C668.224 123.669 668.042 123.483 667.797 123.359C667.557 123.23 667.236 123.166 666.835 123.166C666.535 123.166 666.272 123.222 666.048 123.335C665.823 123.447 665.635 123.617 665.483 123.846C665.33 124.074 665.216 124.363 665.14 124.712C665.068 125.056 665.032 125.461 665.032 125.926V126.545C665.032 126.998 665.066 127.397 665.134 127.742C665.202 128.082 665.306 128.371 665.447 128.608C665.591 128.84 665.775 129.016 666 129.137C666.228 129.253 666.503 129.311 666.823 129.311C667.2 129.311 667.511 129.251 667.755 129.131C668 129.01 668.186 128.832 668.314 128.596C668.447 128.359 668.525 128.064 668.549 127.712ZM671.146 127.429V127.303C671.146 126.826 671.214 126.387 671.351 125.986C671.487 125.581 671.685 125.231 671.946 124.934C672.206 124.637 672.527 124.407 672.908 124.243C673.289 124.074 673.726 123.99 674.219 123.99C674.712 123.99 675.151 124.074 675.535 124.243C675.92 124.407 676.243 124.637 676.503 124.934C676.768 125.231 676.968 125.581 677.105 125.986C677.241 126.387 677.309 126.826 677.309 127.303V127.429C677.309 127.902 677.241 128.341 677.105 128.746C676.968 129.147 676.768 129.497 676.503 129.798C676.243 130.095 675.922 130.325 675.541 130.489C675.161 130.654 674.724 130.736 674.231 130.736C673.738 130.736 673.299 130.654 672.914 130.489C672.533 130.325 672.21 130.095 671.946 129.798C671.685 129.497 671.487 129.147 671.351 128.746C671.214 128.341 671.146 127.902 671.146 127.429ZM672.878 127.303V127.429C672.878 127.702 672.902 127.956 672.95 128.193C672.998 128.429 673.074 128.638 673.178 128.818C673.287 128.994 673.427 129.133 673.599 129.233C673.772 129.333 673.982 129.383 674.231 129.383C674.471 129.383 674.678 129.333 674.85 129.233C675.022 129.133 675.161 128.994 675.265 128.818C675.369 128.638 675.445 128.429 675.493 128.193C675.545 127.956 675.571 127.702 675.571 127.429V127.303C675.571 127.038 675.545 126.79 675.493 126.557C675.445 126.321 675.367 126.112 675.259 125.932C675.155 125.748 675.016 125.603 674.844 125.499C674.672 125.395 674.463 125.343 674.219 125.343C673.974 125.343 673.766 125.395 673.593 125.499C673.425 125.603 673.287 125.748 673.178 125.932C673.074 126.112 672.998 126.321 672.95 126.557C672.902 126.79 672.878 127.038 672.878 127.303ZM682.215 129.197V121.381H683.959V130.616H682.389L682.215 129.197ZM678.103 127.441V127.315C678.103 126.818 678.159 126.367 678.271 125.962C678.383 125.553 678.548 125.203 678.764 124.91C678.98 124.617 679.247 124.391 679.564 124.231C679.88 124.07 680.241 123.99 680.646 123.99C681.027 123.99 681.359 124.07 681.644 124.231C681.933 124.391 682.177 124.619 682.377 124.916C682.582 125.209 682.746 125.555 682.87 125.956C682.995 126.353 683.085 126.788 683.141 127.261V127.537C683.085 127.99 682.995 128.411 682.87 128.8C682.746 129.189 682.582 129.529 682.377 129.822C682.177 130.111 681.933 130.335 681.644 130.495C681.355 130.656 681.019 130.736 680.634 130.736C680.229 130.736 679.868 130.654 679.552 130.489C679.239 130.325 678.974 130.095 678.758 129.798C678.546 129.501 678.383 129.153 678.271 128.752C678.159 128.351 678.103 127.914 678.103 127.441ZM679.834 127.315V127.441C679.834 127.71 679.854 127.96 679.894 128.193C679.938 128.425 680.009 128.632 680.105 128.812C680.205 128.988 680.333 129.127 680.49 129.227C680.65 129.323 680.844 129.371 681.073 129.371C681.369 129.371 681.614 129.305 681.806 129.173C681.999 129.036 682.145 128.85 682.245 128.614C682.349 128.377 682.41 128.105 682.426 127.796V127.008C682.414 126.756 682.377 126.529 682.317 126.329C682.261 126.124 682.177 125.95 682.065 125.806C681.957 125.662 681.82 125.549 681.656 125.469C681.496 125.389 681.305 125.349 681.085 125.349C680.86 125.349 680.668 125.401 680.508 125.505C680.347 125.605 680.217 125.744 680.117 125.92C680.021 126.096 679.948 126.305 679.9 126.545C679.856 126.782 679.834 127.038 679.834 127.315ZM688.306 130.736C687.801 130.736 687.348 130.656 686.947 130.495C686.546 130.331 686.205 130.105 685.925 129.816C685.648 129.527 685.436 129.193 685.287 128.812C685.139 128.427 685.065 128.018 685.065 127.585V127.345C685.065 126.852 685.135 126.401 685.275 125.992C685.416 125.583 685.616 125.229 685.877 124.928C686.141 124.627 686.462 124.397 686.839 124.237C687.215 124.072 687.64 123.99 688.113 123.99C688.574 123.99 688.983 124.066 689.34 124.219C689.697 124.371 689.995 124.587 690.236 124.868C690.48 125.148 690.665 125.485 690.789 125.878C690.913 126.267 690.975 126.7 690.975 127.177V127.898H685.805V126.744H689.274V126.611C689.274 126.371 689.23 126.157 689.141 125.968C689.057 125.776 688.929 125.623 688.757 125.511C688.584 125.399 688.364 125.343 688.095 125.343C687.867 125.343 687.67 125.393 687.506 125.493C687.342 125.593 687.207 125.734 687.103 125.914C687.003 126.094 686.927 126.307 686.875 126.551C686.827 126.792 686.803 127.056 686.803 127.345V127.585C686.803 127.846 686.839 128.087 686.911 128.307C686.987 128.527 687.093 128.718 687.229 128.878C687.37 129.038 687.538 129.163 687.735 129.251C687.935 129.339 688.161 129.383 688.414 129.383C688.727 129.383 689.017 129.323 689.286 129.203C689.558 129.079 689.793 128.892 689.989 128.644L690.831 129.558C690.695 129.754 690.508 129.942 690.272 130.123C690.039 130.303 689.759 130.451 689.43 130.568C689.101 130.68 688.727 130.736 688.306 130.736ZM693.693 125.529V130.616H691.961V124.11H693.591L693.693 125.529ZM695.653 124.068L695.623 125.674C695.539 125.662 695.436 125.651 695.316 125.643C695.2 125.631 695.094 125.625 694.997 125.625C694.753 125.625 694.541 125.657 694.36 125.722C694.184 125.782 694.036 125.872 693.915 125.992C693.799 126.112 693.711 126.259 693.651 126.431C693.595 126.603 693.563 126.8 693.555 127.02L693.206 126.912C693.206 126.491 693.248 126.104 693.332 125.752C693.416 125.395 693.538 125.084 693.699 124.82C693.863 124.555 694.064 124.351 694.3 124.207C694.537 124.062 694.807 123.99 695.112 123.99C695.208 123.99 695.306 123.998 695.406 124.014C695.507 124.026 695.589 124.044 695.653 124.068Z" fill="#1C1B1F"/>
<path d="M636.855 57.5808H647.246C649.158 57.5808 650.497 57.3992 650.497 59.3266V55.835C650.497 53.9077 649.158 52.3434 647.246 52.3434H633.391C629.927 52.3434 627.186 56.0532 628.195 61.0723C628.195 61.0723 631.297 77.439 631.515 78.4568C632.092 81.1488 635.194 83.7675 638.514 83.7675H650.564C652.478 83.7675 650.497 80.4575 650.497 78.5301V75.0386C650.497 76.9659 649.158 78.5301 647.246 78.5301H640.318C638.406 78.5301 637.144 76.711 636.855 75.0386C636.565 73.3661 634.111 62.2368 634.111 62.2368C633.535 58.8901 634.941 57.5808 636.855 57.5808ZM681.558 57.5808H671.167C669.255 57.5808 666.084 57.3992 666.084 59.3266V55.835C666.084 53.9077 669.255 52.3434 671.167 52.3434H685.022C688.486 52.3434 691.229 56.0532 690.217 61.0723C690.217 61.0723 687.389 77.5158 687.15 78.5301C686.537 81.1488 683.614 83.7675 680.223 83.7675H667.847C665.935 83.7675 666.084 80.4575 666.084 78.5301V75.0386C666.084 76.9659 669.255 78.5301 671.167 78.5301H678.094C680.006 78.5301 681.271 76.711 681.558 75.0386C681.846 73.3661 684.301 62.2368 684.301 62.2368C684.876 58.8901 683.472 57.5808 681.558 57.5808ZM664.061 87.259C664.061 75.1119 659.369 87.259 659.369 87.259C659.369 87.259 654.174 75.1119 654.174 87.259C654.174 99.4061 648.474 104.717 648.474 104.717H669.762C669.762 104.717 664.061 99.4061 664.061 87.259Z" fill="#82ACF5"/>
<path d="M674.743 106.463C674.743 108.39 675.136 109.954 673.224 109.954H645.514C643.6 109.954 643.569 108.39 643.569 106.463V104.717C643.569 102.789 645.585 101.225 647.39 101.225H671.492C673.297 101.225 674.743 102.789 674.743 104.717V106.463Z" fill="#828282"/>
<path d="M678.207 109.299C678.207 110.626 678.493 111.7 676.039 111.7H642.7C640.462 111.7 640.105 110.626 640.105 109.299V108.863C640.105 107.536 641.384 106.463 642.7 106.463H676.039C677.353 106.463 678.207 107.536 678.207 108.863V109.299Z" fill="#828282"/>
<path fill-rule="evenodd" clip-rule="evenodd" d="M659.369 92.0931C666.695 92.0931 678.42 72.1615 678.42 60.3339C678.42 50.4475 676.544 49.2517 671.492 49.2534L659.369 49.2552C657.504 49.2552 654.262 49.2692 651.312 49.2819C648.852 49.2926 646.596 49.3023 645.514 49.3023C642.05 49.3023 640.318 51.2646 640.318 60.3339C640.318 72.1615 652.042 92.0931 659.369 92.0931Z" fill="#2D9CDB"/>
<circle cx="150.738" cy="95.3281" r="24.0864" fill="#696767"/>
<path d="M141.957 96.5827L146.975 101.601L159.52 89.0557" stroke="white" stroke-width="3.0108" stroke-linecap="round" stroke-linejoin="round"/>
<rect x="174.825" y="93.8228" width="55.6998" height="3.0108" fill="#696767"/>
<circle cx="254.611" cy="95.3281" r="24.0864" fill="#696767"/>
<path d="M245.829 96.5827L250.847 101.601L263.392 89.0557" stroke="white" stroke-width="3.0108" stroke-linecap="round" stroke-linejoin="round"/>
<rect x="278.697" y="93.8228" width="55.6998" height="3.0108" fill="#696767"/>
<circle cx="358.483" cy="95.3281" r="22.581" stroke="#696767" stroke-width="3.0108"/>
<circle cx="358.484" cy="95.3283" r="7.527" fill="#696767"/>
<rect x="382.57" y="93.8228" width="55.6998" height="3.0108" fill="#D1D5DB"/>
<circle cx="462.356" cy="95.3281" r="22.581" stroke="#9CA3AF" stroke-width="3.0108"/>
<circle cx="462.356" cy="95.3283" r="7.527" fill="#D1D5DB"/>
<rect x="486.442" y="93.8228" width="55.6998" height="3.0108" fill="#D1D5DB"/>
<circle cx="566.228" cy="95.3281" r="22.581" stroke="#D1D5DB" stroke-width="3.0108"/>
<g clip-path="url(#clip0_326_3613)">
<path opacity="0.6" d="M357.208 48.3741C364.153 48.3741 369.784 47.7747 369.784 47.0352C369.784 46.2957 364.153 45.6963 357.208 45.6963C350.262 45.6963 344.631 46.2957 344.631 47.0352C344.631 47.7747 350.262 48.3741 357.208 48.3741Z" fill="#40A45D"/>
<path d="M364.362 16.9127C365.653 15.6662 365.653 13.6256 364.362 12.379L364.13 12.155C363.711 11.7504 363.032 11.7504 362.613 12.155L360.195 14.4899" fill="#A5BFC4"/>
<path d="M364.362 16.9127C365.653 15.6662 365.653 13.6256 364.362 12.379L364.13 12.155C363.711 11.7504 363.032 11.7504 362.613 12.155L360.195 14.4899" stroke="black" stroke-width="0.879528" stroke-miterlimit="10" stroke-linecap="round"/>
<path fill-rule="evenodd" clip-rule="evenodd" d="M342.675 37.818C339.777 37.818 337.406 35.4826 337.406 32.6289V24.4669C337.406 21.6127 339.777 19.2778 342.675 19.2778C345.573 19.2778 347.944 21.6127 347.944 24.4669V32.6289C347.944 35.4826 345.573 37.818 342.675 37.818Z" fill="#FCE47E"/>
<path d="M342.675 37.818C339.777 37.818 337.406 35.4826 337.406 32.6289V24.4669C337.406 21.6127 339.777 19.2778 342.675 19.2778C345.573 19.2778 347.944 21.6127 347.944 24.4669V32.6289C347.944 35.4826 345.573 37.818 342.675 37.818Z" stroke="black" stroke-width="0.879528"/>
<path fill-rule="evenodd" clip-rule="evenodd" d="M344.205 37.8179C341.342 37.8179 338.764 39.0248 336.968 40.9493C338.764 42.8735 341.342 44.0804 344.205 44.0804C347.068 44.0804 349.646 42.8735 351.442 40.9493C349.646 39.0248 347.068 37.8179 344.205 37.8179Z" fill="#A5BFC4"/>
<mask id="mask0_326_3613" style="mask-type:alpha" maskUnits="userSpaceOnUse" x="337" y="37" width="12" height="8">
<path fill-rule="evenodd" clip-rule="evenodd" d="M348.074 43.3301C346.905 43.8129 345.622 44.0798 344.275 44.0798C341.412 44.0798 338.835 42.8729 337.039 40.9488C338.835 39.0237 341.412 37.8174 344.275 37.8174C345.622 37.8174 346.905 38.0841 348.074 38.5669V43.3301Z" fill="white"/>
</mask>
<g mask="url(#mask0_326_3613)">
<path fill-rule="evenodd" clip-rule="evenodd" d="M334.248 45.7002H339.247V34.7388H334.248V45.7002Z" fill="#6C888C"/>
<path fill-rule="evenodd" clip-rule="evenodd" d="M340.981 45.5113H343.566V34.5503H340.981V45.5113Z" fill="#6C888C"/>
<path fill-rule="evenodd" clip-rule="evenodd" d="M345.489 45.5113H348.074V34.5503H345.489V45.5113Z" fill="#6C888C"/>
</g>
<path d="M352.156 40.9489L352.465 41.2666L352.802 40.9489L352.465 40.6313L352.156 40.9489ZM344.25 37.3779C341.709 37.3779 339.283 38.1585 337.239 39.6349L337.767 40.3441C339.657 38.9788 341.898 38.2575 344.25 38.2575V37.3779ZM337.239 39.6349C336.812 39.9439 336.566 40.4259 336.566 40.9489H337.459C337.459 40.7033 337.571 40.486 337.767 40.3441L337.239 39.6349ZM336.566 40.9489C336.566 41.4721 336.812 41.9534 337.239 42.2623L337.768 41.5533C337.571 41.4114 337.459 41.1942 337.459 40.9489H336.566ZM337.239 42.2623C339.283 43.7387 341.709 44.52 344.25 44.52V43.6404C341.898 43.6404 339.658 42.9187 337.768 41.5533L337.239 42.2623ZM344.25 44.52C347.311 44.52 350.264 43.3424 352.465 41.2666L351.847 40.6313C349.811 42.5514 347.08 43.6404 344.25 43.6404V44.52ZM352.465 40.6313C350.264 38.5554 347.311 37.3779 344.25 37.3779V38.2575C347.08 38.2575 349.811 39.3464 351.847 41.2666L352.465 40.6313Z" fill="black"/>
<path fill-rule="evenodd" clip-rule="evenodd" d="M367.823 25.816L370.498 25.772C372.049 25.772 373.306 27.0104 373.306 28.5376C373.306 30.0654 372.049 31.3033 370.498 31.3033H369.422H367.857" fill="#A5BFC4"/>
<path d="M367.823 25.816L370.498 25.772C372.049 25.772 373.306 27.0104 373.306 28.5376C373.306 30.0654 372.049 31.3033 370.498 31.3033H369.422H367.857" stroke="black" stroke-width="0.879528"/>
<path fill-rule="evenodd" clip-rule="evenodd" d="M368.223 31.3038H361.732L361.993 25.8166L368.223 25.772" fill="white"/>
<path fill-rule="evenodd" clip-rule="evenodd" d="M366.727 39.5527V42.5859C366.727 44.5703 365.094 46.1792 363.078 46.1792C361.064 46.1792 359.43 44.5703 359.43 42.5859V41.2089V42.2905" fill="#A5BFC4"/>
<path d="M366.727 39.2793V42.4695C366.727 44.5183 365.041 46.179 362.96 46.179C360.88 46.179 359.193 44.5183 359.193 42.4695V40.1571" stroke="black" stroke-width="0.879528" stroke-linecap="round" stroke-linejoin="round"/>
<path fill-rule="evenodd" clip-rule="evenodd" d="M360.981 35.314C360.341 35.314 359.719 35.2426 359.132 35.0951C358.377 34.9051 357.921 34.147 358.114 33.4028C358.307 32.6587 359.075 32.2099 359.833 32.3996C361.463 32.8107 363.76 32.2312 365.417 30.9914C366.57 30.1286 367.243 29.0779 367.264 28.108C367.294 26.6693 363.038 24.7072 359.199 23.8462C358.439 23.6756 357.963 22.9306 358.135 22.1817C358.308 21.4325 359.063 20.9619 359.825 21.1334C361.555 21.5202 370.183 23.6756 370.088 28.1665C370.049 30.0168 368.996 31.807 367.126 33.2067C365.316 34.5615 363.056 35.314 360.981 35.314Z" fill="#FCE47E"/>
<path d="M360.981 35.314C360.341 35.314 359.719 35.2426 359.132 35.0951C358.377 34.9051 357.921 34.147 358.114 33.4028C358.307 32.6587 359.075 32.2098 359.833 32.3996C361.463 32.8107 363.76 32.2312 365.417 30.9914C366.57 30.1286 367.243 29.0779 367.264 28.108C367.294 26.6693 363.038 24.7072 359.199 23.8462C358.439 23.6756 357.963 22.9306 358.135 22.1817C358.308 21.4325 359.063 20.9619 359.825 21.1334C361.555 21.5202 370.183 23.6756 370.088 28.1665C370.049 30.0168 368.996 31.807 367.126 33.2067C365.316 34.5615 363.056 35.314 360.981 35.314Z" stroke="black" stroke-width="0.879528"/>
<path fill-rule="evenodd" clip-rule="evenodd" d="M356.785 44.8708C362.997 44.8708 368.081 39.8652 368.081 33.747V23.2575C368.081 17.1393 362.997 12.1338 356.785 12.1338C350.572 12.1338 345.489 17.1393 345.489 23.2575V33.747C345.489 39.8652 350.572 44.8708 356.785 44.8708Z" fill="#A5BFC4"/>
<mask id="mask1_326_3613" style="mask-type:alpha" maskUnits="userSpaceOnUse" x="355" y="30" width="11" height="15">
<path fill-rule="evenodd" clip-rule="evenodd" d="M365.196 41.1515C363.124 43.431 360.117 44.871 356.784 44.871C356.467 44.871 356.153 44.858 355.843 44.8324V30.1528H365.196V41.1515Z" fill="white"/>
</mask>
<g mask="url(#mask1_326_3613)">
<path fill-rule="evenodd" clip-rule="evenodd" d="M360.52 49.3004C363.102 49.3004 365.196 47.2385 365.196 44.695V34.7582C365.196 32.2147 363.102 30.1528 360.52 30.1528C357.937 30.1528 355.843 32.2147 355.843 34.7582V44.695C355.843 47.2385 357.937 49.3004 360.52 49.3004Z" fill="white" fill-opacity="0.24"/>
</g>
<mask id="mask2_326_3613" style="mask-type:alpha" maskUnits="userSpaceOnUse" x="345" y="24" width="24" height="21">
<path fill-rule="evenodd" clip-rule="evenodd" d="M345.519 24.4561V33.7474C345.519 39.8656 350.602 44.8711 356.815 44.8711C363.027 44.8711 368.11 39.8656 368.11 33.7474V24.4561H345.519Z" fill="white"/>
</mask>
<g mask="url(#mask2_326_3613)">
<path fill-rule="evenodd" clip-rule="evenodd" d="M345.766 34.3066C345.766 40.1414 350.569 44.8715 356.494 44.8715H358.058C363.983 44.8715 368.786 40.1414 368.786 34.3066H345.766Z" fill="#0BAF17"/>
<path fill-rule="evenodd" clip-rule="evenodd" d="M368.08 34.7856H345.081V24.4561L358.219 27.2773L360.051 31.6429C360.18 31.9481 360.619 31.9481 360.747 31.6425L362.581 27.2574L368.08 24.4561V34.7856Z" fill="white"/>
<path fill-rule="evenodd" clip-rule="evenodd" d="M356.368 34.3697H354.023V26.064L356.368 26.5429V34.3697Z" fill="#0BAF17"/>
<path fill-rule="evenodd" clip-rule="evenodd" d="M366.234 34.2755H363.888V26.5599L366.234 25.3848V34.2755Z" fill="#0BAF17"/>
</g>
<path d="M345.592 34.6636H367.997" stroke="black" stroke-width="0.879528"/>
<path opacity="0.42" fill-rule="evenodd" clip-rule="evenodd" d="M358.496 19.242C359.169 20.4081 358.755 21.8899 357.571 22.5529C356.811 22.9786 354.822 22.9405 353.497 22.8584C352.875 22.82 352.499 22.1676 352.783 21.6219C353.39 20.4582 354.374 18.7561 355.134 18.331C356.318 17.668 357.823 18.076 358.496 19.242Z" fill="white"/>
<path opacity="0.42" fill-rule="evenodd" clip-rule="evenodd" d="M361.958 19.4005C362.564 18.1997 364.044 17.7101 365.264 18.3073C366.047 18.6902 367.125 20.3356 367.796 21.4647C368.111 21.9936 367.772 22.6659 367.154 22.7382C365.834 22.8922 363.851 23.0392 363.068 22.6557C361.849 22.0585 361.352 20.6013 361.958 19.4005Z" fill="white"/>
<path fill-rule="evenodd" clip-rule="evenodd" d="M365.801 20.3581C365.801 20.9543 365.31 21.4379 364.704 21.4375C364.099 21.4375 363.608 20.9538 363.608 20.3571C363.608 19.7605 364.099 19.2773 364.705 19.2773C365.311 19.2778 365.802 19.7613 365.801 20.3581Z" fill="black"/>
<path fill-rule="evenodd" clip-rule="evenodd" d="M358.507 20.3581C358.507 20.9543 358.015 21.4379 357.41 21.4375C356.804 21.4375 356.313 20.9538 356.313 20.3571C356.313 19.7605 356.805 19.2773 357.41 19.2773C358.016 19.2778 358.507 19.7613 358.507 20.3581Z" fill="black"/>
<path d="M356.785 44.8712C362.997 44.8712 368.081 39.8657 368.081 33.7474V23.258C368.081 17.1398 362.997 12.1343 356.785 12.1343C350.572 12.1343 345.489 17.1398 345.489 23.258V33.7474C345.489 39.8657 350.572 44.8712 356.785 44.8712Z" stroke="black" stroke-width="0.879528"/>
<path fill-rule="evenodd" clip-rule="evenodd" d="M346.988 35.3145C346.348 35.3145 345.725 35.243 345.139 35.0956C344.384 34.9056 343.928 34.1475 344.121 33.4033C344.313 32.6592 345.082 32.2103 345.839 32.4C347.47 32.8112 349.767 32.2317 351.424 30.9919C352.577 30.1291 353.25 29.0784 353.271 28.1085C353.301 26.6698 349.045 24.7077 345.206 23.8467C344.446 23.6761 343.969 22.931 344.142 22.1822C344.315 21.433 345.07 20.9624 345.832 21.1339C347.562 21.5206 356.19 23.6761 356.095 28.167C356.055 30.0173 355.003 31.8074 353.133 33.2072C351.322 34.5619 349.063 35.3145 346.988 35.3145Z" fill="#FCE47E" stroke="black" stroke-width="0.879528"/>
<path fill-rule="evenodd" clip-rule="evenodd" d="M360.434 10.5628C359.885 8.96464 358.352 7.81299 356.543 7.81299C354.735 7.81299 353.201 8.96464 352.653 10.5628H360.434Z" fill="#1DCC70" stroke="black" stroke-width="0.879528"/>
<path fill-rule="evenodd" clip-rule="evenodd" d="M355.38 10.2175C354.996 10.2175 354.682 9.90828 354.682 9.53035V7.55526C354.682 7.17692 354.996 6.86768 355.38 6.86768C355.764 6.86768 356.078 7.17692 356.078 7.55526V9.53035C356.078 9.90828 355.764 10.2175 355.38 10.2175Z" fill="#FD4242"/>
<path fill-rule="evenodd" clip-rule="evenodd" d="M361.53 11.2864C361.53 12.2062 360.766 12.9587 359.832 12.9587H353.204C352.27 12.9587 351.506 12.2062 351.506 11.2864C351.506 10.8829 351.838 10.5557 352.248 10.5557H360.788C361.198 10.5557 361.53 10.8829 361.53 11.2864Z" fill="#0BAF17"/>
<path d="M361.53 11.2864C361.53 12.2062 360.766 12.9587 359.832 12.9587H353.204C352.27 12.9587 351.506 12.2062 351.506 11.2864C351.506 10.8829 351.838 10.5557 352.248 10.5557H360.788C361.198 10.5557 361.53 10.8829 361.53 11.2864Z" stroke="black" stroke-width="0.879528"/>
<path fill-rule="evenodd" clip-rule="evenodd" d="M355.826 42.5864C355.826 44.5708 354.192 46.1797 352.177 46.1797C350.163 46.1797 348.529 44.5708 348.529 42.5864" fill="#0BAF17"/>
<path fill-rule="evenodd" clip-rule="evenodd" d="M355.826 40.6299V42.5865C355.826 44.5709 354.192 46.1793 352.177 46.1793C350.163 46.1793 348.529 44.5709 348.529 42.5865V40.8506" fill="#0BAF17"/>
<path fill-rule="evenodd" clip-rule="evenodd" d="M355.826 42.5864C355.826 44.5708 354.192 46.1797 352.177 46.1797C350.163 46.1797 348.529 44.5708 348.529 42.5864" fill="#A5BFC4"/>
<path d="M354.624 29.4098L353.927 28.7231L351.951 26.7773L347.526 30.2425L350.653 33.3211C351.749 34.4014 353.527 34.4014 354.624 33.3211C355.721 32.2412 355.721 30.4901 354.624 29.4098Z" fill="white"/>
<path fill-rule="evenodd" clip-rule="evenodd" d="M353.926 28.7236L354.623 29.4103C355.721 30.4906 355.721 32.2417 354.623 33.3216C353.527 34.4019 351.748 34.4019 350.652 33.3216L349.891 32.5724" fill="#A5BFC4"/>
<path fill-rule="evenodd" clip-rule="evenodd" d="M373.428 46.1799C372.649 46.1799 372.016 45.5558 372.016 44.7889V18.8675C372.016 18.1001 372.649 17.4766 373.428 17.4766C374.207 17.4766 374.84 18.1001 374.84 18.8675V20.8946C375.027 20.8065 375.234 20.7601 375.447 20.7601C375.824 20.7601 376.179 20.9048 376.446 21.1677C376.713 21.4306 376.86 21.7797 376.86 22.1511C376.86 22.5229 376.713 22.872 376.446 23.1349L374.84 24.7159V44.7889C374.84 45.5558 374.207 46.1799 373.428 46.1799Z" fill="#FCE47E"/>
<path d="M373.428 46.1799C372.649 46.1799 372.016 45.5558 372.016 44.7889V18.8675C372.016 18.1001 372.649 17.4766 373.428 17.4766C374.207 17.4766 374.84 18.1001 374.84 18.8675V20.8946C375.027 20.8065 375.234 20.7601 375.447 20.7601C375.824 20.7601 376.179 20.9048 376.446 21.1677C376.713 21.4306 376.86 21.7797 376.86 22.1511C376.86 22.5229 376.713 22.872 376.446 23.1349L374.84 24.7159V44.7889C374.84 45.5558 374.207 46.1799 373.428 46.1799Z" stroke="black" stroke-width="0.879528"/>
<path fill-rule="evenodd" clip-rule="evenodd" d="M359.234 22.1816C359.972 21.8464 360.829 21.8464 361.567 22.1816C362.021 22.3875 362.117 22.9823 361.764 23.3301L360.913 24.1674C360.63 24.4465 360.171 24.4465 359.888 24.1674L359.037 23.3301C358.684 22.9823 358.781 22.3875 359.234 22.1816Z" fill="black"/>
<path fill-rule="evenodd" clip-rule="evenodd" d="M338.559 34.1756C336.656 34.1756 335.114 32.6567 335.114 30.7827V28.3587C335.114 26.4851 336.656 24.9658 338.559 24.9658C340.462 24.9658 342.004 26.4851 342.004 28.3587V30.7827C342.004 32.6567 340.462 34.1756 338.559 34.1756Z" fill="#FCE47E"/>
<path d="M338.559 34.1756C336.656 34.1756 335.114 32.6567 335.114 30.7827V28.3587C335.114 26.4851 336.656 24.9658 338.559 24.9658C340.462 24.9658 342.004 26.4851 342.004 28.3587V30.7827C342.004 32.6567 340.462 34.1756 338.559 34.1756Z" stroke="black" stroke-width="0.879528"/>
<path fill-rule="evenodd" clip-rule="evenodd" d="M343.188 19.7307C343.188 21.621 341.632 23.1533 339.713 23.1533C337.793 23.1533 336.237 21.621 336.237 19.7307C336.237 17.8404 337.793 16.3081 339.713 16.3081C341.632 16.3081 343.188 17.8404 343.188 19.7307Z" fill="#FD4242"/>
<path d="M343.188 19.7307C343.188 21.621 341.632 23.1533 339.713 23.1533C337.793 23.1533 336.237 21.621 336.237 19.7307C336.237 17.8404 337.793 16.3081 339.713 16.3081C341.632 16.3081 343.188 17.8404 343.188 19.7307Z" stroke="black" stroke-width="0.879528"/>
<path d="M347.525 30.2425L350.652 33.3211C351.748 34.4014 353.526 34.4014 354.623 33.3211C355.72 32.2412 355.72 30.4901 354.623 29.4098L353.926 28.7231L351.95 26.7773" stroke="black" stroke-width="0.879528" stroke-linecap="round"/>
<path fill-rule="evenodd" clip-rule="evenodd" d="M358.956 30.6562C358.686 31.0395 358.616 31.601 358.923 31.9558C359.067 32.1216 359.303 32.2268 359.515 32.1628C359.754 32.0908 359.885 31.8397 359.96 31.6047C360.119 31.1074 360.149 30.5806 360.178 30.06C360.18 30.4041 360.182 30.7529 360.27 31.0859C360.359 31.4189 360.544 31.7401 360.841 31.9229C361.137 32.1056 361.553 32.1185 361.821 31.8967C362.064 31.6954 362.138 31.3499 362.095 31.0406C362.037 30.6311 361.69 30.2507 361.338 30.0242C360.468 29.463 359.51 29.8682 358.956 30.6562Z" stroke="black" stroke-width="0.879528" stroke-linecap="round" stroke-linejoin="round"/>
<path d="M357.72 29.5477C359.349 29.6432 361.007 29.6053 362.614 29.436" stroke="black" stroke-width="0.879528" stroke-linecap="round" stroke-linejoin="round"/>
<path d="M335.114 28.5381H342.141" stroke="black" stroke-width="0.879528"/>
<path d="M356.062 40.1577V42.4703C356.062 44.519 354.376 46.1798 352.296 46.1798C350.215 46.1798 348.529 44.519 348.529 42.4703V40.1577" stroke="black" stroke-width="0.879528" stroke-linecap="round" stroke-linejoin="round"/>
<path d="M348.561 42.2256H356.03" stroke="black" stroke-width="0.879528"/>
<path d="M360.4 23.4209V25.4214" stroke="black" stroke-width="0.879528" stroke-linecap="round"/>
<path d="M358.68 25.0708C359.63 26.0065 361.171 26.0065 362.121 25.0708" stroke="black" stroke-width="0.879528" stroke-linecap="round"/>
<path d="M348.851 16.9127C347.56 15.6662 347.56 13.6256 348.851 12.379L349.083 12.155C349.502 11.7504 350.181 11.7504 350.599 12.155L353.018 14.4899" fill="#A5BFC4"/>
<path d="M348.851 16.9127C347.56 15.6662 347.56 13.6256 348.851 12.379L349.083 12.155C349.502 11.7504 350.181 11.7504 350.599 12.155L353.018 14.4899" stroke="black" stroke-width="0.879528" stroke-miterlimit="10" stroke-linecap="round"/>
</g>
<defs>
<clipPath id="clip0_326_3613">
<rect width="44.656" height="49.2536" fill="white" transform="translate(334.221)"/>
</clipPath>
</defs>
</svg>
