<svg width="570" height="127" viewBox="0 0 570 127" fill="none" xmlns="http://www.w3.org/2000/svg">
<circle cx="335.704" cy="87.9677" r="22.581" stroke="#9CA3AF" stroke-width="3.0108"/>
<path d="M507.373 120.351H509.171C509.135 120.941 508.973 121.464 508.684 121.921C508.4 122.378 508.001 122.734 507.488 122.991C506.979 123.247 506.365 123.376 505.648 123.376C505.087 123.376 504.584 123.279 504.139 123.087C503.694 122.891 503.313 122.61 502.996 122.245C502.684 121.881 502.445 121.44 502.281 120.923C502.117 120.405 502.034 119.826 502.034 119.185V118.578C502.034 117.936 502.119 117.357 502.287 116.84C502.459 116.319 502.704 115.876 503.02 115.511C503.341 115.147 503.724 114.866 504.169 114.67C504.614 114.473 505.111 114.375 505.66 114.375C506.389 114.375 507.005 114.507 507.506 114.772C508.011 115.036 508.402 115.401 508.678 115.866C508.959 116.331 509.127 116.86 509.183 117.453H507.379C507.359 117.101 507.289 116.802 507.169 116.558C507.049 116.309 506.866 116.123 506.622 115.998C506.381 115.87 506.061 115.806 505.66 115.806C505.359 115.806 505.097 115.862 504.872 115.974C504.648 116.087 504.459 116.257 504.307 116.485C504.155 116.714 504.041 117.002 503.964 117.351C503.892 117.696 503.856 118.101 503.856 118.566V119.185C503.856 119.638 503.89 120.037 503.958 120.381C504.026 120.722 504.131 121.011 504.271 121.247C504.415 121.48 504.6 121.656 504.824 121.776C505.053 121.893 505.327 121.951 505.648 121.951C506.025 121.951 506.335 121.891 506.58 121.77C506.824 121.65 507.011 121.472 507.139 121.235C507.271 120.999 507.349 120.704 507.373 120.351ZM512.075 114.02V123.255H510.338V114.02H512.075ZM516.5 123.376C515.995 123.376 515.542 123.295 515.141 123.135C514.741 122.971 514.4 122.744 514.119 122.456C513.843 122.167 513.63 121.832 513.482 121.452C513.334 121.067 513.26 120.658 513.26 120.225V119.985C513.26 119.492 513.33 119.041 513.47 118.632C513.61 118.223 513.811 117.868 514.071 117.568C514.336 117.267 514.656 117.037 515.033 116.876C515.41 116.712 515.835 116.63 516.308 116.63C516.769 116.63 517.178 116.706 517.534 116.858C517.891 117.01 518.19 117.227 518.43 117.508C518.675 117.788 518.859 118.125 518.983 118.518C519.108 118.906 519.17 119.339 519.17 119.816V120.538H513.999V119.383H517.468V119.251C517.468 119.011 517.424 118.796 517.336 118.608C517.252 118.415 517.124 118.263 516.951 118.151C516.779 118.039 516.558 117.982 516.29 117.982C516.061 117.982 515.865 118.033 515.701 118.133C515.536 118.233 515.402 118.373 515.298 118.554C515.198 118.734 515.121 118.946 515.069 119.191C515.021 119.431 514.997 119.696 514.997 119.985V120.225C514.997 120.486 515.033 120.726 515.105 120.947C515.181 121.167 515.288 121.357 515.424 121.518C515.564 121.678 515.733 121.802 515.929 121.891C516.129 121.979 516.356 122.023 516.608 122.023C516.921 122.023 517.212 121.963 517.48 121.842C517.753 121.718 517.987 121.532 518.184 121.283L519.025 122.197C518.889 122.394 518.703 122.582 518.466 122.762C518.234 122.943 517.953 123.091 517.625 123.207C517.296 123.32 516.921 123.376 516.5 123.376ZM523.667 121.788V118.89C523.667 118.682 523.633 118.504 523.565 118.355C523.497 118.203 523.39 118.085 523.246 118.001C523.106 117.916 522.923 117.874 522.699 117.874C522.507 117.874 522.34 117.908 522.2 117.976C522.06 118.041 521.951 118.135 521.875 118.259C521.799 118.379 521.761 118.522 521.761 118.686H520.029C520.029 118.409 520.094 118.147 520.222 117.898C520.35 117.65 520.537 117.431 520.781 117.243C521.026 117.051 521.316 116.9 521.653 116.792C521.994 116.684 522.374 116.63 522.795 116.63C523.3 116.63 523.749 116.714 524.142 116.882C524.535 117.051 524.843 117.303 525.068 117.64C525.296 117.976 525.411 118.397 525.411 118.902V121.686C525.411 122.043 525.433 122.335 525.477 122.564C525.521 122.788 525.585 122.985 525.669 123.153V123.255H523.92C523.835 123.079 523.771 122.859 523.727 122.594C523.687 122.325 523.667 122.057 523.667 121.788ZM523.895 119.293L523.907 120.273H522.939C522.711 120.273 522.513 120.299 522.344 120.351C522.176 120.403 522.038 120.478 521.929 120.574C521.821 120.666 521.741 120.774 521.689 120.899C521.641 121.023 521.617 121.159 521.617 121.307C521.617 121.456 521.651 121.59 521.719 121.71C521.787 121.826 521.885 121.919 522.014 121.987C522.142 122.051 522.292 122.083 522.465 122.083C522.725 122.083 522.952 122.031 523.144 121.927C523.336 121.822 523.485 121.694 523.589 121.542C523.697 121.39 523.753 121.245 523.757 121.109L524.214 121.842C524.15 122.007 524.062 122.177 523.95 122.354C523.841 122.53 523.703 122.696 523.535 122.853C523.366 123.005 523.164 123.131 522.927 123.231C522.691 123.328 522.41 123.376 522.086 123.376C521.673 123.376 521.298 123.293 520.961 123.129C520.629 122.961 520.364 122.73 520.168 122.438C519.975 122.141 519.879 121.804 519.879 121.428C519.879 121.087 519.943 120.784 520.072 120.52C520.2 120.255 520.388 120.033 520.637 119.852C520.889 119.668 521.204 119.53 521.581 119.437C521.957 119.341 522.394 119.293 522.891 119.293H523.895ZM528.441 118.139V123.255H526.709V116.75H528.333L528.441 118.139ZM528.188 119.774H527.719C527.719 119.293 527.781 118.86 527.906 118.476C528.03 118.087 528.204 117.756 528.429 117.483C528.653 117.207 528.92 116.996 529.228 116.852C529.541 116.704 529.89 116.63 530.275 116.63C530.579 116.63 530.858 116.674 531.11 116.762C531.363 116.85 531.579 116.99 531.76 117.183C531.944 117.375 532.084 117.63 532.181 117.946C532.281 118.263 532.331 118.65 532.331 119.107V123.255H530.587V119.101C530.587 118.812 530.547 118.588 530.467 118.427C530.387 118.267 530.269 118.155 530.112 118.091C529.96 118.023 529.772 117.989 529.547 117.989C529.315 117.989 529.112 118.035 528.94 118.127C528.772 118.219 528.631 118.347 528.519 118.512C528.411 118.672 528.329 118.86 528.272 119.077C528.216 119.293 528.188 119.526 528.188 119.774ZM541.897 120.351H543.694C543.658 120.941 543.496 121.464 543.207 121.921C542.923 122.378 542.524 122.734 542.011 122.991C541.502 123.247 540.889 123.376 540.171 123.376C539.61 123.376 539.107 123.279 538.662 123.087C538.217 122.891 537.836 122.61 537.52 122.245C537.207 121.881 536.968 121.44 536.804 120.923C536.64 120.405 536.558 119.826 536.558 119.185V118.578C536.558 117.936 536.642 117.357 536.81 116.84C536.982 116.319 537.227 115.876 537.544 115.511C537.864 115.147 538.247 114.866 538.692 114.67C539.137 114.473 539.634 114.375 540.183 114.375C540.913 114.375 541.528 114.507 542.029 114.772C542.534 115.036 542.925 115.401 543.201 115.866C543.482 116.331 543.65 116.86 543.706 117.453H541.903C541.883 117.101 541.812 116.802 541.692 116.558C541.572 116.309 541.39 116.123 541.145 115.998C540.905 115.87 540.584 115.806 540.183 115.806C539.882 115.806 539.62 115.862 539.395 115.974C539.171 116.087 538.983 116.257 538.83 116.485C538.678 116.714 538.564 117.002 538.488 117.351C538.415 117.696 538.379 118.101 538.379 118.566V119.185C538.379 119.638 538.413 120.037 538.482 120.381C538.55 120.722 538.654 121.011 538.794 121.247C538.938 121.48 539.123 121.656 539.347 121.776C539.576 121.893 539.85 121.951 540.171 121.951C540.548 121.951 540.858 121.891 541.103 121.77C541.347 121.65 541.534 121.472 541.662 121.235C541.794 120.999 541.873 120.704 541.897 120.351ZM544.494 120.069V119.943C544.494 119.466 544.562 119.027 544.698 118.626C544.835 118.221 545.033 117.87 545.294 117.574C545.554 117.277 545.875 117.047 546.256 116.882C546.636 116.714 547.073 116.63 547.566 116.63C548.059 116.63 548.498 116.714 548.883 116.882C549.268 117.047 549.59 117.277 549.851 117.574C550.116 117.87 550.316 118.221 550.452 118.626C550.589 119.027 550.657 119.466 550.657 119.943V120.069C550.657 120.542 550.589 120.981 550.452 121.386C550.316 121.786 550.116 122.137 549.851 122.438C549.59 122.734 549.27 122.965 548.889 123.129C548.508 123.293 548.071 123.376 547.578 123.376C547.085 123.376 546.646 123.293 546.262 123.129C545.881 122.965 545.558 122.734 545.294 122.438C545.033 122.137 544.835 121.786 544.698 121.386C544.562 120.981 544.494 120.542 544.494 120.069ZM546.226 119.943V120.069C546.226 120.341 546.25 120.596 546.298 120.832C546.346 121.069 546.422 121.277 546.526 121.458C546.634 121.634 546.775 121.772 546.947 121.873C547.119 121.973 547.33 122.023 547.578 122.023C547.819 122.023 548.025 121.973 548.198 121.873C548.37 121.772 548.508 121.634 548.612 121.458C548.717 121.277 548.793 121.069 548.841 120.832C548.893 120.596 548.919 120.341 548.919 120.069V119.943C548.919 119.678 548.893 119.429 548.841 119.197C548.793 118.961 548.715 118.752 548.606 118.572C548.502 118.387 548.364 118.243 548.192 118.139C548.019 118.035 547.811 117.982 547.566 117.982C547.322 117.982 547.113 118.035 546.941 118.139C546.773 118.243 546.634 118.387 546.526 118.572C546.422 118.752 546.346 118.961 546.298 119.197C546.25 119.429 546.226 119.678 546.226 119.943ZM555.563 121.836V114.02H557.306V123.255H555.737L555.563 121.836ZM551.45 120.081V119.955C551.45 119.458 551.506 119.007 551.619 118.602C551.731 118.193 551.895 117.842 552.112 117.55C552.328 117.257 552.595 117.031 552.911 116.87C553.228 116.71 553.589 116.63 553.994 116.63C554.374 116.63 554.707 116.71 554.992 116.87C555.28 117.031 555.525 117.259 555.725 117.556C555.93 117.848 556.094 118.195 556.218 118.596C556.342 118.993 556.433 119.427 556.489 119.9V120.177C556.433 120.63 556.342 121.051 556.218 121.44C556.094 121.828 555.93 122.169 555.725 122.462C555.525 122.75 555.28 122.975 554.992 123.135C554.703 123.295 554.366 123.376 553.982 123.376C553.577 123.376 553.216 123.293 552.899 123.129C552.587 122.965 552.322 122.734 552.106 122.438C551.893 122.141 551.731 121.792 551.619 121.392C551.506 120.991 551.45 120.554 551.45 120.081ZM553.182 119.955V120.081C553.182 120.349 553.202 120.6 553.242 120.832C553.286 121.065 553.356 121.271 553.452 121.452C553.553 121.628 553.681 121.766 553.837 121.867C553.998 121.963 554.192 122.011 554.42 122.011C554.717 122.011 554.962 121.945 555.154 121.812C555.346 121.676 555.493 121.49 555.593 121.253C555.697 121.017 555.757 120.744 555.773 120.436V119.648C555.761 119.395 555.725 119.169 555.665 118.969C555.609 118.764 555.525 118.59 555.412 118.445C555.304 118.301 555.168 118.189 555.004 118.109C554.843 118.029 554.653 117.989 554.432 117.989C554.208 117.989 554.016 118.041 553.855 118.145C553.695 118.245 553.565 118.383 553.464 118.56C553.368 118.736 553.296 118.944 553.248 119.185C553.204 119.421 553.182 119.678 553.182 119.955ZM561.653 123.376C561.148 123.376 560.695 123.295 560.295 123.135C559.894 122.971 559.553 122.744 559.272 122.456C558.996 122.167 558.783 121.832 558.635 121.452C558.487 121.067 558.413 120.658 558.413 120.225V119.985C558.413 119.492 558.483 119.041 558.623 118.632C558.763 118.223 558.964 117.868 559.224 117.568C559.489 117.267 559.81 117.037 560.186 116.876C560.563 116.712 560.988 116.63 561.461 116.63C561.922 116.63 562.331 116.706 562.687 116.858C563.044 117.01 563.343 117.227 563.583 117.508C563.828 117.788 564.012 118.125 564.136 118.518C564.261 118.906 564.323 119.339 564.323 119.816V120.538H559.152V119.383H562.621V119.251C562.621 119.011 562.577 118.796 562.489 118.608C562.405 118.415 562.277 118.263 562.104 118.151C561.932 118.039 561.711 117.982 561.443 117.982C561.214 117.982 561.018 118.033 560.854 118.133C560.689 118.233 560.555 118.373 560.451 118.554C560.351 118.734 560.274 118.946 560.222 119.191C560.174 119.431 560.15 119.696 560.15 119.985V120.225C560.15 120.486 560.186 120.726 560.258 120.947C560.335 121.167 560.441 121.357 560.577 121.518C560.717 121.678 560.886 121.802 561.082 121.891C561.283 121.979 561.509 122.023 561.762 122.023C562.074 122.023 562.365 121.963 562.633 121.842C562.906 121.718 563.14 121.532 563.337 121.283L564.179 122.197C564.042 122.394 563.856 122.582 563.619 122.762C563.387 122.943 563.106 123.091 562.778 123.207C562.449 123.32 562.074 123.376 561.653 123.376ZM567.04 118.169V123.255H565.309V116.75H566.938L567.04 118.169ZM569 116.708L568.97 118.313C568.886 118.301 568.784 118.291 568.664 118.283C568.548 118.271 568.441 118.265 568.345 118.265C568.101 118.265 567.888 118.297 567.708 118.361C567.531 118.421 567.383 118.512 567.263 118.632C567.147 118.752 567.058 118.898 566.998 119.071C566.942 119.243 566.91 119.44 566.902 119.66L566.553 119.552C566.553 119.131 566.596 118.744 566.68 118.391C566.764 118.035 566.886 117.724 567.046 117.459C567.211 117.195 567.411 116.99 567.648 116.846C567.884 116.702 568.155 116.63 568.459 116.63C568.556 116.63 568.654 116.638 568.754 116.654C568.854 116.666 568.936 116.684 569 116.708Z" fill="#1C1B1F"/>
<path d="M510.202 50.2204H520.594C522.506 50.2204 523.844 50.0389 523.844 51.9662V48.4747C523.844 46.5473 522.506 44.9831 520.594 44.9831H506.739C503.275 44.9831 500.533 48.6929 501.543 53.712C501.543 53.712 504.645 70.0787 504.863 71.0965C505.44 73.7884 508.541 76.4071 511.861 76.4071H523.912C525.826 76.4071 523.844 73.0971 523.844 71.1698V67.6782C523.844 69.6056 522.506 71.1698 520.594 71.1698H513.666C511.754 71.1698 510.492 69.3507 510.202 67.6782C509.913 66.0058 507.459 54.8764 507.459 54.8764C506.882 51.5298 508.289 50.2204 510.202 50.2204ZM554.906 50.2204H544.514C542.602 50.2204 539.431 50.0389 539.431 51.9662V48.4747C539.431 46.5473 542.602 44.9831 544.514 44.9831H558.369C561.833 44.9831 564.577 48.6929 563.565 53.712C563.565 53.712 560.737 70.1555 560.498 71.1698C559.885 73.7884 556.961 76.4071 553.57 76.4071H541.194C539.282 76.4071 539.431 73.0971 539.431 71.1698V67.6782C539.431 69.6056 542.602 71.1698 544.514 71.1698H551.442C553.354 71.1698 554.618 69.3507 554.906 67.6782C555.193 66.0058 557.649 54.8764 557.649 54.8764C558.224 51.5298 556.819 50.2204 554.906 50.2204ZM537.409 79.8987C537.409 67.7515 532.717 79.8987 532.717 79.8987C532.717 79.8987 527.521 67.7515 527.521 79.8987C527.521 92.0458 521.822 97.3565 521.822 97.3565H543.11C543.11 97.3565 537.409 92.0458 537.409 79.8987Z" fill="#82ACF5"/>
<path d="M548.091 99.1022C548.091 101.03 548.484 102.594 546.572 102.594H518.862C516.948 102.594 516.917 101.03 516.917 99.1022V97.3565C516.917 95.4291 518.933 93.8649 520.737 93.8649H544.84C546.645 93.8649 548.091 95.4291 548.091 97.3565V99.1022Z" fill="#828282"/>
<path d="M551.555 101.939C551.555 103.266 551.84 104.34 549.386 104.34H516.047C513.81 104.34 513.453 103.266 513.453 101.939V101.503C513.453 100.176 514.731 99.1022 516.047 99.1022H549.386C550.701 99.1022 551.555 100.176 551.555 101.503V101.939Z" fill="#828282"/>
<path fill-rule="evenodd" clip-rule="evenodd" d="M532.717 84.7327C540.043 84.7327 551.768 64.8012 551.768 52.9735C551.768 43.0872 549.892 41.8913 544.84 41.8931L532.717 41.8948C530.852 41.8948 527.609 41.9088 524.66 41.9216C522.2 41.9322 519.944 41.942 518.862 41.942C515.398 41.942 513.666 43.9042 513.666 52.9735C513.666 64.8012 525.389 84.7327 532.717 84.7327Z" fill="#2D9CDB"/>
<circle cx="24.0864" cy="87.9677" r="22.581" stroke="#9CA3AF" stroke-width="3.0108"/>
<circle cx="24.0866" cy="87.9679" r="7.527" fill="#D1D5DB"/>
<rect x="48.1729" y="86.4624" width="55.6998" height="3.0108" fill="#696767"/>
<circle cx="127.959" cy="87.9677" r="22.581" stroke="#9CA3AF" stroke-width="3.0108"/>
<circle cx="127.959" cy="87.9679" r="7.527" fill="#D1D5DB"/>
<rect x="152.045" y="86.4624" width="55.6998" height="3.0108" fill="#696767"/>
<circle cx="231.832" cy="87.9677" r="22.581" stroke="#9CA3AF" stroke-width="3.0108"/>
<circle cx="231.832" cy="87.9679" r="7.527" fill="#D1D5DB"/>
<rect x="255.918" y="86.4624" width="55.6998" height="3.0108" fill="#696767"/>
<circle cx="335.704" cy="87.9679" r="7.527" fill="#D1D5DB"/>
<rect x="359.791" y="86.4624" width="55.6998" height="3.0108" fill="#696767"/>
<circle cx="439.577" cy="87.9677" r="22.581" stroke="#9CA3AF" stroke-width="3.0108"/>
<circle cx="439.577" cy="87.9679" r="7.527" fill="#D1D5DB"/>
<g clip-path="url(#clip0_326_3611)">
<path opacity="0.6" d="M23.4792 48.3741C30.4249 48.3741 36.0556 47.7747 36.0556 47.0352C36.0556 46.2957 30.4249 45.6963 23.4792 45.6963C16.5335 45.6963 10.9028 46.2957 10.9028 47.0352C10.9028 47.7747 16.5335 48.3741 23.4792 48.3741Z" fill="#40A45D"/>
<path d="M30.6338 16.9127C31.9248 15.6662 31.9248 13.6256 30.6338 12.379L30.4018 12.155C29.9828 11.7504 29.3039 11.7504 28.8849 12.155L26.4668 14.4899" fill="#A5BFC4"/>
<path d="M30.6338 16.9127C31.9248 15.6662 31.9248 13.6256 30.6338 12.379L30.4018 12.155C29.9828 11.7504 29.3039 11.7504 28.8849 12.155L26.4668 14.4899" stroke="black" stroke-width="0.879528" stroke-miterlimit="10" stroke-linecap="round"/>
<path fill-rule="evenodd" clip-rule="evenodd" d="M8.94653 37.818C6.04824 37.818 3.67725 35.4826 3.67725 32.6289V24.4669C3.67725 21.6127 6.04824 19.2778 8.94653 19.2778C11.8444 19.2778 14.2158 21.6127 14.2158 24.4669V32.6289C14.2158 35.4826 11.8444 37.818 8.94653 37.818Z" fill="#FCE47E"/>
<path d="M8.94653 37.818C6.04824 37.818 3.67725 35.4826 3.67725 32.6289V24.4669C3.67725 21.6127 6.04824 19.2778 8.94653 19.2778C11.8444 19.2778 14.2158 21.6127 14.2158 24.4669V32.6289C14.2158 35.4826 11.8444 37.818 8.94653 37.818Z" stroke="black" stroke-width="0.879528"/>
<path fill-rule="evenodd" clip-rule="evenodd" d="M10.4765 37.8179C7.61308 37.8179 5.03588 39.0248 3.23975 40.9493C5.03588 42.8735 7.61308 44.0804 10.4765 44.0804C13.34 44.0804 15.9172 42.8735 17.7133 40.9493C15.9172 39.0248 13.34 37.8179 10.4765 37.8179Z" fill="#A5BFC4"/>
<mask id="mask0_326_3611" style="mask-type:alpha" maskUnits="userSpaceOnUse" x="3" y="37" width="12" height="8">
<path fill-rule="evenodd" clip-rule="evenodd" d="M14.3454 43.3301C13.1769 43.8129 11.8936 44.0798 10.5468 44.0798C7.68339 44.0798 5.10619 42.8729 3.31006 40.9488C5.10619 39.0237 7.68339 37.8174 10.5468 37.8174C11.8936 37.8174 13.1769 38.0841 14.3454 38.5669V43.3301Z" fill="white"/>
</mask>
<g mask="url(#mask0_326_3611)">
<path fill-rule="evenodd" clip-rule="evenodd" d="M0.519043 45.7002H5.51809V34.7388H0.519043V45.7002Z" fill="#6C888C"/>
<path fill-rule="evenodd" clip-rule="evenodd" d="M7.25293 45.5113H9.83769V34.5503H7.25293V45.5113Z" fill="#6C888C"/>
<path fill-rule="evenodd" clip-rule="evenodd" d="M11.7603 45.5113H14.345V34.5503H11.7603V45.5113Z" fill="#6C888C"/>
</g>
<path d="M18.4277 40.9489L18.7365 41.2666L19.0733 40.9489L18.7365 40.6313L18.4277 40.9489ZM10.5218 37.3779C7.9801 37.3779 5.55444 38.1585 3.5103 39.6349L4.03848 40.3441C5.92894 38.9788 8.16946 38.2575 10.5218 38.2575V37.3779ZM3.5103 39.6349C3.08352 39.9439 2.8374 40.4259 2.8374 40.9489H3.73052C3.73052 40.7033 3.84255 40.486 4.03848 40.3441L3.5103 39.6349ZM2.8374 40.9489C2.8374 41.4721 3.0833 41.9534 3.51064 42.2623L4.03915 41.5533C3.84277 41.4114 3.73052 41.1942 3.73052 40.9489H2.8374ZM3.51064 42.2623C5.55425 43.7387 7.98004 44.52 10.5218 44.52V43.6404C8.16952 43.6404 5.92912 42.9187 4.03915 41.5533L3.51064 42.2623ZM10.5218 44.52C13.5828 44.52 16.535 43.3424 18.7365 41.2666L18.1189 40.6313C16.0825 42.5514 13.3511 43.6404 10.5218 43.6404V44.52ZM18.7365 40.6313C16.535 38.5554 13.5828 37.3779 10.5218 37.3779V38.2575C13.3511 38.2575 16.0825 39.3464 18.1189 41.2666L18.7365 40.6313Z" fill="black"/>
<path fill-rule="evenodd" clip-rule="evenodd" d="M34.0947 25.816L36.7694 25.772C38.3203 25.772 39.5778 27.0104 39.5778 28.5376C39.5778 30.0654 38.3203 31.3033 36.7694 31.3033H35.6931H34.1282" fill="#A5BFC4"/>
<path d="M34.0947 25.816L36.7694 25.772C38.3203 25.772 39.5778 27.0104 39.5778 28.5376C39.5778 30.0654 38.3203 31.3033 36.7694 31.3033H35.6931H34.1282" stroke="black" stroke-width="0.879528"/>
<path fill-rule="evenodd" clip-rule="evenodd" d="M34.495 31.3038H28.0034L28.2647 25.8166L34.495 25.772" fill="white"/>
<path fill-rule="evenodd" clip-rule="evenodd" d="M32.9982 39.5527V42.5859C32.9982 44.5703 31.365 46.1792 29.35 46.1792C27.3354 46.1792 25.7017 44.5703 25.7017 42.5859V41.2089V42.2905" fill="#A5BFC4"/>
<path d="M32.9986 39.2793V42.4695C32.9986 44.5183 31.3121 46.179 29.2318 46.179C27.1514 46.179 25.4648 44.5183 25.4648 42.4695V40.1571" stroke="black" stroke-width="0.879528" stroke-linecap="round" stroke-linejoin="round"/>
<path fill-rule="evenodd" clip-rule="evenodd" d="M27.2523 35.314C26.6125 35.314 25.9901 35.2426 25.4039 35.0951C24.6488 34.9051 24.1926 34.147 24.3856 33.4028C24.5781 32.6587 25.3465 32.2099 26.104 32.3996C27.7349 32.8107 30.032 32.2312 31.6888 30.9914C32.8413 30.1286 33.5145 29.0779 33.5352 28.108C33.5654 26.6693 29.3098 24.7072 25.4708 23.8462C24.7104 23.6756 24.234 22.9306 24.4067 22.1817C24.5796 21.4325 25.3342 20.9619 26.0965 21.1334C27.8267 21.5202 36.4547 23.6756 36.3592 28.1665C36.32 30.0168 35.2679 31.807 33.3978 33.2067C31.5871 34.5615 29.3272 35.314 27.2523 35.314Z" fill="#FCE47E"/>
<path d="M27.2523 35.314C26.6125 35.314 25.9901 35.2426 25.4039 35.0951C24.6488 34.9051 24.1926 34.147 24.3856 33.4028C24.5781 32.6587 25.3465 32.2098 26.104 32.3996C27.7349 32.8107 30.032 32.2312 31.6888 30.9914C32.8413 30.1286 33.5145 29.0779 33.5352 28.108C33.5654 26.6693 29.3098 24.7072 25.4708 23.8462C24.7104 23.6756 24.234 22.9306 24.4067 22.1817C24.5796 21.4325 25.3342 20.9619 26.0965 21.1334C27.8267 21.5202 36.4547 23.6756 36.3592 28.1665C36.32 30.0168 35.2679 31.807 33.3978 33.2067C31.5871 34.5615 29.3272 35.314 27.2523 35.314Z" stroke="black" stroke-width="0.879528"/>
<path fill-rule="evenodd" clip-rule="evenodd" d="M23.0564 44.8708C29.2686 44.8708 34.352 39.8652 34.352 33.747V23.2575C34.352 17.1393 29.2686 12.1338 23.0564 12.1338C16.8436 12.1338 11.7607 17.1393 11.7607 23.2575V33.747C11.7607 39.8652 16.8436 44.8708 23.0564 44.8708Z" fill="#A5BFC4"/>
<mask id="mask1_326_3611" style="mask-type:alpha" maskUnits="userSpaceOnUse" x="22" y="30" width="10" height="15">
<path fill-rule="evenodd" clip-rule="evenodd" d="M31.4678 41.1515C29.3955 43.431 26.3882 44.871 23.0559 44.871C22.7388 44.871 22.4248 44.858 22.1143 44.8324V30.1528H31.4678V41.1515Z" fill="white"/>
</mask>
<g mask="url(#mask1_326_3611)">
<path fill-rule="evenodd" clip-rule="evenodd" d="M26.7913 49.3004C29.3736 49.3004 31.4678 47.2385 31.4678 44.695V34.7582C31.4678 32.2147 29.3736 30.1528 26.7913 30.1528C24.2084 30.1528 22.1143 32.2147 22.1143 34.7582V44.695C22.1143 47.2385 24.2084 49.3004 26.7913 49.3004Z" fill="white" fill-opacity="0.24"/>
</g>
<mask id="mask2_326_3611" style="mask-type:alpha" maskUnits="userSpaceOnUse" x="11" y="24" width="24" height="21">
<path fill-rule="evenodd" clip-rule="evenodd" d="M11.7905 24.4561V33.7474C11.7905 39.8656 16.8734 44.8711 23.0862 44.8711C29.299 44.8711 34.3818 39.8656 34.3818 33.7474V24.4561H11.7905Z" fill="white"/>
</mask>
<g mask="url(#mask2_326_3611)">
<path fill-rule="evenodd" clip-rule="evenodd" d="M12.0376 34.3066C12.0376 40.1414 16.8408 44.8715 22.7657 44.8715H24.3296C30.2546 44.8715 35.0577 40.1414 35.0577 34.3066H12.0376Z" fill="#0BAF17"/>
<path fill-rule="evenodd" clip-rule="evenodd" d="M34.3516 34.7856H11.3525V24.4561L24.4905 27.2773L26.3229 31.6429C26.4514 31.9481 26.8902 31.9481 27.0183 31.6425L28.8521 27.2574L34.3516 24.4561V34.7856Z" fill="white"/>
<path fill-rule="evenodd" clip-rule="evenodd" d="M22.6399 34.3697H20.2944V26.064L22.6399 26.5429V34.3697Z" fill="#0BAF17"/>
<path fill-rule="evenodd" clip-rule="evenodd" d="M32.5052 34.2755H30.1592V26.5599L32.5052 25.3848V34.2755Z" fill="#0BAF17"/>
</g>
<path d="M11.8638 34.6636H34.2687" stroke="black" stroke-width="0.879528"/>
<path opacity="0.42" fill-rule="evenodd" clip-rule="evenodd" d="M24.7677 19.242C25.4405 20.4081 25.0261 21.8899 23.8425 22.5529C23.0826 22.9786 21.0939 22.9405 19.7682 22.8584C19.1466 22.82 18.77 22.1676 19.0544 21.6219C19.6613 20.4582 20.6452 18.7561 21.4052 18.331C22.5892 17.668 24.0944 18.076 24.7677 19.242Z" fill="white"/>
<path opacity="0.42" fill-rule="evenodd" clip-rule="evenodd" d="M28.2296 19.4005C28.8355 18.1997 30.3158 17.7101 31.5352 18.3073C32.3181 18.6902 33.3963 20.3356 34.0676 21.4647C34.3826 21.9936 34.0436 22.6659 33.425 22.7382C32.1053 22.8922 30.1227 23.0392 29.3398 22.6557C28.1204 22.0585 27.6232 20.6013 28.2296 19.4005Z" fill="white"/>
<path fill-rule="evenodd" clip-rule="evenodd" d="M32.0729 20.3581C32.0729 20.9543 31.5813 21.4379 30.9759 21.4375C30.3704 21.4375 29.8794 20.9538 29.8794 20.3571C29.8798 19.7605 30.3709 19.2773 30.9769 19.2773C31.5823 19.2778 32.0733 19.7613 32.0729 20.3581Z" fill="black"/>
<path fill-rule="evenodd" clip-rule="evenodd" d="M24.7785 20.3581C24.778 20.9543 24.287 21.4379 23.681 21.4375C23.0756 21.4375 22.5845 20.9538 22.585 20.3571C22.585 19.7605 23.0765 19.2773 23.682 19.2773C24.2879 19.2778 24.7785 19.7613 24.7785 20.3581Z" fill="black"/>
<path d="M23.0564 44.8712C29.2686 44.8712 34.352 39.8657 34.352 33.7474V23.258C34.352 17.1398 29.2686 12.1343 23.0564 12.1343C16.8436 12.1343 11.7607 17.1398 11.7607 23.258V33.7474C11.7607 39.8657 16.8436 44.8712 23.0564 44.8712Z" stroke="black" stroke-width="0.879528"/>
<path fill-rule="evenodd" clip-rule="evenodd" d="M13.2591 35.3145C12.6193 35.3145 11.9969 35.243 11.4107 35.0956C10.6556 34.9056 10.1994 34.1475 10.3924 33.4033C10.585 32.6592 11.3533 32.2103 12.1109 32.4C13.7418 32.8112 16.0388 32.2317 17.6956 30.9919C18.8481 30.1291 19.5214 29.0784 19.5421 28.1085C19.5722 26.6698 15.3166 24.7077 11.4776 23.8467C10.7172 23.6761 10.2408 22.931 10.4136 22.1822C10.5864 21.433 11.3411 20.9624 12.1034 21.1339C13.8336 21.5206 22.4616 23.6761 22.366 28.167C22.327 30.0173 21.2747 31.8074 19.4046 33.2072C17.5939 34.5619 15.334 35.3145 13.2591 35.3145Z" fill="#FCE47E" stroke="black" stroke-width="0.879528"/>
<path fill-rule="evenodd" clip-rule="evenodd" d="M26.7054 10.5628C26.1568 8.96464 24.623 7.81299 22.8146 7.81299C21.0067 7.81299 19.4728 8.96464 18.9248 10.5628H26.7054Z" fill="#1DCC70" stroke="black" stroke-width="0.879528"/>
<path fill-rule="evenodd" clip-rule="evenodd" d="M21.6513 10.2175C21.2676 10.2175 20.9536 9.90828 20.9536 9.53035V7.55526C20.9536 7.17692 21.2676 6.86768 21.6513 6.86768C22.035 6.86768 22.349 7.17692 22.349 7.55526V9.53035C22.349 9.90828 22.035 10.2175 21.6513 10.2175Z" fill="#FD4242"/>
<path fill-rule="evenodd" clip-rule="evenodd" d="M27.8018 11.2864C27.8018 12.2062 27.0377 12.9587 26.1036 12.9587H19.4755C18.5419 12.9587 17.7773 12.2062 17.7773 11.2864C17.7773 10.8829 18.1098 10.5557 18.5193 10.5557H27.0598C27.4694 10.5557 27.8018 10.8829 27.8018 11.2864Z" fill="#0BAF17"/>
<path d="M27.8018 11.2864C27.8018 12.2062 27.0377 12.9587 26.1036 12.9587H19.4755C18.5419 12.9587 17.7773 12.2062 17.7773 11.2864C17.7773 10.8829 18.1098 10.5557 18.5193 10.5557H27.0598C27.4694 10.5557 27.8018 10.8829 27.8018 11.2864Z" stroke="black" stroke-width="0.879528"/>
<path fill-rule="evenodd" clip-rule="evenodd" d="M22.0973 42.5864C22.0973 44.5708 20.4637 46.1797 18.4486 46.1797C16.434 46.1797 14.8003 44.5708 14.8003 42.5864" fill="#0BAF17"/>
<path fill-rule="evenodd" clip-rule="evenodd" d="M22.0973 40.6299V42.5865C22.0973 44.5709 20.4637 46.1793 18.4486 46.1793C16.434 46.1793 14.8003 44.5709 14.8003 42.5865V40.8506" fill="#0BAF17"/>
<path fill-rule="evenodd" clip-rule="evenodd" d="M22.0973 42.5864C22.0973 44.5708 20.4637 46.1797 18.4486 46.1797C16.434 46.1797 14.8003 44.5708 14.8003 42.5864" fill="#A5BFC4"/>
<path d="M20.8953 29.4098L20.1985 28.7231L18.2227 26.7773L13.7979 30.2425L16.924 33.3211C18.0205 34.4014 19.7988 34.4014 20.8953 33.3211C21.9928 32.2412 21.9928 30.4901 20.8953 29.4098Z" fill="white"/>
<path fill-rule="evenodd" clip-rule="evenodd" d="M20.1978 28.7236L20.8947 29.4103C21.9921 30.4906 21.9921 32.2417 20.8947 33.3216C19.7982 34.4019 18.0199 34.4019 16.9234 33.3216L16.1621 32.5724" fill="#A5BFC4"/>
<path fill-rule="evenodd" clip-rule="evenodd" d="M39.6995 46.1799C38.9208 46.1799 38.2871 45.5558 38.2871 44.7889V18.8675C38.2871 18.1001 38.9208 17.4766 39.6995 17.4766C40.4782 17.4766 41.112 18.1001 41.112 18.8675V20.8946C41.2989 20.8065 41.5056 20.7601 41.7188 20.7601C42.0959 20.7601 42.4509 20.9048 42.7174 21.1677C42.9844 21.4306 43.1312 21.7797 43.1312 22.1511C43.1312 22.5229 42.9844 22.872 42.7174 23.1349L41.112 24.7159V44.7889C41.112 45.5558 40.4782 46.1799 39.6995 46.1799Z" fill="#FCE47E"/>
<path d="M39.6995 46.1799C38.9208 46.1799 38.2871 45.5558 38.2871 44.7889V18.8675C38.2871 18.1001 38.9208 17.4766 39.6995 17.4766C40.4782 17.4766 41.112 18.1001 41.112 18.8675V20.8946C41.2989 20.8065 41.5056 20.7601 41.7188 20.7601C42.0959 20.7601 42.4509 20.9048 42.7174 21.1677C42.9844 21.4306 43.1312 21.7797 43.1312 22.1511C43.1312 22.5229 42.9844 22.872 42.7174 23.1349L41.112 24.7159V44.7889C41.112 45.5558 40.4782 46.1799 39.6995 46.1799Z" stroke="black" stroke-width="0.879528"/>
<path fill-rule="evenodd" clip-rule="evenodd" d="M25.5055 22.1816C26.2437 21.8464 27.1006 21.8464 27.8388 22.1816C28.2922 22.3875 28.3883 22.9823 28.0356 23.3301L27.1849 24.1674C26.9019 24.4465 26.4424 24.4465 26.1594 24.1674L25.3087 23.3301C24.9556 22.9823 25.0521 22.3875 25.5055 22.1816Z" fill="black"/>
<path fill-rule="evenodd" clip-rule="evenodd" d="M4.83063 34.1756C2.92763 34.1756 1.38525 32.6567 1.38525 30.7827V28.3587C1.38525 26.4851 2.92763 24.9658 4.83063 24.9658C6.73316 24.9658 8.27554 26.4851 8.27554 28.3587V30.7827C8.27554 32.6567 6.73316 34.1756 4.83063 34.1756Z" fill="#FCE47E"/>
<path d="M4.83063 34.1756C2.92763 34.1756 1.38525 32.6567 1.38525 30.7827V28.3587C1.38525 26.4851 2.92763 24.9658 4.83063 24.9658C6.73316 24.9658 8.27554 26.4851 8.27554 28.3587V30.7827C8.27554 32.6567 6.73316 34.1756 4.83063 34.1756Z" stroke="black" stroke-width="0.879528"/>
<path fill-rule="evenodd" clip-rule="evenodd" d="M9.45985 19.7307C9.45985 21.621 7.90378 23.1533 5.9843 23.1533C4.06481 23.1533 2.50879 21.621 2.50879 19.7307C2.50879 17.8404 4.06481 16.3081 5.9843 16.3081C7.90378 16.3081 9.45985 17.8404 9.45985 19.7307Z" fill="#FD4242"/>
<path d="M9.45985 19.7307C9.45985 21.621 7.90378 23.1533 5.9843 23.1533C4.06481 23.1533 2.50879 21.621 2.50879 19.7307C2.50879 17.8404 4.06481 16.3081 5.9843 16.3081C7.90378 16.3081 9.45985 17.8404 9.45985 19.7307Z" stroke="black" stroke-width="0.879528"/>
<path d="M13.7969 30.2425L16.9231 33.3211C18.0196 34.4014 19.7978 34.4014 20.8943 33.3211C21.9918 32.2412 21.9918 30.4901 20.8943 29.4098L20.1976 28.7231L18.2217 26.7773" stroke="black" stroke-width="0.879528" stroke-linecap="round"/>
<path fill-rule="evenodd" clip-rule="evenodd" d="M25.2276 30.6562C24.9579 31.0395 24.8876 31.601 25.1949 31.9558C25.3386 32.1216 25.5744 32.2268 25.7863 32.1628C26.0257 32.0908 26.1562 31.8397 26.2315 31.6047C26.3909 31.1074 26.4209 30.5806 26.4498 30.06C26.4512 30.4041 26.4532 30.7529 26.5417 31.0859C26.6301 31.4189 26.8158 31.7401 27.1122 31.9229C27.4084 32.1056 27.825 32.1185 28.0926 31.8967C28.3352 31.6954 28.4097 31.3499 28.3663 31.0406C28.3089 30.6311 27.961 30.2507 27.6097 30.0242C26.739 29.463 25.782 29.8682 25.2276 30.6562Z" stroke="black" stroke-width="0.879528" stroke-linecap="round" stroke-linejoin="round"/>
<path d="M23.9917 29.5477C25.6207 29.6432 27.2786 29.6053 28.885 29.436" stroke="black" stroke-width="0.879528" stroke-linecap="round" stroke-linejoin="round"/>
<path d="M1.38525 28.5381H8.41243" stroke="black" stroke-width="0.879528"/>
<path d="M22.3339 40.1577V42.4703C22.3339 44.519 20.6475 46.1798 18.5673 46.1798C16.4869 46.1798 14.8003 44.519 14.8003 42.4703V40.1577" stroke="black" stroke-width="0.879528" stroke-linecap="round" stroke-linejoin="round"/>
<path d="M14.832 42.2256H22.3019" stroke="black" stroke-width="0.879528"/>
<path d="M26.6714 23.4209V25.4214" stroke="black" stroke-width="0.879528" stroke-linecap="round"/>
<path d="M24.9517 25.0708C25.9018 26.0065 27.4423 26.0065 28.3926 25.0708" stroke="black" stroke-width="0.879528" stroke-linecap="round"/>
<path d="M15.1221 16.9127C13.8311 15.6662 13.8311 13.6256 15.1221 12.379L15.3541 12.155C15.7731 11.7504 16.452 11.7504 16.871 12.155L19.2891 14.4899" fill="#A5BFC4"/>
<path d="M15.1221 16.9127C13.8311 15.6662 13.8311 13.6256 15.1221 12.379L15.3541 12.155C15.7731 11.7504 16.452 11.7504 16.871 12.155L19.2891 14.4899" stroke="black" stroke-width="0.879528" stroke-miterlimit="10" stroke-linecap="round"/>
</g>
<defs>
<clipPath id="clip0_326_3611">
<rect width="44.656" height="49.2536" fill="white" transform="translate(0.492188)"/>
</clipPath>
</defs>
</svg>
