<svg width="810" height="162" viewBox="0 0 810 162" fill="none" xmlns="http://www.w3.org/2000/svg">
<rect width="809.166" height="112.58" transform="translate(0 49)" fill="#E5D1FF"/>
<path d="M634.026 127.458H635.823C635.787 128.048 635.625 128.571 635.336 129.028C635.052 129.484 634.653 129.841 634.14 130.098C633.631 130.354 633.018 130.483 632.3 130.483C631.739 130.483 631.236 130.386 630.791 130.194C630.346 129.998 629.965 129.717 629.649 129.352C629.336 128.987 629.098 128.547 628.933 128.029C628.769 127.512 628.687 126.933 628.687 126.292V125.685C628.687 125.043 628.771 124.464 628.939 123.947C629.112 123.426 629.356 122.983 629.673 122.618C629.993 122.254 630.376 121.973 630.821 121.777C631.266 121.58 631.763 121.482 632.312 121.482C633.042 121.482 633.657 121.614 634.158 121.879C634.663 122.143 635.054 122.508 635.33 122.973C635.611 123.438 635.779 123.967 635.835 124.56H634.032C634.012 124.208 633.942 123.909 633.821 123.664C633.701 123.416 633.519 123.23 633.274 123.105C633.034 122.977 632.713 122.913 632.312 122.913C632.012 122.913 631.749 122.969 631.525 123.081C631.3 123.194 631.112 123.364 630.959 123.592C630.807 123.821 630.693 124.109 630.617 124.458C630.545 124.803 630.508 125.208 630.508 125.673V126.292C630.508 126.745 630.543 127.144 630.611 127.488C630.679 127.829 630.783 128.118 630.923 128.354C631.068 128.587 631.252 128.763 631.476 128.883C631.705 128.999 631.98 129.058 632.3 129.058C632.677 129.058 632.988 128.997 633.232 128.877C633.477 128.757 633.663 128.579 633.791 128.342C633.924 128.106 634.002 127.811 634.026 127.458ZM638.727 121.127V130.362H636.99V121.127H638.727ZM643.153 130.483C642.648 130.483 642.195 130.402 641.794 130.242C641.393 130.078 641.052 129.851 640.772 129.563C640.495 129.274 640.283 128.939 640.134 128.559C639.986 128.174 639.912 127.765 639.912 127.332V127.092C639.912 126.599 639.982 126.148 640.122 125.739C640.263 125.33 640.463 124.975 640.724 124.675C640.988 124.374 641.309 124.143 641.686 123.983C642.062 123.819 642.487 123.737 642.96 123.737C643.421 123.737 643.83 123.813 644.187 123.965C644.543 124.117 644.842 124.334 645.083 124.614C645.327 124.895 645.511 125.232 645.636 125.625C645.76 126.013 645.822 126.446 645.822 126.923V127.645H640.651V126.49H644.121V126.358C644.121 126.118 644.076 125.903 643.988 125.715C643.904 125.522 643.776 125.37 643.603 125.258C643.431 125.146 643.211 125.089 642.942 125.089C642.714 125.089 642.517 125.14 642.353 125.24C642.189 125.34 642.054 125.48 641.95 125.661C641.85 125.841 641.774 126.053 641.722 126.298C641.674 126.538 641.649 126.803 641.649 127.092V127.332C641.649 127.593 641.686 127.833 641.758 128.054C641.834 128.274 641.94 128.464 642.076 128.625C642.217 128.785 642.385 128.909 642.581 128.997C642.782 129.086 643.008 129.13 643.261 129.13C643.573 129.13 643.864 129.07 644.133 128.949C644.405 128.825 644.64 128.639 644.836 128.39L645.678 129.304C645.541 129.501 645.355 129.689 645.119 129.869C644.886 130.05 644.606 130.198 644.277 130.314C643.948 130.426 643.573 130.483 643.153 130.483ZM650.319 128.895V125.997C650.319 125.789 650.285 125.611 650.217 125.462C650.149 125.31 650.043 125.192 649.898 125.107C649.758 125.023 649.576 124.981 649.351 124.981C649.159 124.981 648.993 125.015 648.852 125.083C648.712 125.148 648.604 125.242 648.528 125.366C648.451 125.486 648.413 125.629 648.413 125.793H646.682C646.682 125.516 646.746 125.254 646.874 125.005C647.003 124.757 647.189 124.538 647.433 124.35C647.678 124.158 647.968 124.007 648.305 123.899C648.646 123.791 649.027 123.737 649.448 123.737C649.953 123.737 650.402 123.821 650.794 123.989C651.187 124.158 651.496 124.41 651.72 124.747C651.949 125.083 652.063 125.504 652.063 126.009V128.793C652.063 129.15 652.085 129.442 652.129 129.671C652.173 129.895 652.237 130.092 652.321 130.26V130.362H650.572C650.488 130.186 650.424 129.965 650.379 129.701C650.339 129.432 650.319 129.164 650.319 128.895ZM650.548 126.4L650.56 127.38H649.592C649.363 127.38 649.165 127.406 648.997 127.458C648.828 127.51 648.69 127.585 648.582 127.681C648.474 127.773 648.393 127.881 648.341 128.005C648.293 128.13 648.269 128.266 648.269 128.414C648.269 128.563 648.303 128.697 648.371 128.817C648.439 128.933 648.538 129.026 648.666 129.094C648.794 129.158 648.945 129.19 649.117 129.19C649.377 129.19 649.604 129.138 649.796 129.034C649.989 128.929 650.137 128.801 650.241 128.649C650.349 128.496 650.406 128.352 650.41 128.216L650.866 128.949C650.802 129.114 650.714 129.284 650.602 129.46C650.494 129.637 650.355 129.803 650.187 129.959C650.019 130.112 649.816 130.238 649.58 130.338C649.343 130.434 649.063 130.483 648.738 130.483C648.325 130.483 647.95 130.4 647.614 130.236C647.281 130.068 647.017 129.837 646.82 129.545C646.628 129.248 646.532 128.911 646.532 128.535C646.532 128.194 646.596 127.891 646.724 127.627C646.852 127.362 647.041 127.14 647.289 126.959C647.542 126.775 647.856 126.637 648.233 126.544C648.61 126.448 649.047 126.4 649.544 126.4H650.548ZM655.093 125.246V130.362H653.362V123.857H654.985L655.093 125.246ZM654.841 126.881H654.372C654.372 126.4 654.434 125.967 654.558 125.582C654.682 125.194 654.857 124.863 655.081 124.59C655.306 124.314 655.572 124.103 655.881 123.959C656.193 123.811 656.542 123.737 656.927 123.737C657.232 123.737 657.51 123.781 657.763 123.869C658.015 123.957 658.232 124.097 658.412 124.29C658.596 124.482 658.737 124.737 658.833 125.053C658.933 125.37 658.983 125.757 658.983 126.214V130.362H657.24V126.208C657.24 125.919 657.2 125.695 657.119 125.534C657.039 125.374 656.921 125.262 656.765 125.198C656.612 125.13 656.424 125.095 656.199 125.095C655.967 125.095 655.765 125.142 655.592 125.234C655.424 125.326 655.284 125.454 655.171 125.619C655.063 125.779 654.981 125.967 654.925 126.184C654.869 126.4 654.841 126.633 654.841 126.881ZM668.549 127.458H670.347C670.311 128.048 670.148 128.571 669.86 129.028C669.575 129.484 669.176 129.841 668.663 130.098C668.154 130.354 667.541 130.483 666.823 130.483C666.262 130.483 665.759 130.386 665.314 130.194C664.869 129.998 664.489 129.717 664.172 129.352C663.859 128.987 663.621 128.547 663.456 128.029C663.292 127.512 663.21 126.933 663.21 126.292V125.685C663.21 125.043 663.294 124.464 663.462 123.947C663.635 123.426 663.879 122.983 664.196 122.618C664.517 122.254 664.899 121.973 665.344 121.777C665.789 121.58 666.286 121.482 666.835 121.482C667.565 121.482 668.18 121.614 668.681 121.879C669.186 122.143 669.577 122.508 669.854 122.973C670.134 123.438 670.303 123.967 670.359 124.56H668.555C668.535 124.208 668.465 123.909 668.345 123.664C668.224 123.416 668.042 123.23 667.797 123.105C667.557 122.977 667.236 122.913 666.835 122.913C666.535 122.913 666.272 122.969 666.048 123.081C665.823 123.194 665.635 123.364 665.483 123.592C665.33 123.821 665.216 124.109 665.14 124.458C665.068 124.803 665.032 125.208 665.032 125.673V126.292C665.032 126.745 665.066 127.144 665.134 127.488C665.202 127.829 665.306 128.118 665.447 128.354C665.591 128.587 665.775 128.763 666 128.883C666.228 128.999 666.503 129.058 666.823 129.058C667.2 129.058 667.511 128.997 667.755 128.877C668 128.757 668.186 128.579 668.314 128.342C668.447 128.106 668.525 127.811 668.549 127.458ZM671.146 127.176V127.049C671.146 126.572 671.214 126.134 671.351 125.733C671.487 125.328 671.685 124.977 671.946 124.681C672.206 124.384 672.527 124.153 672.908 123.989C673.289 123.821 673.726 123.737 674.219 123.737C674.712 123.737 675.151 123.821 675.535 123.989C675.92 124.153 676.243 124.384 676.503 124.681C676.768 124.977 676.968 125.328 677.105 125.733C677.241 126.134 677.309 126.572 677.309 127.049V127.176C677.309 127.649 677.241 128.088 677.105 128.492C676.968 128.893 676.768 129.244 676.503 129.545C676.243 129.841 675.922 130.072 675.541 130.236C675.161 130.4 674.724 130.483 674.231 130.483C673.738 130.483 673.299 130.4 672.914 130.236C672.533 130.072 672.21 129.841 671.946 129.545C671.685 129.244 671.487 128.893 671.351 128.492C671.214 128.088 671.146 127.649 671.146 127.176ZM672.878 127.049V127.176C672.878 127.448 672.902 127.703 672.95 127.939C672.998 128.176 673.074 128.384 673.178 128.565C673.287 128.741 673.427 128.879 673.599 128.979C673.772 129.08 673.982 129.13 674.231 129.13C674.471 129.13 674.678 129.08 674.85 128.979C675.022 128.879 675.161 128.741 675.265 128.565C675.369 128.384 675.445 128.176 675.493 127.939C675.545 127.703 675.571 127.448 675.571 127.176V127.049C675.571 126.785 675.545 126.536 675.493 126.304C675.445 126.067 675.367 125.859 675.259 125.679C675.155 125.494 675.016 125.35 674.844 125.246C674.672 125.142 674.463 125.089 674.219 125.089C673.974 125.089 673.766 125.142 673.593 125.246C673.425 125.35 673.287 125.494 673.178 125.679C673.074 125.859 672.998 126.067 672.95 126.304C672.902 126.536 672.878 126.785 672.878 127.049ZM682.215 128.943V121.127H683.959V130.362H682.389L682.215 128.943ZM678.103 127.188V127.061C678.103 126.564 678.159 126.114 678.271 125.709C678.383 125.3 678.548 124.949 678.764 124.657C678.98 124.364 679.247 124.137 679.564 123.977C679.88 123.817 680.241 123.737 680.646 123.737C681.027 123.737 681.359 123.817 681.644 123.977C681.933 124.137 682.177 124.366 682.377 124.663C682.582 124.955 682.746 125.302 682.87 125.703C682.995 126.1 683.085 126.534 683.141 127.007V127.284C683.085 127.737 682.995 128.158 682.87 128.547C682.746 128.935 682.582 129.276 682.377 129.569C682.177 129.857 681.933 130.082 681.644 130.242C681.355 130.402 681.019 130.483 680.634 130.483C680.229 130.483 679.868 130.4 679.552 130.236C679.239 130.072 678.974 129.841 678.758 129.545C678.546 129.248 678.383 128.899 678.271 128.498C678.159 128.098 678.103 127.661 678.103 127.188ZM679.834 127.061V127.188C679.834 127.456 679.854 127.707 679.894 127.939C679.938 128.172 680.009 128.378 680.105 128.559C680.205 128.735 680.333 128.873 680.49 128.973C680.65 129.07 680.844 129.118 681.073 129.118C681.369 129.118 681.614 129.052 681.806 128.919C681.999 128.783 682.145 128.597 682.245 128.36C682.349 128.124 682.41 127.851 682.426 127.542V126.755C682.414 126.502 682.377 126.276 682.317 126.075C682.261 125.871 682.177 125.697 682.065 125.552C681.957 125.408 681.82 125.296 681.656 125.216C681.496 125.136 681.305 125.095 681.085 125.095C680.86 125.095 680.668 125.148 680.508 125.252C680.347 125.352 680.217 125.49 680.117 125.667C680.021 125.843 679.948 126.051 679.9 126.292C679.856 126.528 679.834 126.785 679.834 127.061ZM688.306 130.483C687.801 130.483 687.348 130.402 686.947 130.242C686.546 130.078 686.205 129.851 685.925 129.563C685.648 129.274 685.436 128.939 685.287 128.559C685.139 128.174 685.065 127.765 685.065 127.332V127.092C685.065 126.599 685.135 126.148 685.275 125.739C685.416 125.33 685.616 124.975 685.877 124.675C686.141 124.374 686.462 124.143 686.839 123.983C687.215 123.819 687.64 123.737 688.113 123.737C688.574 123.737 688.983 123.813 689.34 123.965C689.697 124.117 689.995 124.334 690.236 124.614C690.48 124.895 690.665 125.232 690.789 125.625C690.913 126.013 690.975 126.446 690.975 126.923V127.645H685.805V126.49H689.274V126.358C689.274 126.118 689.23 125.903 689.141 125.715C689.057 125.522 688.929 125.37 688.757 125.258C688.584 125.146 688.364 125.089 688.095 125.089C687.867 125.089 687.67 125.14 687.506 125.24C687.342 125.34 687.207 125.48 687.103 125.661C687.003 125.841 686.927 126.053 686.875 126.298C686.827 126.538 686.803 126.803 686.803 127.092V127.332C686.803 127.593 686.839 127.833 686.911 128.054C686.987 128.274 687.093 128.464 687.229 128.625C687.37 128.785 687.538 128.909 687.735 128.997C687.935 129.086 688.161 129.13 688.414 129.13C688.727 129.13 689.017 129.07 689.286 128.949C689.558 128.825 689.793 128.639 689.989 128.39L690.831 129.304C690.695 129.501 690.508 129.689 690.272 129.869C690.039 130.05 689.759 130.198 689.43 130.314C689.101 130.426 688.727 130.483 688.306 130.483ZM693.693 125.276V130.362H691.961V123.857H693.591L693.693 125.276ZM695.653 123.815L695.623 125.42C695.539 125.408 695.436 125.398 695.316 125.39C695.2 125.378 695.094 125.372 694.997 125.372C694.753 125.372 694.541 125.404 694.36 125.468C694.184 125.528 694.036 125.619 693.915 125.739C693.799 125.859 693.711 126.005 693.651 126.178C693.595 126.35 693.563 126.546 693.555 126.767L693.206 126.659C693.206 126.238 693.248 125.851 693.332 125.498C693.416 125.142 693.538 124.831 693.699 124.566C693.863 124.302 694.064 124.097 694.3 123.953C694.537 123.809 694.807 123.737 695.112 123.737C695.208 123.737 695.306 123.745 695.406 123.761C695.507 123.773 695.589 123.791 695.653 123.815Z" fill="#1C1B1F"/>
<path d="M636.855 57.3274H647.246C649.158 57.3274 650.497 57.1458 650.497 59.0731V55.5816C650.497 53.6542 649.158 52.09 647.246 52.09H633.391C629.927 52.09 627.186 55.7998 628.195 60.8189C628.195 60.8189 631.297 77.1856 631.515 78.2034C632.092 80.8954 635.194 83.514 638.514 83.514H650.564C652.478 83.514 650.497 80.204 650.497 78.2767V74.7852C650.497 76.7125 649.158 78.2767 647.246 78.2767H640.318C638.406 78.2767 637.144 76.4576 636.855 74.7852C636.565 73.1127 634.111 61.9834 634.111 61.9834C633.535 58.6367 634.941 57.3274 636.855 57.3274ZM681.558 57.3274H671.167C669.255 57.3274 666.084 57.1458 666.084 59.0731V55.5816C666.084 53.6542 669.255 52.09 671.167 52.09H685.022C688.486 52.09 691.229 55.7998 690.217 60.8189C690.217 60.8189 687.389 77.2624 687.15 78.2767C686.537 80.8954 683.614 83.514 680.223 83.514H667.847C665.935 83.514 666.084 80.204 666.084 78.2767V74.7852C666.084 76.7125 669.255 78.2767 671.167 78.2767H678.094C680.006 78.2767 681.271 76.4576 681.558 74.7852C681.846 73.1127 684.301 61.9834 684.301 61.9834C684.876 58.6367 683.472 57.3274 681.558 57.3274ZM664.061 87.0056C664.061 74.8585 659.369 87.0056 659.369 87.0056C659.369 87.0056 654.174 74.8585 654.174 87.0056C654.174 99.1527 648.474 104.463 648.474 104.463H669.762C669.762 104.463 664.061 99.1527 664.061 87.0056Z" fill="#82ACF5"/>
<path d="M674.743 106.209C674.743 108.137 675.136 109.701 673.224 109.701H645.514C643.6 109.701 643.569 108.137 643.569 106.209V104.463C643.569 102.536 645.585 100.972 647.39 100.972H671.492C673.297 100.972 674.743 102.536 674.743 104.463V106.209Z" fill="#828282"/>
<path d="M678.207 109.046C678.207 110.373 678.493 111.447 676.039 111.447H642.7C640.462 111.447 640.105 110.373 640.105 109.046V108.61C640.105 107.283 641.384 106.209 642.7 106.209H676.039C677.353 106.209 678.207 107.283 678.207 108.61V109.046Z" fill="#828282"/>
<path fill-rule="evenodd" clip-rule="evenodd" d="M659.369 91.8397C666.695 91.8397 678.42 71.9081 678.42 60.0805C678.42 50.1941 676.544 48.9983 671.492 49L659.369 49.0017C657.504 49.0017 654.262 49.0158 651.312 49.0285C648.852 49.0391 646.596 49.0489 645.514 49.0489C642.05 49.0489 640.318 51.0111 640.318 60.0805C640.318 71.9081 652.042 91.8397 659.369 91.8397Z" fill="#2D9CDB"/>
<circle cx="150.738" cy="95.0747" r="24.0864" fill="#696767"/>
<path d="M141.957 96.3292L146.975 101.347L159.52 88.8022" stroke="white" stroke-width="3.0108" stroke-linecap="round" stroke-linejoin="round"/>
<rect x="174.825" y="93.5693" width="55.6998" height="3.0108" fill="#696767"/>
<circle cx="254.611" cy="95.0747" r="22.581" stroke="#9CA3AF" stroke-width="3.0108"/>
<circle cx="254.611" cy="95.0749" r="7.527" fill="#D1D5DB"/>
<rect x="278.697" y="93.5693" width="55.6998" height="3.0108" fill="#696767"/>
<circle cx="358.483" cy="95.0747" r="22.581" stroke="#9CA3AF" stroke-width="3.0108"/>
<circle cx="358.484" cy="95.0749" r="7.527" fill="#D1D5DB"/>
<rect x="382.57" y="93.5693" width="55.6998" height="3.0108" fill="#696767"/>
<circle cx="462.356" cy="95.0747" r="22.581" stroke="#9CA3AF" stroke-width="3.0108"/>
<circle cx="462.356" cy="95.0749" r="7.527" fill="#D1D5DB"/>
<rect x="486.442" y="93.5693" width="55.6998" height="3.0108" fill="#696767"/>
<circle cx="566.228" cy="95.0747" r="22.581" stroke="#9CA3AF" stroke-width="3.0108"/>
<circle cx="566.229" cy="95.0749" r="7.527" fill="#D1D5DB"/>
<path opacity="0.6" d="M257.987 48.3741C264.933 48.3741 270.563 47.7747 270.563 47.0352C270.563 46.2957 264.933 45.6963 257.987 45.6963C251.041 45.6963 245.411 46.2957 245.411 47.0352C245.411 47.7747 251.041 48.3741 257.987 48.3741Z" fill="#40A45D"/>
<path d="M265.142 16.9127C266.433 15.6662 266.433 13.6256 265.142 12.379L264.91 12.155C264.491 11.7504 263.812 11.7504 263.393 12.155L260.975 14.4899" fill="#A5BFC4"/>
<path d="M265.142 16.9127C266.433 15.6662 266.433 13.6256 265.142 12.379L264.91 12.155C264.491 11.7504 263.812 11.7504 263.393 12.155L260.975 14.4899" stroke="black" stroke-width="0.879528" stroke-miterlimit="10" stroke-linecap="round"/>
<path fill-rule="evenodd" clip-rule="evenodd" d="M243.454 37.818C240.556 37.818 238.185 35.4826 238.185 32.6289V24.4669C238.185 21.6127 240.556 19.2778 243.454 19.2778C246.352 19.2778 248.724 21.6127 248.724 24.4669V32.6289C248.724 35.4826 246.352 37.818 243.454 37.818Z" fill="#FCE47E"/>
<path d="M243.454 37.818C240.556 37.818 238.185 35.4826 238.185 32.6289V24.4669C238.185 21.6127 240.556 19.2778 243.454 19.2778C246.352 19.2778 248.724 21.6127 248.724 24.4669V32.6289C248.724 35.4826 246.352 37.818 243.454 37.818Z" stroke="black" stroke-width="0.879528"/>
<path fill-rule="evenodd" clip-rule="evenodd" d="M244.984 37.8179C242.121 37.8179 239.544 39.0248 237.748 40.9493C239.544 42.8735 242.121 44.0804 244.984 44.0804C247.848 44.0804 250.425 42.8735 252.221 40.9493C250.425 39.0248 247.848 37.8179 244.984 37.8179Z" fill="#A5BFC4"/>
<mask id="mask0_326_3612" style="mask-type:alpha" maskUnits="userSpaceOnUse" x="237" y="37" width="12" height="8">
<path fill-rule="evenodd" clip-rule="evenodd" d="M248.853 43.3301C247.685 43.8129 246.401 44.0798 245.055 44.0798C242.191 44.0798 239.614 42.8729 237.818 40.9488C239.614 39.0237 242.191 37.8174 245.055 37.8174C246.401 37.8174 247.685 38.0841 248.853 38.5669V43.3301Z" fill="white"/>
</mask>
<g mask="url(#mask0_326_3612)">
<path fill-rule="evenodd" clip-rule="evenodd" d="M235.027 45.7002H240.026V34.7388H235.027V45.7002Z" fill="#6C888C"/>
<path fill-rule="evenodd" clip-rule="evenodd" d="M241.761 45.5113H244.346V34.5503H241.761V45.5113Z" fill="#6C888C"/>
<path fill-rule="evenodd" clip-rule="evenodd" d="M246.268 45.5113H248.853V34.5503H246.268V45.5113Z" fill="#6C888C"/>
</g>
<path d="M252.936 40.9489L253.244 41.2666L253.581 40.9489L253.244 40.6313L252.936 40.9489ZM245.03 37.3779C242.488 37.3779 240.062 38.1585 238.018 39.6349L238.546 40.3441C240.437 38.9788 242.677 38.2575 245.03 38.2575V37.3779ZM238.018 39.6349C237.591 39.9439 237.345 40.4259 237.345 40.9489H238.238C238.238 40.7033 238.35 40.486 238.546 40.3441L238.018 39.6349ZM237.345 40.9489C237.345 41.4721 237.591 41.9534 238.018 42.2623L238.547 41.5533C238.351 41.4114 238.238 41.1942 238.238 40.9489H237.345ZM238.018 42.2623C240.062 43.7387 242.488 44.52 245.03 44.52V43.6404C242.677 43.6404 240.437 42.9187 238.547 41.5533L238.018 42.2623ZM245.03 44.52C248.091 44.52 251.043 43.3424 253.244 41.2666L252.627 40.6313C250.59 42.5514 247.859 43.6404 245.03 43.6404V44.52ZM253.244 40.6313C251.043 38.5554 248.091 37.3779 245.03 37.3779V38.2575C247.859 38.2575 250.59 39.3464 252.627 41.2666L253.244 40.6313Z" fill="black"/>
<path fill-rule="evenodd" clip-rule="evenodd" d="M268.603 25.816L271.277 25.772C272.828 25.772 274.086 27.0104 274.086 28.5376C274.086 30.0654 272.828 31.3033 271.277 31.3033H270.201H268.636" fill="#A5BFC4"/>
<path d="M268.603 25.816L271.277 25.772C272.828 25.772 274.086 27.0104 274.086 28.5376C274.086 30.0654 272.828 31.3033 271.277 31.3033H270.201H268.636" stroke="black" stroke-width="0.879528"/>
<path fill-rule="evenodd" clip-rule="evenodd" d="M269.003 31.3038H262.511L262.773 25.8166L269.003 25.772" fill="white"/>
<path fill-rule="evenodd" clip-rule="evenodd" d="M267.506 39.5527V42.5859C267.506 44.5703 265.873 46.1792 263.858 46.1792C261.843 46.1792 260.209 44.5703 260.209 42.5859V41.2089V42.2905" fill="#A5BFC4"/>
<path d="M267.506 39.2793V42.4695C267.506 44.5183 265.82 46.179 263.74 46.179C261.659 46.179 259.973 44.5183 259.973 42.4695V40.1571" stroke="black" stroke-width="0.879528" stroke-linecap="round" stroke-linejoin="round"/>
<path fill-rule="evenodd" clip-rule="evenodd" d="M261.76 35.314C261.12 35.314 260.498 35.2426 259.912 35.0951C259.157 34.9051 258.7 34.147 258.893 33.4028C259.086 32.6587 259.854 32.2099 260.612 32.3996C262.243 32.8107 264.54 32.2312 266.197 30.9914C267.349 30.1286 268.022 29.0779 268.043 28.108C268.073 26.6693 263.818 24.7072 259.979 23.8462C259.218 23.6756 258.742 22.9306 258.915 22.1817C259.087 21.4325 259.842 20.9619 260.604 21.1334C262.334 21.5202 270.963 23.6756 270.867 28.1665C270.828 30.0168 269.776 31.807 267.906 33.2067C266.095 34.5615 263.835 35.314 261.76 35.314Z" fill="#FCE47E"/>
<path d="M261.76 35.314C261.12 35.314 260.498 35.2426 259.912 35.0951C259.157 34.9051 258.7 34.147 258.893 33.4028C259.086 32.6587 259.854 32.2098 260.612 32.3996C262.243 32.8107 264.54 32.2312 266.197 30.9914C267.349 30.1286 268.022 29.0779 268.043 28.108C268.073 26.6693 263.818 24.7072 259.979 23.8462C259.218 23.6756 258.742 22.9306 258.915 22.1817C259.087 21.4325 259.842 20.9619 260.604 21.1334C262.334 21.5202 270.963 23.6756 270.867 28.1665C270.828 30.0168 269.776 31.807 267.906 33.2067C266.095 34.5615 263.835 35.314 261.76 35.314Z" stroke="black" stroke-width="0.879528"/>
<path fill-rule="evenodd" clip-rule="evenodd" d="M257.564 44.8708C263.776 44.8708 268.86 39.8652 268.86 33.747V23.2575C268.86 17.1393 263.776 12.1338 257.564 12.1338C251.351 12.1338 246.269 17.1393 246.269 23.2575V33.747C246.269 39.8652 251.351 44.8708 257.564 44.8708Z" fill="#A5BFC4"/>
<mask id="mask1_326_3612" style="mask-type:alpha" maskUnits="userSpaceOnUse" x="256" y="30" width="10" height="15">
<path fill-rule="evenodd" clip-rule="evenodd" d="M265.976 41.1515C263.903 43.431 260.896 44.871 257.564 44.871C257.247 44.871 256.933 44.858 256.622 44.8324V30.1528H265.976V41.1515Z" fill="white"/>
</mask>
<g mask="url(#mask1_326_3612)">
<path fill-rule="evenodd" clip-rule="evenodd" d="M261.299 49.3004C263.881 49.3004 265.976 47.2385 265.976 44.695V34.7582C265.976 32.2147 263.881 30.1528 261.299 30.1528C258.716 30.1528 256.622 32.2147 256.622 34.7582V44.695C256.622 47.2385 258.716 49.3004 261.299 49.3004Z" fill="white" fill-opacity="0.24"/>
</g>
<mask id="mask2_326_3612" style="mask-type:alpha" maskUnits="userSpaceOnUse" x="246" y="24" width="23" height="21">
<path fill-rule="evenodd" clip-rule="evenodd" d="M246.298 24.4561V33.7474C246.298 39.8656 251.381 44.8711 257.594 44.8711C263.807 44.8711 268.89 39.8656 268.89 33.7474V24.4561H246.298Z" fill="white"/>
</mask>
<g mask="url(#mask2_326_3612)">
<path fill-rule="evenodd" clip-rule="evenodd" d="M246.545 34.3066C246.545 40.1414 251.349 44.8715 257.274 44.8715H258.837C264.762 44.8715 269.566 40.1414 269.566 34.3066H246.545Z" fill="#0BAF17"/>
<path fill-rule="evenodd" clip-rule="evenodd" d="M268.859 34.7856H245.86V24.4561L258.998 27.2773L260.831 31.6429C260.959 31.9481 261.398 31.9481 261.526 31.6425L263.36 27.2574L268.859 24.4561V34.7856Z" fill="white"/>
<path fill-rule="evenodd" clip-rule="evenodd" d="M257.148 34.3697H254.802V26.064L257.148 26.5429V34.3697Z" fill="#0BAF17"/>
<path fill-rule="evenodd" clip-rule="evenodd" d="M267.013 34.2755H264.667V26.5599L267.013 25.3848V34.2755Z" fill="#0BAF17"/>
</g>
<path d="M246.372 34.6636H268.777" stroke="black" stroke-width="0.879528"/>
<path opacity="0.42" fill-rule="evenodd" clip-rule="evenodd" d="M259.275 19.242C259.948 20.4081 259.534 21.8899 258.35 22.5529C257.59 22.9786 255.602 22.9405 254.276 22.8584C253.654 22.82 253.278 22.1676 253.562 21.6219C254.169 20.4582 255.153 18.7561 255.913 18.331C257.097 17.668 258.602 18.076 259.275 19.242Z" fill="white"/>
<path opacity="0.42" fill-rule="evenodd" clip-rule="evenodd" d="M262.737 19.4005C263.343 18.1997 264.824 17.7101 266.043 18.3073C266.826 18.6902 267.904 20.3356 268.575 21.4647C268.89 21.9936 268.551 22.6659 267.933 22.7382C266.613 22.8922 264.631 23.0392 263.848 22.6557C262.628 22.0585 262.131 20.6013 262.737 19.4005Z" fill="white"/>
<path fill-rule="evenodd" clip-rule="evenodd" d="M266.581 20.3581C266.581 20.9543 266.089 21.4379 265.484 21.4375C264.878 21.4375 264.387 20.9538 264.387 20.3571C264.388 19.7605 264.879 19.2773 265.485 19.2773C266.09 19.2778 266.581 19.7613 266.581 20.3581Z" fill="black"/>
<path fill-rule="evenodd" clip-rule="evenodd" d="M259.286 20.3581C259.286 20.9543 258.795 21.4379 258.189 21.4375C257.583 21.4375 257.092 20.9538 257.093 20.3571C257.093 19.7605 257.584 19.2773 258.19 19.2773C258.796 19.2778 259.286 19.7613 259.286 20.3581Z" fill="black"/>
<path d="M257.564 44.8712C263.776 44.8712 268.86 39.8657 268.86 33.7474V23.258C268.86 17.1398 263.776 12.1343 257.564 12.1343C251.351 12.1343 246.269 17.1398 246.269 23.258V33.7474C246.269 39.8657 251.351 44.8712 257.564 44.8712Z" stroke="black" stroke-width="0.879528"/>
<path fill-rule="evenodd" clip-rule="evenodd" d="M247.767 35.3145C247.127 35.3145 246.505 35.243 245.919 35.0956C245.163 34.9056 244.707 34.1475 244.9 33.4033C245.093 32.6592 245.861 32.2103 246.619 32.4C248.25 32.8112 250.547 32.2317 252.203 30.9919C253.356 30.1291 254.029 29.0784 254.05 28.1085C254.08 26.6698 249.824 24.7077 245.985 23.8467C245.225 23.6761 244.749 22.931 244.921 22.1822C245.094 21.433 245.849 20.9624 246.611 21.1339C248.341 21.5206 256.969 23.6761 256.874 28.167C256.835 30.0173 255.783 31.8074 253.912 33.2072C252.102 34.5619 249.842 35.3145 247.767 35.3145Z" fill="#FCE47E" stroke="black" stroke-width="0.879528"/>
<path fill-rule="evenodd" clip-rule="evenodd" d="M261.213 10.5628C260.665 8.96464 259.131 7.81299 257.322 7.81299C255.514 7.81299 253.981 8.96464 253.433 10.5628H261.213Z" fill="#1DCC70" stroke="black" stroke-width="0.879528"/>
<path fill-rule="evenodd" clip-rule="evenodd" d="M256.159 10.2175C255.775 10.2175 255.461 9.90828 255.461 9.53035V7.55526C255.461 7.17692 255.775 6.86768 256.159 6.86768C256.543 6.86768 256.857 7.17692 256.857 7.55526V9.53035C256.857 9.90828 256.543 10.2175 256.159 10.2175Z" fill="#FD4242"/>
<path fill-rule="evenodd" clip-rule="evenodd" d="M262.31 11.2864C262.31 12.2062 261.545 12.9587 260.611 12.9587H253.983C253.05 12.9587 252.285 12.2062 252.285 11.2864C252.285 10.8829 252.618 10.5557 253.027 10.5557H261.568C261.977 10.5557 262.31 10.8829 262.31 11.2864Z" fill="#0BAF17"/>
<path d="M262.31 11.2864C262.31 12.2062 261.545 12.9587 260.611 12.9587H253.983C253.05 12.9587 252.285 12.2062 252.285 11.2864C252.285 10.8829 252.618 10.5557 253.027 10.5557H261.568C261.977 10.5557 262.31 10.8829 262.31 11.2864Z" stroke="black" stroke-width="0.879528"/>
<path fill-rule="evenodd" clip-rule="evenodd" d="M256.605 42.5864C256.605 44.5708 254.971 46.1797 252.956 46.1797C250.942 46.1797 249.308 44.5708 249.308 42.5864" fill="#0BAF17"/>
<path fill-rule="evenodd" clip-rule="evenodd" d="M256.605 40.6299V42.5865C256.605 44.5709 254.971 46.1793 252.956 46.1793C250.942 46.1793 249.308 44.5709 249.308 42.5865V40.8506" fill="#0BAF17"/>
<path fill-rule="evenodd" clip-rule="evenodd" d="M256.605 42.5864C256.605 44.5708 254.971 46.1797 252.956 46.1797C250.942 46.1797 249.308 44.5708 249.308 42.5864" fill="#A5BFC4"/>
<path d="M255.403 29.4098L254.706 28.7231L252.731 26.7773L248.306 30.2425L251.432 33.3211C252.528 34.4014 254.307 34.4014 255.403 33.3211C256.501 32.2412 256.501 30.4901 255.403 29.4098Z" fill="white"/>
<path fill-rule="evenodd" clip-rule="evenodd" d="M254.706 28.7236L255.402 29.4103C256.5 30.4906 256.5 32.2417 255.402 33.3216C254.306 34.4019 252.528 34.4019 251.431 33.3216L250.67 32.5724" fill="#A5BFC4"/>
<path fill-rule="evenodd" clip-rule="evenodd" d="M274.207 46.1799C273.429 46.1799 272.795 45.5558 272.795 44.7889V18.8675C272.795 18.1001 273.429 17.4766 274.207 17.4766C274.986 17.4766 275.62 18.1001 275.62 18.8675V20.8946C275.807 20.8065 276.013 20.7601 276.227 20.7601C276.604 20.7601 276.959 20.9048 277.225 21.1677C277.492 21.4306 277.639 21.7797 277.639 22.1511C277.639 22.5229 277.492 22.872 277.225 23.1349L275.62 24.7159V44.7889C275.62 45.5558 274.986 46.1799 274.207 46.1799Z" fill="#FCE47E"/>
<path d="M274.207 46.1799C273.429 46.1799 272.795 45.5558 272.795 44.7889V18.8675C272.795 18.1001 273.429 17.4766 274.207 17.4766C274.986 17.4766 275.62 18.1001 275.62 18.8675V20.8946C275.807 20.8065 276.013 20.7601 276.227 20.7601C276.604 20.7601 276.959 20.9048 277.225 21.1677C277.492 21.4306 277.639 21.7797 277.639 22.1511C277.639 22.5229 277.492 22.872 277.225 23.1349L275.62 24.7159V44.7889C275.62 45.5558 274.986 46.1799 274.207 46.1799Z" stroke="black" stroke-width="0.879528"/>
<path fill-rule="evenodd" clip-rule="evenodd" d="M260.013 22.1816C260.752 21.8464 261.608 21.8464 262.347 22.1816C262.8 22.3875 262.896 22.9823 262.543 23.3301L261.693 24.1674C261.41 24.4465 260.95 24.4465 260.667 24.1674L259.817 23.3301C259.463 22.9823 259.56 22.3875 260.013 22.1816Z" fill="black"/>
<path fill-rule="evenodd" clip-rule="evenodd" d="M239.338 34.1756C237.435 34.1756 235.893 32.6567 235.893 30.7827V28.3587C235.893 26.4851 237.435 24.9658 239.338 24.9658C241.241 24.9658 242.783 26.4851 242.783 28.3587V30.7827C242.783 32.6567 241.241 34.1756 239.338 34.1756Z" fill="#FCE47E"/>
<path d="M239.338 34.1756C237.435 34.1756 235.893 32.6567 235.893 30.7827V28.3587C235.893 26.4851 237.435 24.9658 239.338 24.9658C241.241 24.9658 242.783 26.4851 242.783 28.3587V30.7827C242.783 32.6567 241.241 34.1756 239.338 34.1756Z" stroke="black" stroke-width="0.879528"/>
<path fill-rule="evenodd" clip-rule="evenodd" d="M243.968 19.7307C243.968 21.621 242.412 23.1533 240.492 23.1533C238.573 23.1533 237.017 21.621 237.017 19.7307C237.017 17.8404 238.573 16.3081 240.492 16.3081C242.412 16.3081 243.968 17.8404 243.968 19.7307Z" fill="#FD4242"/>
<path d="M243.968 19.7307C243.968 21.621 242.412 23.1533 240.492 23.1533C238.573 23.1533 237.017 21.621 237.017 19.7307C237.017 17.8404 238.573 16.3081 240.492 16.3081C242.412 16.3081 243.968 17.8404 243.968 19.7307Z" stroke="black" stroke-width="0.879528"/>
<path d="M248.305 30.2425L251.431 33.3211C252.527 34.4014 254.306 34.4014 255.402 33.3211C256.5 32.2412 256.5 30.4901 255.402 29.4098L254.705 28.7231L252.73 26.7773" stroke="black" stroke-width="0.879528" stroke-linecap="round"/>
<path fill-rule="evenodd" clip-rule="evenodd" d="M259.735 30.6562C259.466 31.0395 259.395 31.601 259.703 31.9558C259.846 32.1216 260.082 32.2268 260.294 32.1628C260.534 32.0908 260.664 31.8397 260.739 31.6047C260.899 31.1074 260.929 30.5806 260.958 30.06C260.959 30.4041 260.961 30.7529 261.049 31.0859C261.138 31.4189 261.324 31.7401 261.62 31.9229C261.916 32.1056 262.333 32.1185 262.6 31.8967C262.843 31.6954 262.918 31.3499 262.874 31.0406C262.817 30.6311 262.469 30.2507 262.118 30.0242C261.247 29.463 260.29 29.8682 259.735 30.6562Z" stroke="black" stroke-width="0.879528" stroke-linecap="round" stroke-linejoin="round"/>
<path d="M258.5 29.5477C260.129 29.6432 261.786 29.6053 263.393 29.436" stroke="black" stroke-width="0.879528" stroke-linecap="round" stroke-linejoin="round"/>
<path d="M235.893 28.5381H242.92" stroke="black" stroke-width="0.879528"/>
<path d="M256.842 40.1577V42.4703C256.842 44.519 255.155 46.1798 253.075 46.1798C250.995 46.1798 249.308 44.519 249.308 42.4703V40.1577" stroke="black" stroke-width="0.879528" stroke-linecap="round" stroke-linejoin="round"/>
<path d="M249.34 42.2256H256.81" stroke="black" stroke-width="0.879528"/>
<path d="M261.179 23.4209V25.4214" stroke="black" stroke-width="0.879528" stroke-linecap="round"/>
<path d="M259.459 25.0708C260.41 26.0065 261.95 26.0065 262.9 25.0708" stroke="black" stroke-width="0.879528" stroke-linecap="round"/>
<path d="M249.63 16.9127C248.339 15.6662 248.339 13.6256 249.63 12.379L249.862 12.155C250.281 11.7504 250.96 11.7504 251.379 12.155L253.797 14.4899" fill="#A5BFC4"/>
<path d="M249.63 16.9127C248.339 15.6662 248.339 13.6256 249.63 12.379L249.862 12.155C250.281 11.7504 250.96 11.7504 251.379 12.155L253.797 14.4899" stroke="black" stroke-width="0.879528" stroke-miterlimit="10" stroke-linecap="round"/>
</svg>
