<svg width="810" height="176" viewBox="0 0 810 176" fill="none" xmlns="http://www.w3.org/2000/svg">
<rect width="809.166" height="112.58" transform="translate(0 62.8931)" fill="#E5D1FF"/>
<path d="M634.026 141.351H635.823C635.787 141.941 635.625 142.464 635.336 142.921C635.052 143.378 634.653 143.734 634.14 143.991C633.631 144.247 633.018 144.376 632.3 144.376C631.739 144.376 631.236 144.279 630.791 144.087C630.346 143.891 629.965 143.61 629.649 143.245C629.336 142.881 629.098 142.44 628.933 141.923C628.769 141.405 628.687 140.826 628.687 140.185V139.578C628.687 138.936 628.771 138.357 628.939 137.84C629.112 137.319 629.356 136.876 629.673 136.511C629.993 136.147 630.376 135.866 630.821 135.67C631.266 135.473 631.763 135.375 632.312 135.375C633.042 135.375 633.657 135.507 634.158 135.772C634.663 136.036 635.054 136.401 635.33 136.866C635.611 137.331 635.779 137.86 635.835 138.453H634.032C634.012 138.101 633.942 137.802 633.821 137.558C633.701 137.309 633.519 137.123 633.274 136.998C633.034 136.87 632.713 136.806 632.312 136.806C632.012 136.806 631.749 136.862 631.525 136.974C631.3 137.087 631.112 137.257 630.959 137.485C630.807 137.714 630.693 138.002 630.617 138.351C630.545 138.696 630.508 139.101 630.508 139.566V140.185C630.508 140.638 630.543 141.037 630.611 141.381C630.679 141.722 630.783 142.011 630.923 142.247C631.068 142.48 631.252 142.656 631.476 142.776C631.705 142.893 631.98 142.951 632.3 142.951C632.677 142.951 632.988 142.891 633.232 142.77C633.477 142.65 633.663 142.472 633.791 142.235C633.924 141.999 634.002 141.704 634.026 141.351ZM638.727 135.02V144.255H636.99V135.02H638.727ZM643.153 144.376C642.648 144.376 642.195 144.295 641.794 144.135C641.393 143.971 641.052 143.744 640.772 143.456C640.495 143.167 640.283 142.832 640.134 142.452C639.986 142.067 639.912 141.658 639.912 141.225V140.985C639.912 140.492 639.982 140.041 640.122 139.632C640.263 139.223 640.463 138.868 640.724 138.568C640.988 138.267 641.309 138.037 641.686 137.876C642.062 137.712 642.487 137.63 642.96 137.63C643.421 137.63 643.83 137.706 644.187 137.858C644.543 138.01 644.842 138.227 645.083 138.508C645.327 138.788 645.511 139.125 645.636 139.518C645.76 139.906 645.822 140.339 645.822 140.816V141.538H640.651V140.383H644.121V140.251C644.121 140.011 644.076 139.796 643.988 139.608C643.904 139.415 643.776 139.263 643.603 139.151C643.431 139.039 643.211 138.982 642.942 138.982C642.714 138.982 642.517 139.033 642.353 139.133C642.189 139.233 642.054 139.373 641.95 139.554C641.85 139.734 641.774 139.946 641.722 140.191C641.674 140.431 641.649 140.696 641.649 140.985V141.225C641.649 141.486 641.686 141.726 641.758 141.947C641.834 142.167 641.94 142.357 642.076 142.518C642.217 142.678 642.385 142.802 642.581 142.891C642.782 142.979 643.008 143.023 643.261 143.023C643.573 143.023 643.864 142.963 644.133 142.842C644.405 142.718 644.64 142.532 644.836 142.283L645.678 143.197C645.541 143.394 645.355 143.582 645.119 143.762C644.886 143.943 644.606 144.091 644.277 144.207C643.948 144.32 643.573 144.376 643.153 144.376ZM650.319 142.788V139.89C650.319 139.682 650.285 139.504 650.217 139.355C650.149 139.203 650.043 139.085 649.898 139.001C649.758 138.916 649.576 138.874 649.351 138.874C649.159 138.874 648.993 138.908 648.852 138.976C648.712 139.041 648.604 139.135 648.528 139.259C648.451 139.379 648.413 139.522 648.413 139.686H646.682C646.682 139.409 646.746 139.147 646.874 138.898C647.003 138.65 647.189 138.431 647.433 138.243C647.678 138.051 647.968 137.9 648.305 137.792C648.646 137.684 649.027 137.63 649.448 137.63C649.953 137.63 650.402 137.714 650.794 137.882C651.187 138.051 651.496 138.303 651.72 138.64C651.949 138.976 652.063 139.397 652.063 139.902V142.686C652.063 143.043 652.085 143.335 652.129 143.564C652.173 143.788 652.237 143.985 652.321 144.153V144.255H650.572C650.488 144.079 650.424 143.859 650.379 143.594C650.339 143.325 650.319 143.057 650.319 142.788ZM650.548 140.293L650.56 141.273H649.592C649.363 141.273 649.165 141.299 648.997 141.351C648.828 141.403 648.69 141.478 648.582 141.574C648.474 141.666 648.393 141.774 648.341 141.899C648.293 142.023 648.269 142.159 648.269 142.307C648.269 142.456 648.303 142.59 648.371 142.71C648.439 142.826 648.538 142.919 648.666 142.987C648.794 143.051 648.945 143.083 649.117 143.083C649.377 143.083 649.604 143.031 649.796 142.927C649.989 142.822 650.137 142.694 650.241 142.542C650.349 142.39 650.406 142.245 650.41 142.109L650.866 142.842C650.802 143.007 650.714 143.177 650.602 143.354C650.494 143.53 650.355 143.696 650.187 143.853C650.019 144.005 649.816 144.131 649.58 144.231C649.343 144.328 649.063 144.376 648.738 144.376C648.325 144.376 647.95 144.293 647.614 144.129C647.281 143.961 647.017 143.73 646.82 143.438C646.628 143.141 646.532 142.804 646.532 142.428C646.532 142.087 646.596 141.784 646.724 141.52C646.852 141.255 647.041 141.033 647.289 140.852C647.542 140.668 647.856 140.53 648.233 140.437C648.61 140.341 649.047 140.293 649.544 140.293H650.548ZM655.093 139.139V144.255H653.362V137.75H654.985L655.093 139.139ZM654.841 140.774H654.372C654.372 140.293 654.434 139.86 654.558 139.476C654.682 139.087 654.857 138.756 655.081 138.483C655.306 138.207 655.572 137.996 655.881 137.852C656.193 137.704 656.542 137.63 656.927 137.63C657.232 137.63 657.51 137.674 657.763 137.762C658.015 137.85 658.232 137.99 658.412 138.183C658.596 138.375 658.737 138.63 658.833 138.946C658.933 139.263 658.983 139.65 658.983 140.107V144.255H657.24V140.101C657.24 139.812 657.2 139.588 657.119 139.427C657.039 139.267 656.921 139.155 656.765 139.091C656.612 139.023 656.424 138.989 656.199 138.989C655.967 138.989 655.765 139.035 655.592 139.127C655.424 139.219 655.284 139.347 655.171 139.512C655.063 139.672 654.981 139.86 654.925 140.077C654.869 140.293 654.841 140.526 654.841 140.774ZM668.549 141.351H670.347C670.311 141.941 670.148 142.464 669.86 142.921C669.575 143.378 669.176 143.734 668.663 143.991C668.154 144.247 667.541 144.376 666.823 144.376C666.262 144.376 665.759 144.279 665.314 144.087C664.869 143.891 664.489 143.61 664.172 143.245C663.859 142.881 663.621 142.44 663.456 141.923C663.292 141.405 663.21 140.826 663.21 140.185V139.578C663.21 138.936 663.294 138.357 663.462 137.84C663.635 137.319 663.879 136.876 664.196 136.511C664.517 136.147 664.899 135.866 665.344 135.67C665.789 135.473 666.286 135.375 666.835 135.375C667.565 135.375 668.18 135.507 668.681 135.772C669.186 136.036 669.577 136.401 669.854 136.866C670.134 137.331 670.303 137.86 670.359 138.453H668.555C668.535 138.101 668.465 137.802 668.345 137.558C668.224 137.309 668.042 137.123 667.797 136.998C667.557 136.87 667.236 136.806 666.835 136.806C666.535 136.806 666.272 136.862 666.048 136.974C665.823 137.087 665.635 137.257 665.483 137.485C665.33 137.714 665.216 138.002 665.14 138.351C665.068 138.696 665.032 139.101 665.032 139.566V140.185C665.032 140.638 665.066 141.037 665.134 141.381C665.202 141.722 665.306 142.011 665.447 142.247C665.591 142.48 665.775 142.656 666 142.776C666.228 142.893 666.503 142.951 666.823 142.951C667.2 142.951 667.511 142.891 667.755 142.77C668 142.65 668.186 142.472 668.314 142.235C668.447 141.999 668.525 141.704 668.549 141.351ZM671.146 141.069V140.943C671.146 140.466 671.214 140.027 671.351 139.626C671.487 139.221 671.685 138.87 671.946 138.574C672.206 138.277 672.527 138.047 672.908 137.882C673.289 137.714 673.726 137.63 674.219 137.63C674.712 137.63 675.151 137.714 675.535 137.882C675.92 138.047 676.243 138.277 676.503 138.574C676.768 138.87 676.968 139.221 677.105 139.626C677.241 140.027 677.309 140.466 677.309 140.943V141.069C677.309 141.542 677.241 141.981 677.105 142.386C676.968 142.786 676.768 143.137 676.503 143.438C676.243 143.734 675.922 143.965 675.541 144.129C675.161 144.293 674.724 144.376 674.231 144.376C673.738 144.376 673.299 144.293 672.914 144.129C672.533 143.965 672.21 143.734 671.946 143.438C671.685 143.137 671.487 142.786 671.351 142.386C671.214 141.981 671.146 141.542 671.146 141.069ZM672.878 140.943V141.069C672.878 141.341 672.902 141.596 672.95 141.832C672.998 142.069 673.074 142.277 673.178 142.458C673.287 142.634 673.427 142.772 673.599 142.873C673.772 142.973 673.982 143.023 674.231 143.023C674.471 143.023 674.678 142.973 674.85 142.873C675.022 142.772 675.161 142.634 675.265 142.458C675.369 142.277 675.445 142.069 675.493 141.832C675.545 141.596 675.571 141.341 675.571 141.069V140.943C675.571 140.678 675.545 140.429 675.493 140.197C675.445 139.961 675.367 139.752 675.259 139.572C675.155 139.387 675.016 139.243 674.844 139.139C674.672 139.035 674.463 138.982 674.219 138.982C673.974 138.982 673.766 139.035 673.593 139.139C673.425 139.243 673.287 139.387 673.178 139.572C673.074 139.752 672.998 139.961 672.95 140.197C672.902 140.429 672.878 140.678 672.878 140.943ZM682.215 142.836V135.02H683.959V144.255H682.389L682.215 142.836ZM678.103 141.081V140.955C678.103 140.458 678.159 140.007 678.271 139.602C678.383 139.193 678.548 138.842 678.764 138.55C678.98 138.257 679.247 138.031 679.564 137.87C679.88 137.71 680.241 137.63 680.646 137.63C681.027 137.63 681.359 137.71 681.644 137.87C681.933 138.031 682.177 138.259 682.377 138.556C682.582 138.848 682.746 139.195 682.87 139.596C682.995 139.993 683.085 140.427 683.141 140.9V141.177C683.085 141.63 682.995 142.051 682.87 142.44C682.746 142.828 682.582 143.169 682.377 143.462C682.177 143.75 681.933 143.975 681.644 144.135C681.355 144.295 681.019 144.376 680.634 144.376C680.229 144.376 679.868 144.293 679.552 144.129C679.239 143.965 678.974 143.734 678.758 143.438C678.546 143.141 678.383 142.792 678.271 142.392C678.159 141.991 678.103 141.554 678.103 141.081ZM679.834 140.955V141.081C679.834 141.349 679.854 141.6 679.894 141.832C679.938 142.065 680.009 142.271 680.105 142.452C680.205 142.628 680.333 142.766 680.49 142.867C680.65 142.963 680.844 143.011 681.073 143.011C681.369 143.011 681.614 142.945 681.806 142.812C681.999 142.676 682.145 142.49 682.245 142.253C682.349 142.017 682.41 141.744 682.426 141.436V140.648C682.414 140.395 682.377 140.169 682.317 139.969C682.261 139.764 682.177 139.59 682.065 139.445C681.957 139.301 681.82 139.189 681.656 139.109C681.496 139.029 681.305 138.989 681.085 138.989C680.86 138.989 680.668 139.041 680.508 139.145C680.347 139.245 680.217 139.383 680.117 139.56C680.021 139.736 679.948 139.944 679.9 140.185C679.856 140.421 679.834 140.678 679.834 140.955ZM688.306 144.376C687.801 144.376 687.348 144.295 686.947 144.135C686.546 143.971 686.205 143.744 685.925 143.456C685.648 143.167 685.436 142.832 685.287 142.452C685.139 142.067 685.065 141.658 685.065 141.225V140.985C685.065 140.492 685.135 140.041 685.275 139.632C685.416 139.223 685.616 138.868 685.877 138.568C686.141 138.267 686.462 138.037 686.839 137.876C687.215 137.712 687.64 137.63 688.113 137.63C688.574 137.63 688.983 137.706 689.34 137.858C689.697 138.01 689.995 138.227 690.236 138.508C690.48 138.788 690.665 139.125 690.789 139.518C690.913 139.906 690.975 140.339 690.975 140.816V141.538H685.805V140.383H689.274V140.251C689.274 140.011 689.23 139.796 689.141 139.608C689.057 139.415 688.929 139.263 688.757 139.151C688.584 139.039 688.364 138.982 688.095 138.982C687.867 138.982 687.67 139.033 687.506 139.133C687.342 139.233 687.207 139.373 687.103 139.554C687.003 139.734 686.927 139.946 686.875 140.191C686.827 140.431 686.803 140.696 686.803 140.985V141.225C686.803 141.486 686.839 141.726 686.911 141.947C686.987 142.167 687.093 142.357 687.229 142.518C687.37 142.678 687.538 142.802 687.735 142.891C687.935 142.979 688.161 143.023 688.414 143.023C688.727 143.023 689.017 142.963 689.286 142.842C689.558 142.718 689.793 142.532 689.989 142.283L690.831 143.197C690.695 143.394 690.508 143.582 690.272 143.762C690.039 143.943 689.759 144.091 689.43 144.207C689.101 144.32 688.727 144.376 688.306 144.376ZM693.693 139.169V144.255H691.961V137.75H693.591L693.693 139.169ZM695.653 137.708L695.623 139.313C695.539 139.301 695.436 139.291 695.316 139.283C695.2 139.271 695.094 139.265 694.997 139.265C694.753 139.265 694.541 139.297 694.36 139.361C694.184 139.421 694.036 139.512 693.915 139.632C693.799 139.752 693.711 139.898 693.651 140.071C693.595 140.243 693.563 140.44 693.555 140.66L693.206 140.552C693.206 140.131 693.248 139.744 693.332 139.391C693.416 139.035 693.538 138.724 693.699 138.459C693.863 138.195 694.064 137.99 694.3 137.846C694.537 137.702 694.807 137.63 695.112 137.63C695.208 137.63 695.306 137.638 695.406 137.654C695.507 137.666 695.589 137.684 695.653 137.708Z" fill="#1C1B1F"/>
<path d="M636.855 71.2204H647.246C649.158 71.2204 650.497 71.0389 650.497 72.9662V69.4747C650.497 67.5473 649.158 65.9831 647.246 65.9831H633.391C629.927 65.9831 627.186 69.6929 628.195 74.712C628.195 74.712 631.297 91.0787 631.515 92.0965C632.092 94.7884 635.194 97.4071 638.514 97.4071H650.564C652.478 97.4071 650.497 94.0971 650.497 92.1698V88.6782C650.497 90.6056 649.158 92.1698 647.246 92.1698H640.318C638.406 92.1698 637.144 90.3507 636.855 88.6782C636.565 87.0058 634.111 75.8764 634.111 75.8764C633.535 72.5298 634.941 71.2204 636.855 71.2204ZM681.558 71.2204H671.167C669.255 71.2204 666.084 71.0389 666.084 72.9662V69.4747C666.084 67.5473 669.255 65.9831 671.167 65.9831H685.022C688.486 65.9831 691.229 69.6929 690.217 74.712C690.217 74.712 687.389 91.1555 687.15 92.1698C686.537 94.7884 683.614 97.4071 680.223 97.4071H667.847C665.935 97.4071 666.084 94.0971 666.084 92.1698V88.6782C666.084 90.6056 669.255 92.1698 671.167 92.1698H678.094C680.006 92.1698 681.271 90.3507 681.558 88.6782C681.846 87.0058 684.301 75.8764 684.301 75.8764C684.876 72.5298 683.472 71.2204 681.558 71.2204ZM664.061 100.899C664.061 88.7515 659.369 100.899 659.369 100.899C659.369 100.899 654.174 88.7515 654.174 100.899C654.174 113.046 648.474 118.356 648.474 118.356H669.762C669.762 118.356 664.061 113.046 664.061 100.899Z" fill="#82ACF5"/>
<path d="M674.743 120.102C674.743 122.03 675.136 123.594 673.224 123.594H645.514C643.6 123.594 643.569 122.03 643.569 120.102V118.356C643.569 116.429 645.585 114.865 647.39 114.865H671.492C673.297 114.865 674.743 116.429 674.743 118.356V120.102Z" fill="#828282"/>
<path d="M678.207 122.939C678.207 124.266 678.493 125.34 676.039 125.34H642.7C640.462 125.34 640.105 124.266 640.105 122.939V122.503C640.105 121.176 641.384 120.102 642.7 120.102H676.039C677.353 120.102 678.207 121.176 678.207 122.503V122.939Z" fill="#828282"/>
<path fill-rule="evenodd" clip-rule="evenodd" d="M659.369 105.733C666.695 105.733 678.42 85.8012 678.42 73.9735C678.42 64.0872 676.544 62.8913 671.492 62.8931L659.369 62.8948C657.504 62.8948 654.262 62.9088 651.312 62.9216C648.852 62.9322 646.596 62.942 645.514 62.942C642.05 62.942 640.318 64.9042 640.318 73.9735C640.318 85.8012 652.042 105.733 659.369 105.733Z" fill="#2D9CDB"/>
<circle cx="150.739" cy="108.968" r="24.0864" fill="#696767"/>
<path d="M141.958 110.222L146.976 115.24L159.521 102.695" stroke="white" stroke-width="3.0108" stroke-linecap="round" stroke-linejoin="round"/>
<rect x="174.825" y="107.462" width="55.6998" height="3.0108" fill="#696767"/>
<circle cx="254.612" cy="108.968" r="24.0864" fill="#696767"/>
<path d="M245.831 110.222L250.849 115.24L263.394 102.695" stroke="white" stroke-width="3.0108" stroke-linecap="round" stroke-linejoin="round"/>
<rect x="278.697" y="107.462" width="55.6998" height="3.0108" fill="#696767"/>
<circle cx="358.484" cy="108.968" r="24.0864" fill="#696767"/>
<path d="M349.703 110.222L354.721 115.24L367.266 102.695" stroke="white" stroke-width="3.0108" stroke-linecap="round" stroke-linejoin="round"/>
<rect x="382.57" y="107.462" width="55.6998" height="3.0108" fill="#696767"/>
<circle cx="462.356" cy="108.968" r="24.0864" fill="#696767"/>
<path d="M453.575 110.222L458.593 115.24L471.138 102.695" stroke="white" stroke-width="3.0108" stroke-linecap="round" stroke-linejoin="round"/>
<rect x="486.442" y="107.462" width="55.6998" height="3.0108" fill="#696767"/>
<circle cx="566.229" cy="108.968" r="24.0864" fill="#696767"/>
<path d="M557.448 110.222L562.466 115.24L575.011 102.695" stroke="white" stroke-width="3.0108" stroke-linecap="round" stroke-linejoin="round"/>
<g clip-path="url(#clip0_326_3616)">
<path opacity="0.6" d="M660.131 48.3741C667.077 48.3741 672.707 47.7747 672.707 47.0352C672.707 46.2957 667.077 45.6963 660.131 45.6963C653.185 45.6963 647.555 46.2957 647.555 47.0352C647.555 47.7747 653.185 48.3741 660.131 48.3741Z" fill="#40A45D"/>
<path d="M667.286 16.9127C668.577 15.6662 668.577 13.6256 667.286 12.379L667.054 12.155C666.635 11.7504 665.956 11.7504 665.537 12.155L663.119 14.4899" fill="#A5BFC4"/>
<path d="M667.286 16.9127C668.577 15.6662 668.577 13.6256 667.286 12.379L667.054 12.155C666.635 11.7504 665.956 11.7504 665.537 12.155L663.119 14.4899" stroke="black" stroke-width="0.879528" stroke-miterlimit="10" stroke-linecap="round"/>
<path fill-rule="evenodd" clip-rule="evenodd" d="M645.599 37.818C642.701 37.818 640.33 35.4826 640.33 32.6289V24.4669C640.33 21.6127 642.701 19.2778 645.599 19.2778C648.497 19.2778 650.869 21.6127 650.869 24.4669V32.6289C650.869 35.4826 648.497 37.818 645.599 37.818Z" fill="#FCE47E"/>
<path d="M645.599 37.818C642.701 37.818 640.33 35.4826 640.33 32.6289V24.4669C640.33 21.6127 642.701 19.2778 645.599 19.2778C648.497 19.2778 650.869 21.6127 650.869 24.4669V32.6289C650.869 35.4826 648.497 37.818 645.599 37.818Z" stroke="black" stroke-width="0.879528"/>
<path fill-rule="evenodd" clip-rule="evenodd" d="M647.129 37.8179C644.266 37.8179 641.689 39.0248 639.893 40.9493C641.689 42.8735 644.266 44.0804 647.129 44.0804C649.993 44.0804 652.57 42.8735 654.366 40.9493C652.57 39.0248 649.993 37.8179 647.129 37.8179Z" fill="#A5BFC4"/>
<mask id="mask0_326_3616" style="mask-type:alpha" maskUnits="userSpaceOnUse" x="639" y="37" width="12" height="8">
<path fill-rule="evenodd" clip-rule="evenodd" d="M650.997 43.3301C649.829 43.8129 648.545 44.0798 647.199 44.0798C644.335 44.0798 641.758 42.8729 639.962 40.9488C641.758 39.0237 644.335 37.8174 647.199 37.8174C648.545 37.8174 649.829 38.0841 650.997 38.5669V43.3301Z" fill="white"/>
</mask>
<g mask="url(#mask0_326_3616)">
<path fill-rule="evenodd" clip-rule="evenodd" d="M637.171 45.7002H642.17V34.7388H637.171V45.7002Z" fill="#6C888C"/>
<path fill-rule="evenodd" clip-rule="evenodd" d="M643.905 45.5113H646.49V34.5503H643.905V45.5113Z" fill="#6C888C"/>
<path fill-rule="evenodd" clip-rule="evenodd" d="M648.412 45.5113H650.997V34.5503H648.412V45.5113Z" fill="#6C888C"/>
</g>
<path d="M655.081 40.9489L655.389 41.2666L655.726 40.9489L655.389 40.6313L655.081 40.9489ZM647.175 37.3779C644.633 37.3779 642.207 38.1585 640.163 39.6349L640.691 40.3441C642.582 38.9788 644.822 38.2575 647.175 38.2575V37.3779ZM640.163 39.6349C639.736 39.9439 639.49 40.4259 639.49 40.9489H640.383C640.383 40.7033 640.495 40.486 640.691 40.3441L640.163 39.6349ZM639.49 40.9489C639.49 41.4721 639.736 41.9534 640.163 42.2623L640.692 41.5533C640.496 41.4114 640.383 41.1942 640.383 40.9489H639.49ZM640.163 42.2623C642.207 43.7387 644.633 44.52 647.175 44.52V43.6404C644.822 43.6404 642.582 42.9187 640.692 41.5533L640.163 42.2623ZM647.175 44.52C650.236 44.52 653.188 43.3424 655.389 41.2666L654.772 40.6313C652.735 42.5514 650.004 43.6404 647.175 43.6404V44.52ZM655.389 40.6313C653.188 38.5554 650.236 37.3779 647.175 37.3779V38.2575C650.004 38.2575 652.735 39.3464 654.772 41.2666L655.389 40.6313Z" fill="black"/>
<path fill-rule="evenodd" clip-rule="evenodd" d="M670.747 25.816L673.422 25.772C674.973 25.772 676.23 27.0104 676.23 28.5376C676.23 30.0654 674.973 31.3033 673.422 31.3033H672.345H670.781" fill="#A5BFC4"/>
<path d="M670.747 25.816L673.422 25.772C674.973 25.772 676.23 27.0104 676.23 28.5376C676.23 30.0654 674.973 31.3033 673.422 31.3033H672.345H670.781" stroke="black" stroke-width="0.879528"/>
<path fill-rule="evenodd" clip-rule="evenodd" d="M671.147 31.3038H664.655L664.917 25.8166L671.147 25.772" fill="white"/>
<path fill-rule="evenodd" clip-rule="evenodd" d="M669.651 39.5527V42.5859C669.651 44.5703 668.018 46.1792 666.003 46.1792C663.988 46.1792 662.354 44.5703 662.354 42.5859V41.2089V42.2905" fill="#A5BFC4"/>
<path d="M669.651 39.2793V42.4695C669.651 44.5183 667.964 46.179 665.884 46.179C663.804 46.179 662.117 44.5183 662.117 42.4695V40.1571" stroke="black" stroke-width="0.879528" stroke-linecap="round" stroke-linejoin="round"/>
<path fill-rule="evenodd" clip-rule="evenodd" d="M663.904 35.314C663.264 35.314 662.642 35.2426 662.056 35.0951C661.301 34.9051 660.844 34.147 661.037 33.4028C661.23 32.6587 661.998 32.2099 662.756 32.3996C664.387 32.8107 666.684 32.2312 668.341 30.9914C669.493 30.1286 670.166 29.0779 670.187 28.108C670.217 26.6693 665.962 24.7072 662.123 23.8462C661.362 23.6756 660.886 22.9306 661.059 22.1817C661.231 21.4325 661.986 20.9619 662.748 21.1334C664.479 21.5202 673.107 23.6756 673.011 28.1665C672.972 30.0168 671.92 31.807 670.05 33.2067C668.239 34.5615 665.979 35.314 663.904 35.314Z" fill="#FCE47E"/>
<path d="M663.904 35.314C663.264 35.314 662.642 35.2426 662.056 35.0951C661.301 34.9051 660.844 34.147 661.037 33.4028C661.23 32.6587 661.998 32.2098 662.756 32.3996C664.387 32.8107 666.684 32.2312 668.341 30.9914C669.493 30.1286 670.166 29.0779 670.187 28.108C670.217 26.6693 665.962 24.7072 662.123 23.8462C661.362 23.6756 660.886 22.9306 661.059 22.1817C661.231 21.4325 661.986 20.9619 662.748 21.1334C664.479 21.5202 673.107 23.6756 673.011 28.1665C672.972 30.0168 671.92 31.807 670.05 33.2067C668.239 34.5615 665.979 35.314 663.904 35.314Z" stroke="black" stroke-width="0.879528"/>
<path fill-rule="evenodd" clip-rule="evenodd" d="M659.709 44.8708C665.921 44.8708 671.004 39.8652 671.004 33.747V23.2575C671.004 17.1393 665.921 12.1338 659.709 12.1338C653.496 12.1338 648.413 17.1393 648.413 23.2575V33.747C648.413 39.8652 653.496 44.8708 659.709 44.8708Z" fill="#A5BFC4"/>
<mask id="mask1_326_3616" style="mask-type:alpha" maskUnits="userSpaceOnUse" x="658" y="30" width="11" height="15">
<path fill-rule="evenodd" clip-rule="evenodd" d="M668.12 41.1515C666.048 43.431 663.041 44.871 659.708 44.871C659.391 44.871 659.077 44.858 658.767 44.8324V30.1528H668.12V41.1515Z" fill="white"/>
</mask>
<g mask="url(#mask1_326_3616)">
<path fill-rule="evenodd" clip-rule="evenodd" d="M663.444 49.3004C666.026 49.3004 668.12 47.2385 668.12 44.695V34.7582C668.12 32.2147 666.026 30.1528 663.444 30.1528C660.861 30.1528 658.767 32.2147 658.767 34.7582V44.695C658.767 47.2385 660.861 49.3004 663.444 49.3004Z" fill="white" fill-opacity="0.24"/>
</g>
<mask id="mask2_326_3616" style="mask-type:alpha" maskUnits="userSpaceOnUse" x="648" y="24" width="24" height="21">
<path fill-rule="evenodd" clip-rule="evenodd" d="M648.442 24.4561V33.7474C648.442 39.8656 653.525 44.8711 659.738 44.8711C665.951 44.8711 671.034 39.8656 671.034 33.7474V24.4561H648.442Z" fill="white"/>
</mask>
<g mask="url(#mask2_326_3616)">
<path fill-rule="evenodd" clip-rule="evenodd" d="M648.69 34.3066C648.69 40.1414 653.494 44.8715 659.419 44.8715H660.982C666.907 44.8715 671.711 40.1414 671.711 34.3066H648.69Z" fill="#0BAF17"/>
<path fill-rule="evenodd" clip-rule="evenodd" d="M671.004 34.7856H648.005V24.4561L661.143 27.2773L662.975 31.6429C663.104 31.9481 663.543 31.9481 663.671 31.6425L665.504 27.2574L671.004 24.4561V34.7856Z" fill="white"/>
<path fill-rule="evenodd" clip-rule="evenodd" d="M659.293 34.3697H656.947V26.064L659.293 26.5429V34.3697Z" fill="#0BAF17"/>
<path fill-rule="evenodd" clip-rule="evenodd" d="M669.158 34.2755H666.812V26.5599L669.158 25.3848V34.2755Z" fill="#0BAF17"/>
</g>
<path d="M648.517 34.6636H670.922" stroke="black" stroke-width="0.879528"/>
<path opacity="0.42" fill-rule="evenodd" clip-rule="evenodd" d="M661.42 19.242C662.093 20.4081 661.678 21.8899 660.495 22.5529C659.735 22.9786 657.746 22.9405 656.421 22.8584C655.799 22.82 655.422 22.1676 655.707 21.6219C656.314 20.4582 657.298 18.7561 658.058 18.331C659.242 17.668 660.747 18.076 661.42 19.242Z" fill="white"/>
<path opacity="0.42" fill-rule="evenodd" clip-rule="evenodd" d="M664.881 19.4005C665.487 18.1997 666.968 17.7101 668.187 18.3073C668.97 18.6902 670.048 20.3356 670.719 21.4647C671.034 21.9936 670.695 22.6659 670.077 22.7382C668.757 22.8922 666.775 23.0392 665.992 22.6557C664.772 22.0585 664.275 20.6013 664.881 19.4005Z" fill="white"/>
<path fill-rule="evenodd" clip-rule="evenodd" d="M668.726 20.3581C668.726 20.9543 668.234 21.4379 667.629 21.4375C667.023 21.4375 666.532 20.9538 666.532 20.3571C666.533 19.7605 667.024 19.2773 667.63 19.2773C668.235 19.2778 668.726 19.7613 668.726 20.3581Z" fill="black"/>
<path fill-rule="evenodd" clip-rule="evenodd" d="M661.431 20.3581C661.43 20.9543 660.939 21.4379 660.333 21.4375C659.728 21.4375 659.237 20.9538 659.237 20.3571C659.237 19.7605 659.729 19.2773 660.334 19.2773C660.94 19.2778 661.431 19.7613 661.431 20.3581Z" fill="black"/>
<path d="M659.709 44.8712C665.921 44.8712 671.004 39.8657 671.004 33.7474V23.258C671.004 17.1398 665.921 12.1343 659.709 12.1343C653.496 12.1343 648.413 17.1398 648.413 23.258V33.7474C648.413 39.8657 653.496 44.8712 659.709 44.8712Z" stroke="black" stroke-width="0.879528"/>
<path fill-rule="evenodd" clip-rule="evenodd" d="M649.912 35.3145C649.272 35.3145 648.65 35.243 648.064 35.0956C647.308 34.9056 646.852 34.1475 647.045 33.4033C647.238 32.6592 648.006 32.2103 648.764 32.4C650.395 32.8112 652.692 32.2317 654.348 30.9919C655.501 30.1291 656.174 29.0784 656.195 28.1085C656.225 26.6698 651.969 24.7077 648.13 23.8467C647.37 23.6761 646.894 22.931 647.066 22.1822C647.239 21.433 647.994 20.9624 648.756 21.1339C650.486 21.5206 659.114 23.6761 659.019 28.167C658.98 30.0173 657.928 31.8074 656.057 33.2072C654.247 34.5619 651.987 35.3145 649.912 35.3145Z" fill="#FCE47E" stroke="black" stroke-width="0.879528"/>
<path fill-rule="evenodd" clip-rule="evenodd" d="M663.358 10.5628C662.809 8.96464 661.275 7.81299 659.467 7.81299C657.659 7.81299 656.125 8.96464 655.577 10.5628H663.358Z" fill="#1DCC70" stroke="black" stroke-width="0.879528"/>
<path fill-rule="evenodd" clip-rule="evenodd" d="M658.304 10.2175C657.92 10.2175 657.606 9.90828 657.606 9.53035V7.55526C657.606 7.17692 657.92 6.86768 658.304 6.86768C658.688 6.86768 659.002 7.17692 659.002 7.55526V9.53035C659.002 9.90828 658.688 10.2175 658.304 10.2175Z" fill="#FD4242"/>
<path fill-rule="evenodd" clip-rule="evenodd" d="M664.454 11.2864C664.454 12.2062 663.69 12.9587 662.756 12.9587H656.128C655.194 12.9587 654.43 12.2062 654.43 11.2864C654.43 10.8829 654.762 10.5557 655.172 10.5557H663.712C664.122 10.5557 664.454 10.8829 664.454 11.2864Z" fill="#0BAF17"/>
<path d="M664.454 11.2864C664.454 12.2062 663.69 12.9587 662.756 12.9587H656.128C655.194 12.9587 654.43 12.2062 654.43 11.2864C654.43 10.8829 654.762 10.5557 655.172 10.5557H663.712C664.122 10.5557 664.454 10.8829 664.454 11.2864Z" stroke="black" stroke-width="0.879528"/>
<path fill-rule="evenodd" clip-rule="evenodd" d="M658.75 42.5864C658.75 44.5708 657.116 46.1797 655.101 46.1797C653.087 46.1797 651.453 44.5708 651.453 42.5864" fill="#0BAF17"/>
<path fill-rule="evenodd" clip-rule="evenodd" d="M658.75 40.6299V42.5865C658.75 44.5709 657.116 46.1793 655.101 46.1793C653.087 46.1793 651.453 44.5709 651.453 42.5865V40.8506" fill="#0BAF17"/>
<path fill-rule="evenodd" clip-rule="evenodd" d="M658.75 42.5864C658.75 44.5708 657.116 46.1797 655.101 46.1797C653.087 46.1797 651.453 44.5708 651.453 42.5864" fill="#A5BFC4"/>
<path d="M657.548 29.4098L656.851 28.7231L654.875 26.7773L650.45 30.2425L653.576 33.3211C654.673 34.4014 656.451 34.4014 657.548 33.3211C658.645 32.2412 658.645 30.4901 657.548 29.4098Z" fill="white"/>
<path fill-rule="evenodd" clip-rule="evenodd" d="M656.85 28.7236L657.547 29.4103C658.644 30.4906 658.644 32.2417 657.547 33.3216C656.451 34.4019 654.672 34.4019 653.576 33.3216L652.814 32.5724" fill="#A5BFC4"/>
<path fill-rule="evenodd" clip-rule="evenodd" d="M676.352 46.1799C675.573 46.1799 674.939 45.5558 674.939 44.7889V18.8675C674.939 18.1001 675.573 17.4766 676.352 17.4766C677.131 17.4766 677.764 18.1001 677.764 18.8675V20.8946C677.951 20.8065 678.158 20.7601 678.371 20.7601C678.748 20.7601 679.103 20.9048 679.37 21.1677C679.637 21.4306 679.784 21.7797 679.784 22.1511C679.784 22.5229 679.637 22.872 679.37 23.1349L677.764 24.7159V44.7889C677.764 45.5558 677.131 46.1799 676.352 46.1799Z" fill="#FCE47E"/>
<path d="M676.352 46.1799C675.573 46.1799 674.939 45.5558 674.939 44.7889V18.8675C674.939 18.1001 675.573 17.4766 676.352 17.4766C677.131 17.4766 677.764 18.1001 677.764 18.8675V20.8946C677.951 20.8065 678.158 20.7601 678.371 20.7601C678.748 20.7601 679.103 20.9048 679.37 21.1677C679.637 21.4306 679.784 21.7797 679.784 22.1511C679.784 22.5229 679.637 22.872 679.37 23.1349L677.764 24.7159V44.7889C677.764 45.5558 677.131 46.1799 676.352 46.1799Z" stroke="black" stroke-width="0.879528"/>
<path fill-rule="evenodd" clip-rule="evenodd" d="M662.158 22.1816C662.896 21.8464 663.753 21.8464 664.491 22.1816C664.945 22.3875 665.041 22.9823 664.688 23.3301L663.837 24.1674C663.554 24.4465 663.095 24.4465 662.812 24.1674L661.961 23.3301C661.608 22.9823 661.704 22.3875 662.158 22.1816Z" fill="black"/>
<path fill-rule="evenodd" clip-rule="evenodd" d="M641.483 34.1756C639.58 34.1756 638.038 32.6567 638.038 30.7827V28.3587C638.038 26.4851 639.58 24.9658 641.483 24.9658C643.386 24.9658 644.928 26.4851 644.928 28.3587V30.7827C644.928 32.6567 643.386 34.1756 641.483 34.1756Z" fill="#FCE47E"/>
<path d="M641.483 34.1756C639.58 34.1756 638.038 32.6567 638.038 30.7827V28.3587C638.038 26.4851 639.58 24.9658 641.483 24.9658C643.386 24.9658 644.928 26.4851 644.928 28.3587V30.7827C644.928 32.6567 643.386 34.1756 641.483 34.1756Z" stroke="black" stroke-width="0.879528"/>
<path fill-rule="evenodd" clip-rule="evenodd" d="M646.112 19.7307C646.112 21.621 644.556 23.1533 642.637 23.1533C640.717 23.1533 639.161 21.621 639.161 19.7307C639.161 17.8404 640.717 16.3081 642.637 16.3081C644.556 16.3081 646.112 17.8404 646.112 19.7307Z" fill="#FD4242"/>
<path d="M646.112 19.7307C646.112 21.621 644.556 23.1533 642.637 23.1533C640.717 23.1533 639.161 21.621 639.161 19.7307C639.161 17.8404 640.717 16.3081 642.637 16.3081C644.556 16.3081 646.112 17.8404 646.112 19.7307Z" stroke="black" stroke-width="0.879528"/>
<path d="M650.449 30.2425L653.575 33.3211C654.672 34.4014 656.45 34.4014 657.547 33.3211C658.644 32.2412 658.644 30.4901 657.547 29.4098L656.85 28.7231L654.874 26.7773" stroke="black" stroke-width="0.879528" stroke-linecap="round"/>
<path fill-rule="evenodd" clip-rule="evenodd" d="M661.88 30.6562C661.61 31.0395 661.54 31.601 661.847 31.9558C661.991 32.1216 662.227 32.2268 662.439 32.1628C662.678 32.0908 662.809 31.8397 662.884 31.6047C663.043 31.1074 663.073 30.5806 663.102 30.06C663.104 30.4041 663.106 30.7529 663.194 31.0859C663.282 31.4189 663.468 31.7401 663.765 31.9229C664.061 32.1056 664.477 32.1185 664.745 31.8967C664.988 31.6954 665.062 31.3499 665.019 31.0406C664.961 30.6311 664.613 30.2507 664.262 30.0242C663.391 29.463 662.434 29.8682 661.88 30.6562Z" stroke="black" stroke-width="0.879528" stroke-linecap="round" stroke-linejoin="round"/>
<path d="M660.644 29.5477C662.273 29.6432 663.93 29.6053 665.537 29.436" stroke="black" stroke-width="0.879528" stroke-linecap="round" stroke-linejoin="round"/>
<path d="M638.038 28.5381H645.065" stroke="black" stroke-width="0.879528"/>
<path d="M658.987 40.1577V42.4703C658.987 44.519 657.3 46.1798 655.22 46.1798C653.14 46.1798 651.453 44.519 651.453 42.4703V40.1577" stroke="black" stroke-width="0.879528" stroke-linecap="round" stroke-linejoin="round"/>
<path d="M651.484 42.2256H658.954" stroke="black" stroke-width="0.879528"/>
<path d="M663.324 23.4209V25.4214" stroke="black" stroke-width="0.879528" stroke-linecap="round"/>
<path d="M661.604 25.0708C662.554 26.0065 664.094 26.0065 665.044 25.0708" stroke="black" stroke-width="0.879528" stroke-linecap="round"/>
<path d="M651.774 16.9127C650.483 15.6662 650.483 13.6256 651.774 12.379L652.006 12.155C652.425 11.7504 653.104 11.7504 653.523 12.155L655.941 14.4899" fill="#A5BFC4"/>
<path d="M651.774 16.9127C650.483 15.6662 650.483 13.6256 651.774 12.379L652.006 12.155C652.425 11.7504 653.104 11.7504 653.523 12.155L655.941 14.4899" stroke="black" stroke-width="0.879528" stroke-miterlimit="10" stroke-linecap="round"/>
</g>
<defs>
<clipPath id="clip0_326_3616">
<rect width="44.656" height="49.2536" fill="white" transform="translate(637.145)"/>
</clipPath>
</defs>
</svg>
