<svg width="811" height="162" viewBox="0 0 811 162" fill="none" xmlns="http://www.w3.org/2000/svg">
<rect width="809.166" height="112.58" transform="translate(0.855469 48.8931)" fill="#E5D1FF"/>
<path d="M634.881 127.351H636.679C636.643 127.941 636.481 128.464 636.192 128.921C635.907 129.378 635.508 129.734 634.995 129.991C634.486 130.247 633.873 130.376 633.156 130.376C632.594 130.376 632.091 130.279 631.647 130.087C631.202 129.891 630.821 129.61 630.504 129.245C630.192 128.881 629.953 128.44 629.789 127.923C629.624 127.405 629.542 126.826 629.542 126.185V125.578C629.542 124.936 629.626 124.357 629.795 123.84C629.967 123.319 630.212 122.876 630.528 122.511C630.849 122.147 631.232 121.866 631.677 121.67C632.122 121.473 632.619 121.375 633.168 121.375C633.897 121.375 634.512 121.507 635.013 121.772C635.519 122.036 635.909 122.401 636.186 122.866C636.466 123.331 636.635 123.86 636.691 124.453H634.887C634.867 124.101 634.797 123.802 634.677 123.558C634.557 123.309 634.374 123.123 634.13 122.998C633.889 122.87 633.568 122.806 633.168 122.806C632.867 122.806 632.605 122.862 632.38 122.974C632.156 123.087 631.967 123.257 631.815 123.485C631.663 123.714 631.548 124.002 631.472 124.351C631.4 124.696 631.364 125.101 631.364 125.566V126.185C631.364 126.638 631.398 127.037 631.466 127.381C631.534 127.722 631.639 128.011 631.779 128.247C631.923 128.48 632.107 128.656 632.332 128.776C632.56 128.893 632.835 128.951 633.156 128.951C633.532 128.951 633.843 128.891 634.088 128.77C634.332 128.65 634.518 128.472 634.647 128.235C634.779 127.999 634.857 127.704 634.881 127.351ZM639.583 121.02V130.255H637.845V121.02H639.583ZM644.008 130.376C643.503 130.376 643.05 130.295 642.649 130.135C642.248 129.971 641.908 129.744 641.627 129.456C641.351 129.167 641.138 128.832 640.99 128.452C640.841 128.067 640.767 127.658 640.767 127.225V126.985C640.767 126.492 640.837 126.041 640.978 125.632C641.118 125.223 641.318 124.868 641.579 124.568C641.844 124.267 642.164 124.037 642.541 123.876C642.918 123.712 643.343 123.63 643.816 123.63C644.277 123.63 644.685 123.706 645.042 123.858C645.399 124.01 645.698 124.227 645.938 124.508C646.183 124.788 646.367 125.125 646.491 125.518C646.615 125.906 646.678 126.339 646.678 126.816V127.538H641.507V126.383H644.976V126.251C644.976 126.011 644.932 125.796 644.844 125.608C644.76 125.415 644.631 125.263 644.459 125.151C644.287 125.039 644.066 124.982 643.798 124.982C643.569 124.982 643.373 125.033 643.208 125.133C643.044 125.233 642.91 125.373 642.806 125.554C642.705 125.734 642.629 125.946 642.577 126.191C642.529 126.431 642.505 126.696 642.505 126.985V127.225C642.505 127.486 642.541 127.726 642.613 127.947C642.689 128.167 642.796 128.357 642.932 128.518C643.072 128.678 643.24 128.802 643.437 128.891C643.637 128.979 643.864 129.023 644.116 129.023C644.429 129.023 644.719 128.963 644.988 128.842C645.261 128.718 645.495 128.532 645.691 128.283L646.533 129.197C646.397 129.394 646.211 129.582 645.974 129.762C645.742 129.943 645.461 130.091 645.132 130.207C644.804 130.32 644.429 130.376 644.008 130.376ZM651.175 128.788V125.89C651.175 125.682 651.141 125.504 651.073 125.355C651.004 125.203 650.898 125.085 650.754 125.001C650.614 124.916 650.431 124.874 650.207 124.874C650.014 124.874 649.848 124.908 649.708 124.976C649.567 125.041 649.459 125.135 649.383 125.259C649.307 125.379 649.269 125.522 649.269 125.686H647.537C647.537 125.409 647.601 125.147 647.73 124.898C647.858 124.65 648.044 124.431 648.289 124.243C648.533 124.051 648.824 123.9 649.161 123.792C649.501 123.684 649.882 123.63 650.303 123.63C650.808 123.63 651.257 123.714 651.65 123.882C652.043 124.051 652.351 124.303 652.576 124.64C652.804 124.976 652.918 125.397 652.918 125.902V128.686C652.918 129.043 652.94 129.335 652.985 129.564C653.029 129.788 653.093 129.985 653.177 130.153V130.255H651.427C651.343 130.079 651.279 129.859 651.235 129.594C651.195 129.325 651.175 129.057 651.175 128.788ZM651.403 126.293L651.415 127.273H650.447C650.219 127.273 650.02 127.299 649.852 127.351C649.684 127.403 649.545 127.478 649.437 127.574C649.329 127.666 649.249 127.774 649.197 127.899C649.149 128.023 649.125 128.159 649.125 128.307C649.125 128.456 649.159 128.59 649.227 128.71C649.295 128.826 649.393 128.919 649.521 128.987C649.65 129.051 649.8 129.083 649.972 129.083C650.233 129.083 650.459 129.031 650.652 128.927C650.844 128.822 650.992 128.694 651.097 128.542C651.205 128.39 651.261 128.245 651.265 128.109L651.722 128.842C651.658 129.007 651.57 129.177 651.457 129.354C651.349 129.53 651.211 129.696 651.043 129.853C650.874 130.005 650.672 130.131 650.435 130.231C650.199 130.328 649.918 130.376 649.594 130.376C649.181 130.376 648.806 130.293 648.469 130.129C648.137 129.961 647.872 129.73 647.676 129.438C647.483 129.141 647.387 128.804 647.387 128.428C647.387 128.087 647.451 127.784 647.579 127.52C647.708 127.255 647.896 127.033 648.145 126.852C648.397 126.668 648.712 126.53 649.089 126.437C649.465 126.341 649.902 126.293 650.399 126.293H651.403ZM655.949 125.139V130.255H654.217V123.75H655.84L655.949 125.139ZM655.696 126.774H655.227C655.227 126.293 655.289 125.86 655.414 125.476C655.538 125.087 655.712 124.756 655.937 124.483C656.161 124.207 656.428 123.996 656.736 123.852C657.049 123.704 657.398 123.63 657.782 123.63C658.087 123.63 658.366 123.674 658.618 123.762C658.871 123.85 659.087 123.99 659.267 124.183C659.452 124.375 659.592 124.63 659.688 124.946C659.789 125.263 659.839 125.65 659.839 126.107V130.255H658.095V126.101C658.095 125.812 658.055 125.588 657.975 125.427C657.895 125.267 657.776 125.155 657.62 125.091C657.468 125.023 657.279 124.989 657.055 124.989C656.822 124.989 656.62 125.035 656.448 125.127C656.279 125.219 656.139 125.347 656.027 125.512C655.919 125.672 655.836 125.86 655.78 126.077C655.724 126.293 655.696 126.526 655.696 126.774ZM669.404 127.351H671.202C671.166 127.941 671.004 128.464 670.715 128.921C670.431 129.378 670.032 129.734 669.519 129.991C669.01 130.247 668.396 130.376 667.679 130.376C667.118 130.376 666.615 130.279 666.17 130.087C665.725 129.891 665.344 129.61 665.027 129.245C664.715 128.881 664.476 128.44 664.312 127.923C664.148 127.405 664.065 126.826 664.065 126.185V125.578C664.065 124.936 664.15 124.357 664.318 123.84C664.49 123.319 664.735 122.876 665.051 122.511C665.372 122.147 665.755 121.866 666.2 121.67C666.645 121.473 667.142 121.375 667.691 121.375C668.42 121.375 669.036 121.507 669.537 121.772C670.042 122.036 670.433 122.401 670.709 122.866C670.99 123.331 671.158 123.86 671.214 124.453H669.41C669.39 124.101 669.32 123.802 669.2 123.558C669.08 123.309 668.897 123.123 668.653 122.998C668.412 122.87 668.092 122.806 667.691 122.806C667.39 122.806 667.128 122.862 666.903 122.974C666.679 123.087 666.49 123.257 666.338 123.485C666.186 123.714 666.072 124.002 665.995 124.351C665.923 124.696 665.887 125.101 665.887 125.566V126.185C665.887 126.638 665.921 127.037 665.989 127.381C666.058 127.722 666.162 128.011 666.302 128.247C666.446 128.48 666.631 128.656 666.855 128.776C667.084 128.893 667.358 128.951 667.679 128.951C668.056 128.951 668.366 128.891 668.611 128.77C668.855 128.65 669.042 128.472 669.17 128.235C669.302 127.999 669.38 127.704 669.404 127.351ZM672.002 127.069V126.943C672.002 126.466 672.07 126.027 672.206 125.626C672.342 125.221 672.541 124.87 672.801 124.574C673.062 124.277 673.383 124.047 673.763 123.882C674.144 123.714 674.581 123.63 675.074 123.63C675.567 123.63 676.006 123.714 676.391 123.882C676.776 124.047 677.098 124.277 677.359 124.574C677.623 124.87 677.824 125.221 677.96 125.626C678.096 126.027 678.164 126.466 678.164 126.943V127.069C678.164 127.542 678.096 127.981 677.96 128.386C677.824 128.786 677.623 129.137 677.359 129.438C677.098 129.734 676.778 129.965 676.397 130.129C676.016 130.293 675.579 130.376 675.086 130.376C674.593 130.376 674.154 130.293 673.769 130.129C673.389 129.965 673.066 129.734 672.801 129.438C672.541 129.137 672.342 128.786 672.206 128.386C672.07 127.981 672.002 127.542 672.002 127.069ZM673.733 126.943V127.069C673.733 127.341 673.757 127.596 673.805 127.832C673.854 128.069 673.93 128.277 674.034 128.458C674.142 128.634 674.282 128.772 674.455 128.873C674.627 128.973 674.838 129.023 675.086 129.023C675.327 129.023 675.533 128.973 675.705 128.873C675.878 128.772 676.016 128.634 676.12 128.458C676.224 128.277 676.301 128.069 676.349 127.832C676.401 127.596 676.427 127.341 676.427 127.069V126.943C676.427 126.678 676.401 126.429 676.349 126.197C676.301 125.961 676.222 125.752 676.114 125.572C676.01 125.387 675.872 125.243 675.699 125.139C675.527 125.035 675.319 124.982 675.074 124.982C674.83 124.982 674.621 125.035 674.449 125.139C674.28 125.243 674.142 125.387 674.034 125.572C673.93 125.752 673.854 125.961 673.805 126.197C673.757 126.429 673.733 126.678 673.733 126.943ZM683.071 128.836V121.02H684.814V130.255H683.245L683.071 128.836ZM678.958 127.081V126.955C678.958 126.458 679.014 126.007 679.126 125.602C679.239 125.193 679.403 124.842 679.619 124.55C679.836 124.257 680.102 124.031 680.419 123.87C680.736 123.71 681.097 123.63 681.501 123.63C681.882 123.63 682.215 123.71 682.499 123.87C682.788 124.031 683.033 124.259 683.233 124.556C683.437 124.848 683.602 125.195 683.726 125.596C683.85 125.993 683.94 126.427 683.997 126.9V127.177C683.94 127.63 683.85 128.051 683.726 128.44C683.602 128.828 683.437 129.169 683.233 129.462C683.033 129.75 682.788 129.975 682.499 130.135C682.211 130.295 681.874 130.376 681.489 130.376C681.084 130.376 680.724 130.293 680.407 130.129C680.094 129.965 679.83 129.734 679.613 129.438C679.401 129.141 679.239 128.792 679.126 128.392C679.014 127.991 678.958 127.554 678.958 127.081ZM680.69 126.955V127.081C680.69 127.349 680.71 127.6 680.75 127.832C680.794 128.065 680.864 128.271 680.96 128.452C681.06 128.628 681.189 128.766 681.345 128.867C681.505 128.963 681.7 129.011 681.928 129.011C682.225 129.011 682.469 128.945 682.662 128.812C682.854 128.676 683 128.49 683.101 128.253C683.205 128.017 683.265 127.744 683.281 127.436V126.648C683.269 126.395 683.233 126.169 683.173 125.969C683.117 125.764 683.033 125.59 682.92 125.445C682.812 125.301 682.676 125.189 682.511 125.109C682.351 125.029 682.161 124.989 681.94 124.989C681.716 124.989 681.523 125.041 681.363 125.145C681.203 125.245 681.072 125.383 680.972 125.56C680.876 125.736 680.804 125.944 680.756 126.185C680.712 126.421 680.69 126.678 680.69 126.955ZM689.161 130.376C688.656 130.376 688.203 130.295 687.802 130.135C687.402 129.971 687.061 129.744 686.78 129.456C686.504 129.167 686.291 128.832 686.143 128.452C685.995 128.067 685.92 127.658 685.92 127.225V126.985C685.92 126.492 685.991 126.041 686.131 125.632C686.271 125.223 686.472 124.868 686.732 124.568C686.997 124.267 687.317 124.037 687.694 123.876C688.071 123.712 688.496 123.63 688.969 123.63C689.43 123.63 689.839 123.706 690.195 123.858C690.552 124.01 690.851 124.227 691.091 124.508C691.336 124.788 691.52 125.125 691.644 125.518C691.769 125.906 691.831 126.339 691.831 126.816V127.538H686.66V126.383H690.129V126.251C690.129 126.011 690.085 125.796 689.997 125.608C689.913 125.415 689.784 125.263 689.612 125.151C689.44 125.039 689.219 124.982 688.951 124.982C688.722 124.982 688.526 125.033 688.362 125.133C688.197 125.233 688.063 125.373 687.959 125.554C687.858 125.734 687.782 125.946 687.73 126.191C687.682 126.431 687.658 126.696 687.658 126.985V127.225C687.658 127.486 687.694 127.726 687.766 127.947C687.842 128.167 687.949 128.357 688.085 128.518C688.225 128.678 688.394 128.802 688.59 128.891C688.79 128.979 689.017 129.023 689.269 129.023C689.582 129.023 689.873 128.963 690.141 128.842C690.414 128.718 690.648 128.532 690.845 128.283L691.686 129.197C691.55 129.394 691.364 129.582 691.127 129.762C690.895 129.943 690.614 130.091 690.285 130.207C689.957 130.32 689.582 130.376 689.161 130.376ZM694.548 125.169V130.255H692.817V123.75H694.446L694.548 125.169ZM696.508 123.708L696.478 125.313C696.394 125.301 696.292 125.291 696.172 125.283C696.055 125.271 695.949 125.265 695.853 125.265C695.608 125.265 695.396 125.297 695.216 125.361C695.039 125.421 694.891 125.512 694.771 125.632C694.654 125.752 694.566 125.898 694.506 126.071C694.45 126.243 694.418 126.44 694.41 126.66L694.061 126.552C694.061 126.131 694.103 125.744 694.188 125.391C694.272 125.035 694.394 124.724 694.554 124.459C694.719 124.195 694.919 123.99 695.156 123.846C695.392 123.702 695.663 123.63 695.967 123.63C696.063 123.63 696.162 123.638 696.262 123.654C696.362 123.666 696.444 123.684 696.508 123.708Z" fill="#1C1B1F"/>
<path d="M637.71 57.2204H648.101C650.013 57.2204 651.352 57.0389 651.352 58.9662V55.4747C651.352 53.5473 650.013 51.9831 648.101 51.9831H634.246C630.783 51.9831 628.041 55.6929 629.051 60.712C629.051 60.712 632.153 77.0787 632.371 78.0965C632.947 80.7884 636.049 83.4071 639.369 83.4071H651.42C653.333 83.4071 651.352 80.0971 651.352 78.1698V74.6782C651.352 76.6056 650.013 78.1698 648.101 78.1698H641.174C639.262 78.1698 637.999 76.3507 637.71 74.6782C637.421 73.0058 634.967 61.8764 634.967 61.8764C634.39 58.5298 635.796 57.2204 637.71 57.2204ZM682.414 57.2204H672.022C670.11 57.2204 666.939 57.0389 666.939 58.9662V55.4747C666.939 53.5473 670.11 51.9831 672.022 51.9831H685.877C689.341 51.9831 692.084 55.6929 691.073 60.712C691.073 60.712 688.245 77.1555 688.006 78.1698C687.393 80.7884 684.469 83.4071 681.078 83.4071H668.702C666.79 83.4071 666.939 80.0971 666.939 78.1698V74.6782C666.939 76.6056 670.11 78.1698 672.022 78.1698H678.95C680.862 78.1698 682.126 76.3507 682.414 74.6782C682.701 73.0058 685.157 61.8764 685.157 61.8764C685.732 58.5298 684.327 57.2204 682.414 57.2204ZM664.916 86.8987C664.916 74.7515 660.225 86.8987 660.225 86.8987C660.225 86.8987 655.029 74.7515 655.029 86.8987C655.029 99.0458 649.329 104.356 649.329 104.356H670.618C670.618 104.356 664.916 99.0458 664.916 86.8987Z" fill="#82ACF5"/>
<path d="M675.599 106.102C675.599 108.03 675.992 109.594 674.08 109.594H646.37C644.456 109.594 644.425 108.03 644.425 106.102V104.356C644.425 102.429 646.441 100.865 648.245 100.865H672.348C674.152 100.865 675.599 102.429 675.599 104.356V106.102Z" fill="#828282"/>
<path d="M679.062 108.939C679.062 110.266 679.348 111.34 676.894 111.34H643.555C641.318 111.34 640.961 110.266 640.961 108.939V108.503C640.961 107.176 642.239 106.102 643.555 106.102H676.894C678.209 106.102 679.062 107.176 679.062 108.503V108.939Z" fill="#828282"/>
<path fill-rule="evenodd" clip-rule="evenodd" d="M660.225 91.7327C667.551 91.7327 679.275 71.8012 679.275 59.9735C679.275 50.0872 677.4 48.8913 672.348 48.8931L660.225 48.8948C658.36 48.8948 655.117 48.9088 652.168 48.9216C649.708 48.9322 647.452 48.942 646.37 48.942C642.906 48.942 641.174 50.9042 641.174 59.9735C641.174 71.8012 652.897 91.7327 660.225 91.7327Z" fill="#2D9CDB"/>
<circle cx="151.594" cy="94.9677" r="24.0864" fill="#696767"/>
<path d="M142.813 96.2223L147.831 101.24L160.376 88.6953" stroke="white" stroke-width="3.0108" stroke-linecap="round" stroke-linejoin="round"/>
<rect x="175.681" y="93.4624" width="55.6998" height="3.0108" fill="#696767"/>
<circle cx="255.467" cy="94.9677" r="24.0864" fill="#696767"/>
<path d="M246.687 96.2223L251.705 101.24L264.25 88.6953" stroke="white" stroke-width="3.0108" stroke-linecap="round" stroke-linejoin="round"/>
<rect x="279.553" y="93.4624" width="55.6998" height="3.0108" fill="#696767"/>
<circle cx="359.339" cy="94.9677" r="24.0864" fill="#696767"/>
<path d="M350.559 96.2223L355.577 101.24L368.122 88.6953" stroke="white" stroke-width="3.0108" stroke-linecap="round" stroke-linejoin="round"/>
<rect x="383.426" y="93.4624" width="55.6998" height="3.0108" fill="#696767"/>
<circle cx="463.211" cy="94.9677" r="24.0864" fill="#696767"/>
<path d="M454.431 96.2223L459.449 101.24L471.994 88.6953" stroke="white" stroke-width="3.0108" stroke-linecap="round" stroke-linejoin="round"/>
<rect x="487.298" y="93.4624" width="55.6998" height="3.0108" fill="#696767"/>
<circle cx="567.084" cy="94.9677" r="22.581" stroke="#9CA3AF" stroke-width="3.0108"/>
<circle cx="567.085" cy="94.9679" r="7.527" fill="#D1D5DB"/>
<path opacity="0.6" d="M573.987 48.3741C580.932 48.3741 586.563 47.7747 586.563 47.0352C586.563 46.2957 580.932 45.6963 573.987 45.6963C567.041 45.6963 561.41 46.2957 561.41 47.0352C561.41 47.7747 567.041 48.3741 573.987 48.3741Z" fill="#40A45D"/>
<path d="M581.142 16.9127C582.433 15.6662 582.433 13.6256 581.142 12.379L580.91 12.155C580.491 11.7504 579.812 11.7504 579.393 12.155L576.975 14.4899" fill="#A5BFC4"/>
<path d="M581.142 16.9127C582.433 15.6662 582.433 13.6256 581.142 12.379L580.91 12.155C580.491 11.7504 579.812 11.7504 579.393 12.155L576.975 14.4899" stroke="black" stroke-width="0.879528" stroke-miterlimit="10" stroke-linecap="round"/>
<path fill-rule="evenodd" clip-rule="evenodd" d="M559.455 37.818C556.557 37.818 554.186 35.4826 554.186 32.6289V24.4669C554.186 21.6127 556.557 19.2778 559.455 19.2778C562.353 19.2778 564.724 21.6127 564.724 24.4669V32.6289C564.724 35.4826 562.353 37.818 559.455 37.818Z" fill="#FCE47E"/>
<path d="M559.455 37.818C556.557 37.818 554.186 35.4826 554.186 32.6289V24.4669C554.186 21.6127 556.557 19.2778 559.455 19.2778C562.353 19.2778 564.724 21.6127 564.724 24.4669V32.6289C564.724 35.4826 562.353 37.818 559.455 37.818Z" stroke="black" stroke-width="0.879528"/>
<path fill-rule="evenodd" clip-rule="evenodd" d="M560.985 37.8179C558.121 37.8179 555.544 39.0248 553.748 40.9493C555.544 42.8735 558.121 44.0804 560.985 44.0804C563.848 44.0804 566.425 42.8735 568.222 40.9493C566.425 39.0248 563.848 37.8179 560.985 37.8179Z" fill="#A5BFC4"/>
<mask id="mask0_326_3615" style="mask-type:alpha" maskUnits="userSpaceOnUse" x="553" y="37" width="12" height="8">
<path fill-rule="evenodd" clip-rule="evenodd" d="M564.853 43.3301C563.684 43.8129 562.401 44.0798 561.054 44.0798C558.191 44.0798 555.614 42.8729 553.817 40.9488C555.614 39.0237 558.191 37.8174 561.054 37.8174C562.401 37.8174 563.684 38.0841 564.853 38.5669V43.3301Z" fill="white"/>
</mask>
<g mask="url(#mask0_326_3615)">
<path fill-rule="evenodd" clip-rule="evenodd" d="M551.026 45.7002H556.025V34.7388H551.026V45.7002Z" fill="#6C888C"/>
<path fill-rule="evenodd" clip-rule="evenodd" d="M557.761 45.5113H560.346V34.5503H557.761V45.5113Z" fill="#6C888C"/>
<path fill-rule="evenodd" clip-rule="evenodd" d="M562.268 45.5113H564.852V34.5503H562.268V45.5113Z" fill="#6C888C"/>
</g>
<path d="M568.936 40.9489L569.245 41.2666L569.582 40.9489L569.245 40.6313L568.936 40.9489ZM561.03 37.3779C558.488 37.3779 556.063 38.1585 554.019 39.6349L554.547 40.3441C556.437 38.9788 558.678 38.2575 561.03 38.2575V37.3779ZM554.019 39.6349C553.592 39.9439 553.346 40.4259 553.346 40.9489H554.239C554.239 40.7033 554.351 40.486 554.547 40.3441L554.019 39.6349ZM553.346 40.9489C553.346 41.4721 553.592 41.9534 554.019 42.2623L554.547 41.5533C554.351 41.4114 554.239 41.1942 554.239 40.9489H553.346ZM554.019 42.2623C556.063 43.7387 558.488 44.52 561.03 44.52V43.6404C558.678 43.6404 556.437 42.9187 554.547 41.5533L554.019 42.2623ZM561.03 44.52C564.091 44.52 567.043 43.3424 569.245 41.2666L568.627 40.6313C566.591 42.5514 563.859 43.6404 561.03 43.6404V44.52ZM569.245 40.6313C567.043 38.5554 564.091 37.3779 561.03 37.3779V38.2575C563.859 38.2575 566.591 39.3464 568.627 41.2666L569.245 40.6313Z" fill="black"/>
<path fill-rule="evenodd" clip-rule="evenodd" d="M584.603 25.816L587.277 25.772C588.828 25.772 590.086 27.0104 590.086 28.5376C590.086 30.0654 588.828 31.3033 587.277 31.3033H586.201H584.636" fill="#A5BFC4"/>
<path d="M584.603 25.816L587.277 25.772C588.828 25.772 590.086 27.0104 590.086 28.5376C590.086 30.0654 588.828 31.3033 587.277 31.3033H586.201H584.636" stroke="black" stroke-width="0.879528"/>
<path fill-rule="evenodd" clip-rule="evenodd" d="M585.002 31.3038H578.511L578.772 25.8166L585.002 25.772" fill="white"/>
<path fill-rule="evenodd" clip-rule="evenodd" d="M583.506 39.5527V42.5859C583.506 44.5703 581.873 46.1792 579.858 46.1792C577.844 46.1792 576.21 44.5703 576.21 42.5859V41.2089V42.2905" fill="#A5BFC4"/>
<path d="M583.506 39.2793V42.4695C583.506 44.5183 581.82 46.179 579.74 46.179C577.659 46.179 575.973 44.5183 575.973 42.4695V40.1571" stroke="black" stroke-width="0.879528" stroke-linecap="round" stroke-linejoin="round"/>
<path fill-rule="evenodd" clip-rule="evenodd" d="M577.76 35.314C577.12 35.314 576.497 35.2426 575.911 35.0951C575.156 34.9051 574.7 34.147 574.893 33.4028C575.085 32.6587 575.854 32.2099 576.611 32.3996C578.242 32.8107 580.539 32.2312 582.196 30.9914C583.349 30.1286 584.022 29.0779 584.043 28.108C584.073 26.6693 579.817 24.7072 575.978 23.8462C575.218 23.6756 574.741 22.9306 574.914 22.1817C575.087 21.4325 575.842 20.9619 576.604 21.1334C578.334 21.5202 586.962 23.6756 586.866 28.1665C586.827 30.0168 585.775 31.807 583.905 33.2067C582.094 34.5615 579.835 35.314 577.76 35.314Z" fill="#FCE47E"/>
<path d="M577.76 35.314C577.12 35.314 576.497 35.2426 575.911 35.0951C575.156 34.9051 574.7 34.147 574.893 33.4028C575.085 32.6587 575.854 32.2098 576.611 32.3996C578.242 32.8107 580.539 32.2312 582.196 30.9914C583.349 30.1286 584.022 29.0779 584.043 28.108C584.073 26.6693 579.817 24.7072 575.978 23.8462C575.218 23.6756 574.741 22.9306 574.914 22.1817C575.087 21.4325 575.842 20.9619 576.604 21.1334C578.334 21.5202 586.962 23.6756 586.866 28.1665C586.827 30.0168 585.775 31.807 583.905 33.2067C582.094 34.5615 579.835 35.314 577.76 35.314Z" stroke="black" stroke-width="0.879528"/>
<path fill-rule="evenodd" clip-rule="evenodd" d="M573.564 44.8708C579.776 44.8708 584.86 39.8652 584.86 33.747V23.2575C584.86 17.1393 579.776 12.1338 573.564 12.1338C567.351 12.1338 562.269 17.1393 562.269 23.2575V33.747C562.269 39.8652 567.351 44.8708 573.564 44.8708Z" fill="#A5BFC4"/>
<mask id="mask1_326_3615" style="mask-type:alpha" maskUnits="userSpaceOnUse" x="572" y="30" width="10" height="15">
<path fill-rule="evenodd" clip-rule="evenodd" d="M581.976 41.1515C579.903 43.431 576.896 44.871 573.564 44.871C573.247 44.871 572.933 44.858 572.622 44.8324V30.1528H581.976V41.1515Z" fill="white"/>
</mask>
<g mask="url(#mask1_326_3615)">
<path fill-rule="evenodd" clip-rule="evenodd" d="M577.299 49.3004C579.881 49.3004 581.976 47.2385 581.976 44.695V34.7582C581.976 32.2147 579.881 30.1528 577.299 30.1528C574.716 30.1528 572.622 32.2147 572.622 34.7582V44.695C572.622 47.2385 574.716 49.3004 577.299 49.3004Z" fill="white" fill-opacity="0.24"/>
</g>
<mask id="mask2_326_3615" style="mask-type:alpha" maskUnits="userSpaceOnUse" x="562" y="24" width="23" height="21">
<path fill-rule="evenodd" clip-rule="evenodd" d="M562.298 24.4561V33.7474C562.298 39.8656 567.381 44.8711 573.593 44.8711C579.806 44.8711 584.889 39.8656 584.889 33.7474V24.4561H562.298Z" fill="white"/>
</mask>
<g mask="url(#mask2_326_3615)">
<path fill-rule="evenodd" clip-rule="evenodd" d="M562.546 34.3066C562.546 40.1414 567.349 44.8715 573.274 44.8715H574.838C580.763 44.8715 585.566 40.1414 585.566 34.3066H562.546Z" fill="#0BAF17"/>
<path fill-rule="evenodd" clip-rule="evenodd" d="M584.859 34.7856H561.86V24.4561L574.998 27.2773L576.831 31.6429C576.959 31.9481 577.398 31.9481 577.526 31.6425L579.36 27.2574L584.859 24.4561V34.7856Z" fill="white"/>
<path fill-rule="evenodd" clip-rule="evenodd" d="M573.148 34.3697H570.803V26.064L573.148 26.5429V34.3697Z" fill="#0BAF17"/>
<path fill-rule="evenodd" clip-rule="evenodd" d="M583.013 34.2755H580.667V26.5599L583.013 25.3848V34.2755Z" fill="#0BAF17"/>
</g>
<path d="M562.372 34.6636H584.777" stroke="black" stroke-width="0.879528"/>
<path opacity="0.42" fill-rule="evenodd" clip-rule="evenodd" d="M575.275 19.242C575.948 20.4081 575.534 21.8899 574.35 22.5529C573.59 22.9786 571.602 22.9405 570.276 22.8584C569.654 22.82 569.278 22.1676 569.562 21.6219C570.169 20.4582 571.153 18.7561 571.913 18.331C573.097 17.668 574.602 18.076 575.275 19.242Z" fill="white"/>
<path opacity="0.42" fill-rule="evenodd" clip-rule="evenodd" d="M578.737 19.4005C579.343 18.1997 580.823 17.7101 582.042 18.3073C582.825 18.6902 583.904 20.3356 584.575 21.4647C584.89 21.9936 584.551 22.6659 583.932 22.7382C582.613 22.8922 580.63 23.0392 579.847 22.6557C578.628 22.0585 578.131 20.6013 578.737 19.4005Z" fill="white"/>
<path fill-rule="evenodd" clip-rule="evenodd" d="M582.581 20.3581C582.581 20.9543 582.09 21.4379 581.484 21.4375C580.879 21.4375 580.388 20.9538 580.388 20.3571C580.388 19.7605 580.879 19.2773 581.485 19.2773C582.091 19.2778 582.582 19.7613 582.581 20.3581Z" fill="black"/>
<path fill-rule="evenodd" clip-rule="evenodd" d="M575.286 20.3581C575.286 20.9543 574.795 21.4379 574.189 21.4375C573.583 21.4375 573.092 20.9538 573.093 20.3571C573.093 19.7605 573.584 19.2773 574.19 19.2773C574.796 19.2778 575.286 19.7613 575.286 20.3581Z" fill="black"/>
<path d="M573.564 44.8712C579.776 44.8712 584.86 39.8657 584.86 33.7474V23.258C584.86 17.1398 579.776 12.1343 573.564 12.1343C567.351 12.1343 562.269 17.1398 562.269 23.258V33.7474C562.269 39.8657 567.351 44.8712 573.564 44.8712Z" stroke="black" stroke-width="0.879528"/>
<path fill-rule="evenodd" clip-rule="evenodd" d="M563.767 35.3145C563.128 35.3145 562.505 35.243 561.919 35.0956C561.164 34.9056 560.708 34.1475 560.901 33.4033C561.093 32.6592 561.862 32.2103 562.619 32.4C564.25 32.8112 566.547 32.2317 568.204 30.9919C569.356 30.1291 570.03 29.0784 570.05 28.1085C570.081 26.6698 565.825 24.7077 561.986 23.8467C561.226 23.6761 560.749 22.931 560.922 22.1822C561.095 21.433 561.849 20.9624 562.612 21.1339C564.342 21.5206 572.97 23.6761 572.874 28.167C572.835 30.0173 571.783 31.8074 569.913 33.2072C568.102 34.5619 565.842 35.3145 563.767 35.3145Z" fill="#FCE47E" stroke="black" stroke-width="0.879528"/>
<path fill-rule="evenodd" clip-rule="evenodd" d="M577.213 10.5628C576.665 8.96464 575.131 7.81299 573.322 7.81299C571.514 7.81299 569.981 8.96464 569.433 10.5628H577.213Z" fill="#1DCC70" stroke="black" stroke-width="0.879528"/>
<path fill-rule="evenodd" clip-rule="evenodd" d="M572.16 10.2175C571.776 10.2175 571.462 9.90828 571.462 9.53035V7.55526C571.462 7.17692 571.776 6.86768 572.16 6.86768C572.543 6.86768 572.857 7.17692 572.857 7.55526V9.53035C572.857 9.90828 572.543 10.2175 572.16 10.2175Z" fill="#FD4242"/>
<path fill-rule="evenodd" clip-rule="evenodd" d="M578.31 11.2864C578.31 12.2062 577.545 12.9587 576.611 12.9587H569.983C569.05 12.9587 568.285 12.2062 568.285 11.2864C568.285 10.8829 568.618 10.5557 569.027 10.5557H577.568C577.977 10.5557 578.31 10.8829 578.31 11.2864Z" fill="#0BAF17"/>
<path d="M578.31 11.2864C578.31 12.2062 577.545 12.9587 576.611 12.9587H569.983C569.05 12.9587 568.285 12.2062 568.285 11.2864C568.285 10.8829 568.618 10.5557 569.027 10.5557H577.568C577.977 10.5557 578.31 10.8829 578.31 11.2864Z" stroke="black" stroke-width="0.879528"/>
<path fill-rule="evenodd" clip-rule="evenodd" d="M572.606 42.5864C572.606 44.5708 570.972 46.1797 568.957 46.1797C566.942 46.1797 565.309 44.5708 565.309 42.5864" fill="#0BAF17"/>
<path fill-rule="evenodd" clip-rule="evenodd" d="M572.606 40.6299V42.5865C572.606 44.5709 570.972 46.1793 568.957 46.1793C566.942 46.1793 565.309 44.5709 565.309 42.5865V40.8506" fill="#0BAF17"/>
<path fill-rule="evenodd" clip-rule="evenodd" d="M572.606 42.5864C572.606 44.5708 570.972 46.1797 568.957 46.1797C566.942 46.1797 565.309 44.5708 565.309 42.5864" fill="#A5BFC4"/>
<path d="M571.403 29.4098L570.706 28.7231L568.731 26.7773L564.306 30.2425L567.432 33.3211C568.528 34.4014 570.307 34.4014 571.403 33.3211C572.501 32.2412 572.501 30.4901 571.403 29.4098Z" fill="white"/>
<path fill-rule="evenodd" clip-rule="evenodd" d="M570.706 28.7236L571.402 29.4103C572.5 30.4906 572.5 32.2417 571.402 33.3216C570.306 34.4019 568.528 34.4019 567.431 33.3216L566.67 32.5724" fill="#A5BFC4"/>
<path fill-rule="evenodd" clip-rule="evenodd" d="M590.207 46.1799C589.429 46.1799 588.795 45.5558 588.795 44.7889V18.8675C588.795 18.1001 589.429 17.4766 590.207 17.4766C590.986 17.4766 591.62 18.1001 591.62 18.8675V20.8946C591.807 20.8065 592.013 20.7601 592.227 20.7601C592.604 20.7601 592.959 20.9048 593.225 21.1677C593.492 21.4306 593.639 21.7797 593.639 22.1511C593.639 22.5229 593.492 22.872 593.225 23.1349L591.62 24.7159V44.7889C591.62 45.5558 590.986 46.1799 590.207 46.1799Z" fill="#FCE47E"/>
<path d="M590.207 46.1799C589.429 46.1799 588.795 45.5558 588.795 44.7889V18.8675C588.795 18.1001 589.429 17.4766 590.207 17.4766C590.986 17.4766 591.62 18.1001 591.62 18.8675V20.8946C591.807 20.8065 592.013 20.7601 592.227 20.7601C592.604 20.7601 592.959 20.9048 593.225 21.1677C593.492 21.4306 593.639 21.7797 593.639 22.1511C593.639 22.5229 593.492 22.872 593.225 23.1349L591.62 24.7159V44.7889C591.62 45.5558 590.986 46.1799 590.207 46.1799Z" stroke="black" stroke-width="0.879528"/>
<path fill-rule="evenodd" clip-rule="evenodd" d="M576.013 22.1816C576.752 21.8464 577.608 21.8464 578.347 22.1816C578.8 22.3875 578.896 22.9823 578.543 23.3301L577.693 24.1674C577.41 24.4465 576.95 24.4465 576.667 24.1674L575.817 23.3301C575.463 22.9823 575.56 22.3875 576.013 22.1816Z" fill="black"/>
<path fill-rule="evenodd" clip-rule="evenodd" d="M555.339 34.1756C553.436 34.1756 551.894 32.6567 551.894 30.7827V28.3587C551.894 26.4851 553.436 24.9658 555.339 24.9658C557.241 24.9658 558.784 26.4851 558.784 28.3587V30.7827C558.784 32.6567 557.241 34.1756 555.339 34.1756Z" fill="#FCE47E"/>
<path d="M555.339 34.1756C553.436 34.1756 551.894 32.6567 551.894 30.7827V28.3587C551.894 26.4851 553.436 24.9658 555.339 24.9658C557.241 24.9658 558.784 26.4851 558.784 28.3587V30.7827C558.784 32.6567 557.241 34.1756 555.339 34.1756Z" stroke="black" stroke-width="0.879528"/>
<path fill-rule="evenodd" clip-rule="evenodd" d="M559.968 19.7307C559.968 21.621 558.412 23.1533 556.492 23.1533C554.573 23.1533 553.017 21.621 553.017 19.7307C553.017 17.8404 554.573 16.3081 556.492 16.3081C558.412 16.3081 559.968 17.8404 559.968 19.7307Z" fill="#FD4242"/>
<path d="M559.968 19.7307C559.968 21.621 558.412 23.1533 556.492 23.1533C554.573 23.1533 553.017 21.621 553.017 19.7307C553.017 17.8404 554.573 16.3081 556.492 16.3081C558.412 16.3081 559.968 17.8404 559.968 19.7307Z" stroke="black" stroke-width="0.879528"/>
<path d="M564.305 30.2425L567.431 33.3211C568.527 34.4014 570.306 34.4014 571.402 33.3211C572.5 32.2412 572.5 30.4901 571.402 29.4098L570.705 28.7231L568.73 26.7773" stroke="black" stroke-width="0.879528" stroke-linecap="round"/>
<path fill-rule="evenodd" clip-rule="evenodd" d="M575.735 30.6562C575.466 31.0395 575.395 31.601 575.703 31.9558C575.846 32.1216 576.082 32.2268 576.294 32.1628C576.534 32.0908 576.664 31.8397 576.739 31.6047C576.899 31.1074 576.929 30.5806 576.958 30.06C576.959 30.4041 576.961 30.7529 577.049 31.0859C577.138 31.4189 577.324 31.7401 577.62 31.9229C577.916 32.1056 578.333 32.1185 578.6 31.8967C578.843 31.6954 578.918 31.3499 578.874 31.0406C578.817 30.6311 578.469 30.2507 578.118 30.0242C577.247 29.463 576.29 29.8682 575.735 30.6562Z" stroke="black" stroke-width="0.879528" stroke-linecap="round" stroke-linejoin="round"/>
<path d="M574.499 29.5477C576.128 29.6432 577.786 29.6053 579.392 29.436" stroke="black" stroke-width="0.879528" stroke-linecap="round" stroke-linejoin="round"/>
<path d="M551.894 28.5381H558.921" stroke="black" stroke-width="0.879528"/>
<path d="M572.842 40.1577V42.4703C572.842 44.519 571.156 46.1798 569.076 46.1798C566.995 46.1798 565.309 44.519 565.309 42.4703V40.1577" stroke="black" stroke-width="0.879528" stroke-linecap="round" stroke-linejoin="round"/>
<path d="M565.34 42.2256H572.81" stroke="black" stroke-width="0.879528"/>
<path d="M577.18 23.4209V25.4214" stroke="black" stroke-width="0.879528" stroke-linecap="round"/>
<path d="M575.459 25.0708C576.409 26.0065 577.95 26.0065 578.9 25.0708" stroke="black" stroke-width="0.879528" stroke-linecap="round"/>
<path d="M565.629 16.9127C564.338 15.6662 564.338 13.6256 565.629 12.379L565.861 12.155C566.28 11.7504 566.959 11.7504 567.378 12.155L569.796 14.4899" fill="#A5BFC4"/>
<path d="M565.629 16.9127C564.338 15.6662 564.338 13.6256 565.629 12.379L565.861 12.155C566.28 11.7504 566.959 11.7504 567.378 12.155L569.796 14.4899" stroke="black" stroke-width="0.879528" stroke-miterlimit="10" stroke-linecap="round"/>
</svg>
