<svg width="23" height="21" viewBox="0 0 23 21" fill="none" xmlns="http://www.w3.org/2000/svg">
<path d="M11.5 0C14.55 0 17.4751 1.05551 19.6317 2.93432C21.7884 4.81314 23 7.36136 23 10.0184C23 12.6755 21.7884 15.2237 19.6317 17.1025C17.4751 18.9813 14.55 20.0368 11.5 20.0368C8.45001 20.0368 5.52494 18.9813 3.36827 17.1025C1.2116 15.2237 0 12.6755 0 10.0184C0 7.36136 1.2116 4.81314 3.36827 2.93432C5.52494 1.05551 8.45001 0 11.5 0ZM12.1095 4.28215C10.7722 4.28215 9.72407 4.61276 8.947 5.27397C8.15186 5.93519 7.77236 6.8483 7.77236 8.01329H9.8325C9.8325 7.35208 9.97707 6.83255 10.2843 6.47046C10.6276 6.02965 11.1879 5.82499 11.983 5.82499C12.5974 5.82499 13.0854 5.96668 13.4287 6.2658C13.754 6.56492 13.9347 6.97424 13.9347 7.49377C13.9347 7.88735 13.7721 8.26518 13.4468 8.61154L13.2299 8.83194C12.0553 9.74505 11.3505 10.4063 11.1156 10.8313C10.8626 11.2564 10.7541 11.7759 10.7541 12.3742V12.5946H12.8324V12.3742C12.8324 11.9963 12.9227 11.6657 13.1034 11.3509C13.2661 11.0675 13.501 10.7998 13.8263 10.5637C14.6937 9.90248 15.2178 9.47741 15.3804 9.31998C15.8141 8.8162 16.0491 8.17072 16.0491 7.38356C16.0491 6.42323 15.6876 5.66755 14.9648 5.11654C14.2419 4.54979 13.2841 4.28215 12.1095 4.28215ZM11.7842 13.366C11.4157 13.3573 11.0583 13.4762 10.7903 13.6966C10.6579 13.8052 10.5539 13.9373 10.4853 14.084C10.4167 14.2307 10.3852 14.3885 10.3927 14.5467C10.3927 14.8931 10.5192 15.1765 10.7903 15.3969C11.0563 15.6218 11.4135 15.7463 11.7842 15.7432C12.1818 15.7432 12.5071 15.633 12.7781 15.4126C12.9133 15.3018 13.0202 15.1674 13.0918 15.0182C13.1634 14.869 13.1981 14.7084 13.1938 14.5467C13.1973 14.3889 13.1638 14.2322 13.0954 14.086C13.0271 13.9399 12.9253 13.8074 12.7962 13.6966C12.5212 13.4758 12.1581 13.3572 11.7842 13.366Z" fill="#B1B1B1"/>
</svg>
