<svg width="37" height="33" viewBox="0 0 37 33" fill="none" xmlns="http://www.w3.org/2000/svg">
<mask id="mask0_38_734" style="mask-type:alpha" maskUnits="userSpaceOnUse" x="0" y="0" width="37" height="33">
<rect width="37" height="33" fill="#D9D9D9"/>
</mask>
<g mask="url(#mask0_38_734)">
<path d="M-1.94694 26.971C-2.6168 26.971 -3.19025 26.7535 -3.66729 26.3186C-4.1443 25.8836 -4.38281 25.3607 -4.38281 24.7499C-4.38281 24.1391 -4.1443 23.6162 -3.66729 23.1812C-3.19025 22.7463 -2.6168 22.5288 -1.94694 22.5288C-1.27708 22.5288 -0.703635 22.7463 -0.226594 23.1812C0.250421 23.6162 0.488929 24.1391 0.488929 24.7499C0.488929 25.3607 0.250421 25.8836 -0.226594 26.3186C-0.703635 26.7535 -1.27708 26.971 -1.94694 26.971ZM-1.94694 18.721C-2.6168 18.721 -3.19025 18.5035 -3.66729 18.0686C-4.1443 17.6336 -4.38281 17.1107 -4.38281 16.4999C-4.38281 15.8891 -4.1443 15.3662 -3.66729 14.9312C-3.19025 14.4963 -2.6168 14.2788 -1.94694 14.2788C-1.27708 14.2788 -0.703635 14.4963 -0.226594 14.9312C0.250421 15.3662 0.488929 15.8891 0.488929 16.4999C0.488929 17.1107 0.250421 17.6336 -0.226594 18.0686C-0.703635 18.5035 -1.27708 18.721 -1.94694 18.721ZM-1.94694 10.471C-2.6168 10.471 -3.19025 10.2535 -3.66729 9.81858C-4.1443 9.3836 -4.38281 8.86071 -4.38281 8.24992C-4.38281 7.63912 -4.1443 7.11623 -3.66729 6.68125C-3.19025 6.24629 -2.6168 6.02881 -1.94694 6.02881C-1.27708 6.02881 -0.703635 6.24629 -0.226594 6.68125C0.250421 7.11623 0.488929 7.63912 0.488929 8.24992C0.488929 8.86071 0.250421 9.3836 -0.226594 9.81858C-0.703635 10.2535 -1.27708 10.471 -1.94694 10.471ZM7.09565 18.721C6.42436 18.721 5.85141 18.5035 5.3768 18.0686C4.9022 17.6336 4.6649 17.1107 4.6649 16.4999C4.6649 15.8891 4.90341 15.3662 5.38042 14.9312C5.85747 14.4963 6.43092 14.2788 7.10077 14.2788C7.77063 14.2788 8.34408 14.4963 8.82112 14.9312C9.29814 15.3662 9.53664 15.8891 9.53664 16.4999L7.09565 18.721ZM7.10077 10.471C6.43092 10.471 5.85747 10.2535 5.38042 9.81858C4.90341 9.3836 4.6649 8.86071 4.6649 8.24992C4.6649 7.63912 4.90341 7.11623 5.38042 6.68125C5.85747 6.24629 6.43092 6.02881 7.10077 6.02881C7.77063 6.02881 8.34408 6.24629 8.82112 6.68125C9.29814 7.11623 9.53664 7.63912 9.53664 8.24992C9.53664 8.86071 9.29814 9.3836 8.82112 9.81858C8.34408 10.2535 7.77063 10.471 7.10077 10.471ZM5.59282 27.1297V24.935L14.02 17.2509L16.4269 19.4455L7.9997 27.1297H5.59282ZM16.1485 10.471C15.4786 10.471 14.9052 10.2535 14.4281 9.81858C13.9511 9.3836 13.7126 8.86071 13.7126 8.24992C13.7126 7.63912 13.9511 7.11623 14.4281 6.68125C14.9052 6.24629 15.4786 6.02881 16.1485 6.02881C16.8183 6.02881 17.3918 6.24629 17.8688 6.68125C18.3458 7.11623 18.5844 7.63912 18.5844 8.24992C18.5844 8.86071 18.3458 9.3836 17.8688 9.81858C17.3918 10.2535 16.8183 10.471 16.1485 10.471ZM17.3519 18.6152L14.9306 16.4074L15.8498 15.5824C16.0741 15.3779 16.3355 15.2757 16.6342 15.2757C16.9329 15.2757 17.1818 15.3779 17.3809 15.5824L18.2567 16.3809C18.4809 16.5625 18.5906 16.7894 18.5858 17.0618C18.581 17.3342 18.4713 17.5726 18.2567 17.7771L17.3519 18.6152Z" fill="#2D9CDB"/>
</g>
</svg>
