<svg width="27" height="27" viewBox="0 0 27 27" fill="none" xmlns="http://www.w3.org/2000/svg">
<path d="M23.625 3.375V27H3.375V3.375H10.125C10.125 2.90918 10.2129 2.47412 10.3887 2.06982C10.5645 1.66553 10.8062 1.30518 11.1138 0.98877C11.4214 0.672363 11.7773 0.430664 12.1816 0.263672C12.5859 0.0966797 13.0254 0.00878906 13.5 0C13.9658 0 14.4009 0.0878906 14.8052 0.263672C15.2095 0.439453 15.5698 0.681152 15.8862 0.98877C16.2026 1.29639 16.4443 1.65234 16.6113 2.05664C16.7783 2.46094 16.8662 2.90039 16.875 3.375H23.625ZM8.4375 6.75H18.5625V5.0625H15.1875V3.375C15.1875 3.1377 15.1436 2.91797 15.0557 2.71582C14.9678 2.51367 14.8491 2.33789 14.6997 2.18848C14.5503 2.03906 14.3701 1.91602 14.1592 1.81934C13.9482 1.72266 13.7285 1.67871 13.5 1.6875C13.2627 1.6875 13.043 1.73145 12.8408 1.81934C12.6387 1.90723 12.4629 2.02588 12.3135 2.17529C12.1641 2.32471 12.041 2.50488 11.9443 2.71582C11.8477 2.92676 11.8037 3.14648 11.8125 3.375V5.0625H8.4375V6.75ZM13.5 20.25H11.8125V21.9375H13.5V20.25ZM13.5 10.125H11.8125V18.5625H13.5V10.125Z" fill="#B1B1B1"/>
</svg>
