<svg width="16" height="20" viewBox="0 0 16 20" fill="none" xmlns="http://www.w3.org/2000/svg">
<path d="M2 0H14C14.5304 0 15.0391 0.210714 15.4142 0.585786C15.7893 0.960859 16 1.46957 16 2V18C16 18.5304 15.7893 19.0391 15.4142 19.4142C15.0391 19.7893 14.5304 20 14 20H2C1.46957 20 0.960859 19.7893 0.585786 19.4142C0.210714 19.0391 0 18.5304 0 18V2C0 1.46957 0.210714 0.960859 0.585786 0.585786C0.960859 0.210714 1.46957 0 2 0ZM8.75 11.5C11.5 11.5 12.24 9.47 12.43 8.4C13.34 8.11 14 7.26 14 6.25C14 5 13 4 11.75 4C10.5 4 9.5 5 9.5 6.25C9.5 7.19 10.07 8 10.89 8.33C10.67 9 10 10 8 10C6.62 10 5.66 10.35 5 10.84V6.87C5.87 6.56 6.5 5.73 6.5 4.75C6.5 3.5 5.5 2.5 4.25 2.5C3 2.5 2 3.5 2 4.75C2 5.73 2.63 6.56 3.5 6.87V13.13C2.63 13.44 2 14.27 2 15.25C2 16.5 3 17.5 4.25 17.5C5.5 17.5 6.5 16.5 6.5 15.25C6.5 14.32 5.94 13.5 5.13 13.18C5.41 12.5 6.23 11.5 8.75 11.5ZM4.25 14.5C4.44891 14.5 4.63968 14.579 4.78033 14.7197C4.92098 14.8603 5 15.0511 5 15.25C5 15.4489 4.92098 15.6397 4.78033 15.7803C4.63968 15.921 4.44891 16 4.25 16C4.05109 16 3.86032 15.921 3.71967 15.7803C3.57902 15.6397 3.5 15.4489 3.5 15.25C3.5 15.0511 3.57902 14.8603 3.71967 14.7197C3.86032 14.579 4.05109 14.5 4.25 14.5ZM4.25 4C4.44891 4 4.63968 4.07902 4.78033 4.21967C4.92098 4.36032 5 4.55109 5 4.75C5 4.94891 4.92098 5.13968 4.78033 5.28033C4.63968 5.42098 4.44891 5.5 4.25 5.5C4.05109 5.5 3.86032 5.42098 3.71967 5.28033C3.57902 5.13968 3.5 4.94891 3.5 4.75C3.5 4.55109 3.57902 4.36032 3.71967 4.21967C3.86032 4.07902 4.05109 4 4.25 4ZM11.75 5.5C11.9489 5.5 12.1397 5.57902 12.2803 5.71967C12.421 5.86032 12.5 6.05109 12.5 6.25C12.5 6.44891 12.421 6.63968 12.2803 6.78033C12.1397 6.92098 11.9489 7 11.75 7C11.5511 7 11.3603 6.92098 11.2197 6.78033C11.079 6.63968 11 6.44891 11 6.25C11 6.05109 11.079 5.86032 11.2197 5.71967C11.3603 5.57902 11.5511 5.5 11.75 5.5Z" fill="#B1B1B1"/>
</svg>
