<svg width="30" height="22" viewBox="0 0 30 22" fill="none" xmlns="http://www.w3.org/2000/svg">
<path d="M20.5333 19.0667V22H0V19.0667C0 19.0667 0 13.2 10.2666 13.2C20.5333 13.2 20.5333 19.0667 20.5333 19.0667ZM15.4 5.13337C15.4 4.1181 15.0989 3.12562 14.5348 2.28145C13.9708 1.43728 13.1691 0.779334 12.2311 0.390805C11.2931 0.00227611 10.2609 -0.0993808 9.26518 0.0986895C8.26941 0.29676 7.35474 0.785661 6.63684 1.50357C5.91893 2.22148 5.43003 3.13615 5.23196 4.13191C5.03389 5.12768 5.13554 6.15982 5.52407 7.09781C5.9126 8.0358 6.57055 8.83752 7.41472 9.40158C8.25889 9.96563 9.25137 10.2667 10.2666 10.2667C11.6281 10.2667 12.9338 9.72586 13.8964 8.76318C14.8591 7.8005 15.4 6.49482 15.4 5.13337ZM20.4453 13.2C21.3469 13.8978 22.0847 14.7847 22.6067 15.7982C23.1287 16.8118 23.4222 17.9275 23.4666 19.0667V22H29.3333V19.0667C29.3333 19.0667 29.3333 13.7427 20.4453 13.2ZM19.0666 5.39681e-05C18.0572 -0.00464102 17.0702 0.297099 16.236 0.865385C17.1269 2.1102 17.6059 3.6026 17.6059 5.13337C17.6059 6.66415 17.1269 8.15655 16.236 9.40136C17.0702 9.96965 18.0572 10.2714 19.0666 10.2667C20.4281 10.2667 21.7337 9.72586 22.6964 8.76318C23.6591 7.8005 24.1999 6.49482 24.1999 5.13337C24.1999 3.77193 23.6591 2.46625 22.6964 1.50357C21.7337 0.540885 20.4281 5.39681e-05 19.0666 5.39681e-05Z" fill="#2D60FF"/>
</svg>
